<?xml version="1.0" encoding="UTF-8"?>
<svg width="600" height="600" viewBox="0 0 600 600" xmlns="http://www.w3.org/2000/svg">
  <path d="M -86.60254037844386 -125.00000000000001 L -77.37070697111359 -76.57575144012908 L -43.301270189221924 -50.00000000000002 L -86.37749147898303 -72.89447682314866 L -129.9038105676658 -50 Z" fill="#2675d9" stroke="#000" stroke-width="0.5" opacity="0.9"/>
  <path d="M -173.20508075688772 -125.00000000000001 L -182.43691416421802 -76.57575144012908 L -216.50635094610965 -50.00000000000002 L -173.43012965634853 -72.89447682314866 L -129.9038105676658 -50 Z" fill="#8caed9" stroke="#000" stroke-width="0.5" opacity="0.9"/>
  <path d="M 3.061616997868383e-15 -125.00000000000001 L 9.231833407330274 -76.57575144012908 L 43.30127018922194 -50.00000000000002 L 0.22504889946082382 -72.89447682314866 L -43.301270189221924 -50 Z" fill="#d98a26" stroke="#000" stroke-width="0.5" opacity="0.9"/>
  <path d="M 86.60254037844386 -125.00000000000001 L 77.37070697111358 -76.57575144012908 L 43.301270189221924 -50.00000000000002 L 86.37749147898305 -72.89447682314866 L 129.90381056766577 -50 Z" fill="#d9b78c" stroke="#000" stroke-width="0.5" opacity="0.9"/>
  <path d="M 86.60254037844386 -125.00000000000001 L 95.83437378577413 -76.57575144012908 L 129.9038105676658 -50.00000000000002 L 86.82758927790469 -72.89447682314866 L 43.30127018922194 -50 Z" fill="#2675d9" stroke="#000" stroke-width="0.5" opacity="0.9"/>
  <path d="M 346.41016151377545 -125.00000000000001 L 337.1783281064452 -76.57575144012908 L 303.1088913245535 -50.00000000000002 L 346.1851126143146 -72.89447682314866 L 389.71143170299734 -50 Z" fill="#8caed9" stroke="#000" stroke-width="0.5" opacity="0.9"/>
  <path d="M 173.20508075688772 -125.00000000000001 L 182.436914164218 -76.57575144012908 L 216.50635094610965 -50.00000000000002 L 173.43012965634856 -72.89447682314866 L 129.9038105676658 -50 Z" fill="#d98a26" stroke="#000" stroke-width="0.5" opacity="0.9"/>
  <path d="M 606.217782649107 -125.00000000000001 L 596.9859492417768 -76.57575144012908 L 562.9165124598851 -50.00000000000002 L 605.9927337496462 -72.89447682314866 L 649.519052838329 -50 Z" fill="#d9b78c" stroke="#000" stroke-width="0.5" opacity="0.9"/>
  <path d="M 259.8076211353316 -125.00000000000001 L 269.0394545426619 -76.57575144012908 L 303.10889132455355 -50.00000000000002 L 260.03267003479243 -72.89447682314866 L 216.50635094610968 -50 Z" fill="#2675d9" stroke="#000" stroke-width="0.5" opacity="0.9"/>
  <path d="M 866.0254037844387 -125.00000000000001 L 856.7935703771085 -76.57575144012908 L 822.7241335952167 -50.00000000000002 L 865.8003548849779 -72.89447682314866 L 909.3266739736607 -50 Z" fill="#8caed9" stroke="#000" stroke-width="0.5" opacity="0.9"/>
  <path d="M 346.41016151377545 -125.00000000000001 L 355.6419949211057 -76.57575144012908 L 389.7114317029974 -50.00000000000002 L 346.6352104132363 -72.89447682314866 L 303.1088913245535 -50 Z" fill="#d98a26" stroke="#000" stroke-width="0.5" opacity="0.9"/>
  <path d="M 1125.8330249197702 -125.00000000000001 L 1116.60119151244 -76.57575144012908 L 1082.5317547305483 -50.00000000000002 L 1125.6079760203095 -72.89447682314866 L 1169.134295108992 -50 Z" fill="#d9b78c" stroke="#000" stroke-width="0.5" opacity="0.9"/>
  <path d="M 433.0127018922193 -125.00000000000001 L 442.24453529954957 -76.57575144012908 L 476.31397208144125 -50.00000000000002 L 433.2377507916801 -72.89447682314866 L 389.7114317029974 -50 Z" fill="#2675d9" stroke="#000" stroke-width="0.5" opacity="0.9"/>
  <path d="M 1385.6406460551018 -125.00000000000001 L 1376.4088126477716 -76.57575144012908 L 1342.33937586588 -50.00000000000002 L 1385.415597155641 -72.89447682314866 L 1428.9419162443237 -50 Z" fill="#8caed9" stroke="#000" stroke-width="0.5" opacity="0.9"/>
  <path d="M 519.6152422706632 -125.00000000000001 L 528.8470756779935 -76.57575144012908 L 562.9165124598851 -50.00000000000002 L 519.840291170124 -72.89447682314866 L 476.3139720814413 -50 Z" fill="#d98a26" stroke="#000" stroke-width="0.5" opacity="0.9"/>
  <path d="M 1645.4482671904334 -125.00000000000001 L 1636.216433783103 -76.57575144012908 L 1602.1469970012115 -50.00000000000002 L 1645.2232182909725 -72.89447682314866 L 1688.7495373796553 -50 Z" fill="#d9b78c" stroke="#000" stroke-width="0.5" opacity="0.9"/>
  <path d="M 606.217782649107 -125.00000000000001 L 615.4496160564373 -76.57575144012908 L 649.5190528383289 -50.00000000000002 L 606.4428315485678 -72.89447682314866 L 562.9165124598851 -50 Z" fill="#2675d9" stroke="#000" stroke-width="0.5" opacity="0.9"/>
  <path d="M 1905.2558883257648 -125.00000000000001 L 1896.0240549184343 -76.57575144012908 L 1861.9546181365429 -50.00000000000002 L 1905.0308394263038 -72.89447682314866 L 1948.5571585149867 -50 Z" fill="#8caed9" stroke="#000" stroke-width="0.5" opacity="0.9"/>
  <path d="M 692.8203230275509 -125.00000000000001 L 702.0521564348812 -76.57575144012908 L 736.1215932167728 -50.00000000000002 L 693.0453719270117 -72.89447682314866 L 649.519052838329 -50 Z" fill="#d98a26" stroke="#000" stroke-width="0.5" opacity="0.9"/>
  <path d="M 2165.0635094610966 -125.00000000000001 L 2155.831676053766 -76.57575144012908 L 2121.7622392718745 -50.00000000000002 L 2164.8384605616357 -72.89447682314866 L 2208.3647796503183 -50 Z" fill="#d9b78c" stroke="#000" stroke-width="0.5" opacity="0.9"/>
  <path d="M -86.60254037844386 -50 L -77.37070697111359 -1.5757514401290678 L -43.301270189221924 24.999999999999993 L -86.37749147898303 2.105523176851353 L -129.9038105676658 25.000000000000018 Z" fill="#2675d9" stroke="#000" stroke-width="0.5" opacity="0.9"/>
  <path d="M -173.20508075688772 -50 L -182.43691416421802 -1.5757514401290678 L -216.50635094610965 24.999999999999993 L -173.43012965634853 2.105523176851353 L -129.9038105676658 25.000000000000018 Z" fill="#8caed9" stroke="#000" stroke-width="0.5" opacity="0.9"/>
  <path d="M 3.061616997868383e-15 -50 L 9.231833407330274 -1.5757514401290678 L 43.30127018922194 24.999999999999993 L 0.22504889946082382 2.105523176851353 L -43.301270189221924 25.000000000000018 Z" fill="#d98a26" stroke="#000" stroke-width="0.5" opacity="0.9"/>
  <path d="M 86.60254037844386 -50 L 77.37070697111358 -1.5757514401290678 L 43.301270189221924 24.999999999999993 L 86.37749147898305 2.105523176851353 L 129.90381056766577 25.000000000000018 Z" fill="#d9b78c" stroke="#000" stroke-width="0.5" opacity="0.9"/>
  <path d="M 86.60254037844386 -50 L 95.83437378577413 -1.5757514401290678 L 129.9038105676658 24.999999999999993 L 86.82758927790469 2.105523176851353 L 43.30127018922194 25.000000000000018 Z" fill="#2675d9" stroke="#000" stroke-width="0.5" opacity="0.9"/>
  <path d="M 346.41016151377545 -50 L 337.1783281064452 -1.5757514401290678 L 303.1088913245535 24.999999999999993 L 346.1851126143146 2.105523176851353 L 389.71143170299734 25.000000000000018 Z" fill="#8caed9" stroke="#000" stroke-width="0.5" opacity="0.9"/>
  <path d="M 173.20508075688772 -50 L 182.436914164218 -1.5757514401290678 L 216.50635094610965 24.999999999999993 L 173.43012965634856 2.105523176851353 L 129.9038105676658 25.000000000000018 Z" fill="#d98a26" stroke="#000" stroke-width="0.5" opacity="0.9"/>
  <path d="M 606.217782649107 -50 L 596.9859492417768 -1.5757514401290678 L 562.9165124598851 24.999999999999993 L 605.9927337496462 2.105523176851353 L 649.519052838329 25.000000000000018 Z" fill="#d9b78c" stroke="#000" stroke-width="0.5" opacity="0.9"/>
  <path d="M 259.8076211353316 -50 L 269.0394545426619 -1.5757514401290678 L 303.10889132455355 24.999999999999993 L 260.03267003479243 2.105523176851353 L 216.50635094610968 25.000000000000018 Z" fill="#2675d9" stroke="#000" stroke-width="0.5" opacity="0.9"/>
  <path d="M 866.0254037844387 -50 L 856.7935703771085 -1.5757514401290678 L 822.7241335952167 24.999999999999993 L 865.8003548849779 2.105523176851353 L 909.3266739736607 25.000000000000018 Z" fill="#8caed9" stroke="#000" stroke-width="0.5" opacity="0.9"/>
  <path d="M 346.41016151377545 -50 L 355.6419949211057 -1.5757514401290678 L 389.7114317029974 24.999999999999993 L 346.6352104132363 2.105523176851353 L 303.1088913245535 25.000000000000018 Z" fill="#d98a26" stroke="#000" stroke-width="0.5" opacity="0.9"/>
  <path d="M 1125.8330249197702 -50 L 1116.60119151244 -1.5757514401290678 L 1082.5317547305483 24.999999999999993 L 1125.6079760203095 2.105523176851353 L 1169.134295108992 25.000000000000018 Z" fill="#d9b78c" stroke="#000" stroke-width="0.5" opacity="0.9"/>
  <path d="M 433.0127018922193 -50 L 442.24453529954957 -1.5757514401290678 L 476.31397208144125 24.999999999999993 L 433.2377507916801 2.105523176851353 L 389.7114317029974 25.000000000000018 Z" fill="#2675d9" stroke="#000" stroke-width="0.5" opacity="0.9"/>
  <path d="M 1385.6406460551018 -50 L 1376.4088126477716 -1.5757514401290678 L 1342.33937586588 24.999999999999993 L 1385.415597155641 2.105523176851353 L 1428.9419162443237 25.000000000000018 Z" fill="#8caed9" stroke="#000" stroke-width="0.5" opacity="0.9"/>
  <path d="M 519.6152422706632 -50 L 528.8470756779935 -1.5757514401290678 L 562.9165124598851 24.999999999999993 L 519.840291170124 2.105523176851353 L 476.3139720814413 25.000000000000018 Z" fill="#d98a26" stroke="#000" stroke-width="0.5" opacity="0.9"/>
  <path d="M 1645.4482671904334 -50 L 1636.216433783103 -1.5757514401290678 L 1602.1469970012115 24.999999999999993 L 1645.2232182909725 2.105523176851353 L 1688.7495373796553 25.000000000000018 Z" fill="#d9b78c" stroke="#000" stroke-width="0.5" opacity="0.9"/>
  <path d="M 606.217782649107 -50 L 615.4496160564373 -1.5757514401290678 L 649.5190528383289 24.999999999999993 L 606.4428315485678 2.105523176851353 L 562.9165124598851 25.000000000000018 Z" fill="#2675d9" stroke="#000" stroke-width="0.5" opacity="0.9"/>
  <path d="M 1905.2558883257648 -50 L 1896.0240549184343 -1.5757514401290678 L 1861.9546181365429 24.999999999999993 L 1905.0308394263038 2.105523176851353 L 1948.5571585149867 25.000000000000018 Z" fill="#8caed9" stroke="#000" stroke-width="0.5" opacity="0.9"/>
  <path d="M 692.8203230275509 -50 L 702.0521564348812 -1.5757514401290678 L 736.1215932167728 24.999999999999993 L 693.0453719270117 2.105523176851353 L 649.519052838329 25.000000000000018 Z" fill="#d98a26" stroke="#000" stroke-width="0.5" opacity="0.9"/>
  <path d="M 2165.0635094610966 -50 L 2155.831676053766 -1.5757514401290678 L 2121.7622392718745 24.999999999999993 L 2164.8384605616357 2.105523176851353 L 2208.3647796503183 25.000000000000018 Z" fill="#d9b78c" stroke="#000" stroke-width="0.5" opacity="0.9"/>
  <path d="M -86.60254037844386 25.000000000000014 L -77.37070697111359 73.42424855987095 L -43.301270189221924 100 L -86.37749147898303 77.10552317685136 L -129.9038105676658 100.00000000000003 Z" fill="#2675d9" stroke="#000" stroke-width="0.5" opacity="0.9"/>
  <path d="M -173.20508075688772 25.000000000000014 L -182.43691416421802 73.42424855987095 L -216.50635094610965 100 L -173.43012965634853 77.10552317685136 L -129.9038105676658 100.00000000000003 Z" fill="#8caed9" stroke="#000" stroke-width="0.5" opacity="0.9"/>
  <path d="M 3.061616997868383e-15 25.000000000000014 L 9.231833407330274 73.42424855987095 L 43.30127018922194 100 L 0.22504889946082382 77.10552317685136 L -43.301270189221924 100.00000000000003 Z" fill="#d98a26" stroke="#000" stroke-width="0.5" opacity="0.9"/>
  <path d="M 86.60254037844386 25.000000000000014 L 77.37070697111358 73.42424855987095 L 43.301270189221924 100 L 86.37749147898305 77.10552317685136 L 129.90381056766577 100.00000000000003 Z" fill="#d9b78c" stroke="#000" stroke-width="0.5" opacity="0.9"/>
  <path d="M 86.60254037844386 25.000000000000014 L 95.83437378577413 73.42424855987095 L 129.9038105676658 100 L 86.82758927790469 77.10552317685136 L 43.30127018922194 100.00000000000003 Z" fill="#2675d9" stroke="#000" stroke-width="0.5" opacity="0.9"/>
  <path d="M 346.41016151377545 25.000000000000014 L 337.1783281064452 73.42424855987095 L 303.1088913245535 100 L 346.1851126143146 77.10552317685136 L 389.71143170299734 100.00000000000003 Z" fill="#8caed9" stroke="#000" stroke-width="0.5" opacity="0.9"/>
  <path d="M 173.20508075688772 25.000000000000014 L 182.436914164218 73.42424855987095 L 216.50635094610965 100 L 173.43012965634856 77.10552317685136 L 129.9038105676658 100.00000000000003 Z" fill="#d98a26" stroke="#000" stroke-width="0.5" opacity="0.9"/>
  <path d="M 606.217782649107 25.000000000000014 L 596.9859492417768 73.42424855987095 L 562.9165124598851 100 L 605.9927337496462 77.10552317685136 L 649.519052838329 100.00000000000003 Z" fill="#d9b78c" stroke="#000" stroke-width="0.5" opacity="0.9"/>
  <path d="M 259.8076211353316 25.000000000000014 L 269.0394545426619 73.42424855987095 L 303.10889132455355 100 L 260.03267003479243 77.10552317685136 L 216.50635094610968 100.00000000000003 Z" fill="#2675d9" stroke="#000" stroke-width="0.5" opacity="0.9"/>
  <path d="M 866.0254037844387 25.000000000000014 L 856.7935703771085 73.42424855987095 L 822.7241335952167 100 L 865.8003548849779 77.10552317685136 L 909.3266739736607 100.00000000000003 Z" fill="#8caed9" stroke="#000" stroke-width="0.5" opacity="0.9"/>
  <path d="M 346.41016151377545 25.000000000000014 L 355.6419949211057 73.42424855987095 L 389.7114317029974 100 L 346.6352104132363 77.10552317685136 L 303.1088913245535 100.00000000000003 Z" fill="#d98a26" stroke="#000" stroke-width="0.5" opacity="0.9"/>
  <path d="M 1125.8330249197702 25.000000000000014 L 1116.60119151244 73.42424855987095 L 1082.5317547305483 100 L 1125.6079760203095 77.10552317685136 L 1169.134295108992 100.00000000000003 Z" fill="#d9b78c" stroke="#000" stroke-width="0.5" opacity="0.9"/>
  <path d="M 433.0127018922193 25.000000000000014 L 442.24453529954957 73.42424855987095 L 476.31397208144125 100 L 433.2377507916801 77.10552317685136 L 389.7114317029974 100.00000000000003 Z" fill="#2675d9" stroke="#000" stroke-width="0.5" opacity="0.9"/>
  <path d="M 1385.6406460551018 25.000000000000014 L 1376.4088126477716 73.42424855987095 L 1342.33937586588 100 L 1385.415597155641 77.10552317685136 L 1428.9419162443237 100.00000000000003 Z" fill="#8caed9" stroke="#000" stroke-width="0.5" opacity="0.9"/>
  <path d="M 519.6152422706632 25.000000000000014 L 528.8470756779935 73.42424855987095 L 562.9165124598851 100 L 519.840291170124 77.10552317685136 L 476.3139720814413 100.00000000000003 Z" fill="#d98a26" stroke="#000" stroke-width="0.5" opacity="0.9"/>
  <path d="M 1645.4482671904334 25.000000000000014 L 1636.216433783103 73.42424855987095 L 1602.1469970012115 100 L 1645.2232182909725 77.10552317685136 L 1688.7495373796553 100.00000000000003 Z" fill="#d9b78c" stroke="#000" stroke-width="0.5" opacity="0.9"/>
  <path d="M 606.217782649107 25.000000000000014 L 615.4496160564373 73.42424855987095 L 649.5190528383289 100 L 606.4428315485678 77.10552317685136 L 562.9165124598851 100.00000000000003 Z" fill="#2675d9" stroke="#000" stroke-width="0.5" opacity="0.9"/>
  <path d="M 1905.2558883257648 25.000000000000014 L 1896.0240549184343 73.42424855987095 L 1861.9546181365429 100 L 1905.0308394263038 77.10552317685136 L 1948.5571585149867 100.00000000000003 Z" fill="#8caed9" stroke="#000" stroke-width="0.5" opacity="0.9"/>
  <path d="M 692.8203230275509 25.000000000000014 L 702.0521564348812 73.42424855987095 L 736.1215932167728 100 L 693.0453719270117 77.10552317685136 L 649.519052838329 100.00000000000003 Z" fill="#d98a26" stroke="#000" stroke-width="0.5" opacity="0.9"/>
  <path d="M 2165.0635094610966 25.000000000000014 L 2155.831676053766 73.42424855987095 L 2121.7622392718745 100 L 2164.8384605616357 77.10552317685136 L 2208.3647796503183 100.00000000000003 Z" fill="#d9b78c" stroke="#000" stroke-width="0.5" opacity="0.9"/>
  <path d="M -86.60254037844386 100.00000000000003 L -77.37070697111359 148.42424855987096 L -43.301270189221924 175.00000000000003 L -86.37749147898303 152.1055231768514 L -129.9038105676658 175.00000000000006 Z" fill="#2675d9" stroke="#000" stroke-width="0.5" opacity="0.9"/>
  <path d="M -173.20508075688772 100.00000000000003 L -182.43691416421802 148.42424855987096 L -216.50635094610965 175.00000000000003 L -173.43012965634853 152.1055231768514 L -129.9038105676658 175.00000000000006 Z" fill="#8caed9" stroke="#000" stroke-width="0.5" opacity="0.9"/>
  <path d="M 3.061616997868383e-15 100.00000000000003 L 9.231833407330274 148.42424855987096 L 43.30127018922194 175.00000000000003 L 0.22504889946082382 152.1055231768514 L -43.301270189221924 175.00000000000006 Z" fill="#d98a26" stroke="#000" stroke-width="0.5" opacity="0.9"/>
  <path d="M 86.60254037844386 100.00000000000003 L 77.37070697111358 148.42424855987096 L 43.301270189221924 175.00000000000003 L 86.37749147898305 152.1055231768514 L 129.90381056766577 175.00000000000006 Z" fill="#d9b78c" stroke="#000" stroke-width="0.5" opacity="0.9"/>
  <path d="M 86.60254037844386 100.00000000000003 L 95.83437378577413 148.42424855987096 L 129.9038105676658 175.00000000000003 L 86.82758927790469 152.1055231768514 L 43.30127018922194 175.00000000000006 Z" fill="#2675d9" stroke="#000" stroke-width="0.5" opacity="0.9"/>
  <path d="M 346.41016151377545 100.00000000000003 L 337.1783281064452 148.42424855987096 L 303.1088913245535 175.00000000000003 L 346.1851126143146 152.1055231768514 L 389.71143170299734 175.00000000000006 Z" fill="#8caed9" stroke="#000" stroke-width="0.5" opacity="0.9"/>
  <path d="M 173.20508075688772 100.00000000000003 L 182.436914164218 148.42424855987096 L 216.50635094610965 175.00000000000003 L 173.43012965634856 152.1055231768514 L 129.9038105676658 175.00000000000006 Z" fill="#d98a26" stroke="#000" stroke-width="0.5" opacity="0.9"/>
  <path d="M 606.217782649107 100.00000000000003 L 596.9859492417768 148.42424855987096 L 562.9165124598851 175.00000000000003 L 605.9927337496462 152.1055231768514 L 649.519052838329 175.00000000000006 Z" fill="#d9b78c" stroke="#000" stroke-width="0.5" opacity="0.9"/>
  <path d="M 259.8076211353316 100.00000000000003 L 269.0394545426619 148.42424855987096 L 303.10889132455355 175.00000000000003 L 260.03267003479243 152.1055231768514 L 216.50635094610968 175.00000000000006 Z" fill="#2675d9" stroke="#000" stroke-width="0.5" opacity="0.9"/>
  <path d="M 866.0254037844387 100.00000000000003 L 856.7935703771085 148.42424855987096 L 822.7241335952167 175.00000000000003 L 865.8003548849779 152.1055231768514 L 909.3266739736607 175.00000000000006 Z" fill="#8caed9" stroke="#000" stroke-width="0.5" opacity="0.9"/>
  <path d="M 346.41016151377545 100.00000000000003 L 355.6419949211057 148.42424855987096 L 389.7114317029974 175.00000000000003 L 346.6352104132363 152.1055231768514 L 303.1088913245535 175.00000000000006 Z" fill="#d98a26" stroke="#000" stroke-width="0.5" opacity="0.9"/>
  <path d="M 1125.8330249197702 100.00000000000003 L 1116.60119151244 148.42424855987096 L 1082.5317547305483 175.00000000000003 L 1125.6079760203095 152.1055231768514 L 1169.134295108992 175.00000000000006 Z" fill="#d9b78c" stroke="#000" stroke-width="0.5" opacity="0.9"/>
  <path d="M 433.0127018922193 100.00000000000003 L 442.24453529954957 148.42424855987096 L 476.31397208144125 175.00000000000003 L 433.2377507916801 152.1055231768514 L 389.7114317029974 175.00000000000006 Z" fill="#2675d9" stroke="#000" stroke-width="0.5" opacity="0.9"/>
  <path d="M 1385.6406460551018 100.00000000000003 L 1376.4088126477716 148.42424855987096 L 1342.33937586588 175.00000000000003 L 1385.415597155641 152.1055231768514 L 1428.9419162443237 175.00000000000006 Z" fill="#8caed9" stroke="#000" stroke-width="0.5" opacity="0.9"/>
  <path d="M 519.6152422706632 100.00000000000003 L 528.8470756779935 148.42424855987096 L 562.9165124598851 175.00000000000003 L 519.840291170124 152.1055231768514 L 476.3139720814413 175.00000000000006 Z" fill="#d98a26" stroke="#000" stroke-width="0.5" opacity="0.9"/>
  <path d="M 1645.4482671904334 100.00000000000003 L 1636.216433783103 148.42424855987096 L 1602.1469970012115 175.00000000000003 L 1645.2232182909725 152.1055231768514 L 1688.7495373796553 175.00000000000006 Z" fill="#d9b78c" stroke="#000" stroke-width="0.5" opacity="0.9"/>
  <path d="M 606.217782649107 100.00000000000003 L 615.4496160564373 148.42424855987096 L 649.5190528383289 175.00000000000003 L 606.4428315485678 152.1055231768514 L 562.9165124598851 175.00000000000006 Z" fill="#2675d9" stroke="#000" stroke-width="0.5" opacity="0.9"/>
  <path d="M 1905.2558883257648 100.00000000000003 L 1896.0240549184343 148.42424855987096 L 1861.9546181365429 175.00000000000003 L 1905.0308394263038 152.1055231768514 L 1948.5571585149867 175.00000000000006 Z" fill="#8caed9" stroke="#000" stroke-width="0.5" opacity="0.9"/>
  <path d="M 692.8203230275509 100.00000000000003 L 702.0521564348812 148.42424855987096 L 736.1215932167728 175.00000000000003 L 693.0453719270117 152.1055231768514 L 649.519052838329 175.00000000000006 Z" fill="#d98a26" stroke="#000" stroke-width="0.5" opacity="0.9"/>
  <path d="M 2165.0635094610966 100.00000000000003 L 2155.831676053766 148.42424855987096 L 2121.7622392718745 175.00000000000003 L 2164.8384605616357 152.1055231768514 L 2208.3647796503183 175.00000000000006 Z" fill="#d9b78c" stroke="#000" stroke-width="0.5" opacity="0.9"/>
  <path d="M -86.60254037844386 175.00000000000006 L -77.37070697111359 223.424248559871 L -43.301270189221924 250.00000000000006 L -86.37749147898303 227.10552317685142 L -129.9038105676658 250.00000000000009 Z" fill="#2675d9" stroke="#000" stroke-width="0.5" opacity="0.9"/>
  <path d="M -173.20508075688772 175.00000000000006 L -182.43691416421802 223.424248559871 L -216.50635094610965 250.00000000000006 L -173.43012965634853 227.10552317685142 L -129.9038105676658 250.00000000000009 Z" fill="#8caed9" stroke="#000" stroke-width="0.5" opacity="0.9"/>
  <path d="M 3.061616997868383e-15 175.00000000000006 L 9.231833407330274 223.424248559871 L 43.30127018922194 250.00000000000006 L 0.22504889946082382 227.10552317685142 L -43.301270189221924 250.00000000000009 Z" fill="#d98a26" stroke="#000" stroke-width="0.5" opacity="0.9"/>
  <path d="M 86.60254037844386 175.00000000000006 L 77.37070697111358 223.424248559871 L 43.301270189221924 250.00000000000006 L 86.37749147898305 227.10552317685142 L 129.90381056766577 250.00000000000009 Z" fill="#d9b78c" stroke="#000" stroke-width="0.5" opacity="0.9"/>
  <path d="M 86.60254037844386 175.00000000000006 L 95.83437378577413 223.424248559871 L 129.9038105676658 250.00000000000006 L 86.82758927790469 227.10552317685142 L 43.30127018922194 250.00000000000009 Z" fill="#2675d9" stroke="#000" stroke-width="0.5" opacity="0.9"/>
  <path d="M 346.41016151377545 175.00000000000006 L 337.1783281064452 223.424248559871 L 303.1088913245535 250.00000000000006 L 346.1851126143146 227.10552317685142 L 389.71143170299734 250.00000000000009 Z" fill="#8caed9" stroke="#000" stroke-width="0.5" opacity="0.9"/>
  <path d="M 173.20508075688772 175.00000000000006 L 182.436914164218 223.424248559871 L 216.50635094610965 250.00000000000006 L 173.43012965634856 227.10552317685142 L 129.9038105676658 250.00000000000009 Z" fill="#d98a26" stroke="#000" stroke-width="0.5" opacity="0.9"/>
  <path d="M 606.217782649107 175.00000000000006 L 596.9859492417768 223.424248559871 L 562.9165124598851 250.00000000000006 L 605.9927337496462 227.10552317685142 L 649.519052838329 250.00000000000009 Z" fill="#d9b78c" stroke="#000" stroke-width="0.5" opacity="0.9"/>
  <path d="M 259.8076211353316 175.00000000000006 L 269.0394545426619 223.424248559871 L 303.10889132455355 250.00000000000006 L 260.03267003479243 227.10552317685142 L 216.50635094610968 250.00000000000009 Z" fill="#2675d9" stroke="#000" stroke-width="0.5" opacity="0.9"/>
  <path d="M 866.0254037844387 175.00000000000006 L 856.7935703771085 223.424248559871 L 822.7241335952167 250.00000000000006 L 865.8003548849779 227.10552317685142 L 909.3266739736607 250.00000000000009 Z" fill="#8caed9" stroke="#000" stroke-width="0.5" opacity="0.9"/>
  <path d="M 346.41016151377545 175.00000000000006 L 355.6419949211057 223.424248559871 L 389.7114317029974 250.00000000000006 L 346.6352104132363 227.10552317685142 L 303.1088913245535 250.00000000000009 Z" fill="#d98a26" stroke="#000" stroke-width="0.5" opacity="0.9"/>
  <path d="M 1125.8330249197702 175.00000000000006 L 1116.60119151244 223.424248559871 L 1082.5317547305483 250.00000000000006 L 1125.6079760203095 227.10552317685142 L 1169.134295108992 250.00000000000009 Z" fill="#d9b78c" stroke="#000" stroke-width="0.5" opacity="0.9"/>
  <path d="M 433.0127018922193 175.00000000000006 L 442.24453529954957 223.424248559871 L 476.31397208144125 250.00000000000006 L 433.2377507916801 227.10552317685142 L 389.7114317029974 250.00000000000009 Z" fill="#2675d9" stroke="#000" stroke-width="0.5" opacity="0.9"/>
  <path d="M 1385.6406460551018 175.00000000000006 L 1376.4088126477716 223.424248559871 L 1342.33937586588 250.00000000000006 L 1385.415597155641 227.10552317685142 L 1428.9419162443237 250.00000000000009 Z" fill="#8caed9" stroke="#000" stroke-width="0.5" opacity="0.9"/>
  <path d="M 519.6152422706632 175.00000000000006 L 528.8470756779935 223.424248559871 L 562.9165124598851 250.00000000000006 L 519.840291170124 227.10552317685142 L 476.3139720814413 250.00000000000009 Z" fill="#d98a26" stroke="#000" stroke-width="0.5" opacity="0.9"/>
  <path d="M 1645.4482671904334 175.00000000000006 L 1636.216433783103 223.424248559871 L 1602.1469970012115 250.00000000000006 L 1645.2232182909725 227.10552317685142 L 1688.7495373796553 250.00000000000009 Z" fill="#d9b78c" stroke="#000" stroke-width="0.5" opacity="0.9"/>
  <path d="M 606.217782649107 175.00000000000006 L 615.4496160564373 223.424248559871 L 649.5190528383289 250.00000000000006 L 606.4428315485678 227.10552317685142 L 562.9165124598851 250.00000000000009 Z" fill="#2675d9" stroke="#000" stroke-width="0.5" opacity="0.9"/>
  <path d="M 1905.2558883257648 175.00000000000006 L 1896.0240549184343 223.424248559871 L 1861.9546181365429 250.00000000000006 L 1905.0308394263038 227.10552317685142 L 1948.5571585149867 250.00000000000009 Z" fill="#8caed9" stroke="#000" stroke-width="0.5" opacity="0.9"/>
  <path d="M 692.8203230275509 175.00000000000006 L 702.0521564348812 223.424248559871 L 736.1215932167728 250.00000000000006 L 693.0453719270117 227.10552317685142 L 649.519052838329 250.00000000000009 Z" fill="#d98a26" stroke="#000" stroke-width="0.5" opacity="0.9"/>
  <path d="M 2165.0635094610966 175.00000000000006 L 2155.831676053766 223.424248559871 L 2121.7622392718745 250.00000000000006 L 2164.8384605616357 227.10552317685142 L 2208.3647796503183 250.00000000000009 Z" fill="#d9b78c" stroke="#000" stroke-width="0.5" opacity="0.9"/>
  <path d="M -86.60254037844386 250.00000000000006 L -77.37070697111359 298.424248559871 L -43.301270189221924 325.00000000000006 L -86.37749147898303 302.1055231768514 L -129.9038105676658 325.00000000000006 Z" fill="#2675d9" stroke="#000" stroke-width="0.5" opacity="0.9"/>
  <path d="M -173.20508075688772 250.00000000000006 L -182.43691416421802 298.424248559871 L -216.50635094610965 325.00000000000006 L -173.43012965634853 302.1055231768514 L -129.9038105676658 325.00000000000006 Z" fill="#8caed9" stroke="#000" stroke-width="0.5" opacity="0.9"/>
  <path d="M 3.061616997868383e-15 250.00000000000006 L 9.231833407330274 298.424248559871 L 43.30127018922194 325.00000000000006 L 0.22504889946082382 302.1055231768514 L -43.301270189221924 325.00000000000006 Z" fill="#d98a26" stroke="#000" stroke-width="0.5" opacity="0.9"/>
  <path d="M 86.60254037844386 250.00000000000006 L 77.37070697111358 298.424248559871 L 43.301270189221924 325.00000000000006 L 86.37749147898305 302.1055231768514 L 129.90381056766577 325.00000000000006 Z" fill="#d9b78c" stroke="#000" stroke-width="0.5" opacity="0.9"/>
  <path d="M 86.60254037844386 250.00000000000006 L 95.83437378577413 298.424248559871 L 129.9038105676658 325.00000000000006 L 86.82758927790469 302.1055231768514 L 43.30127018922194 325.00000000000006 Z" fill="#2675d9" stroke="#000" stroke-width="0.5" opacity="0.9"/>
  <path d="M 346.41016151377545 250.00000000000006 L 337.1783281064452 298.424248559871 L 303.1088913245535 325.00000000000006 L 346.1851126143146 302.1055231768514 L 389.71143170299734 325.00000000000006 Z" fill="#8caed9" stroke="#000" stroke-width="0.5" opacity="0.9"/>
  <path d="M 173.20508075688772 250.00000000000006 L 182.436914164218 298.424248559871 L 216.50635094610965 325.00000000000006 L 173.43012965634856 302.1055231768514 L 129.9038105676658 325.00000000000006 Z" fill="#d98a26" stroke="#000" stroke-width="0.5" opacity="0.9"/>
  <path d="M 606.217782649107 250.00000000000006 L 596.9859492417768 298.424248559871 L 562.9165124598851 325.00000000000006 L 605.9927337496462 302.1055231768514 L 649.519052838329 325.00000000000006 Z" fill="#d9b78c" stroke="#000" stroke-width="0.5" opacity="0.9"/>
  <path d="M 259.8076211353316 250.00000000000006 L 269.0394545426619 298.424248559871 L 303.10889132455355 325.00000000000006 L 260.03267003479243 302.1055231768514 L 216.50635094610968 325.00000000000006 Z" fill="#2675d9" stroke="#000" stroke-width="0.5" opacity="0.9"/>
  <path d="M 866.0254037844387 250.00000000000006 L 856.7935703771085 298.424248559871 L 822.7241335952167 325.00000000000006 L 865.8003548849779 302.1055231768514 L 909.3266739736607 325.00000000000006 Z" fill="#8caed9" stroke="#000" stroke-width="0.5" opacity="0.9"/>
  <path d="M 346.41016151377545 250.00000000000006 L 355.6419949211057 298.424248559871 L 389.7114317029974 325.00000000000006 L 346.6352104132363 302.1055231768514 L 303.1088913245535 325.00000000000006 Z" fill="#d98a26" stroke="#000" stroke-width="0.5" opacity="0.9"/>
  <path d="M 1125.8330249197702 250.00000000000006 L 1116.60119151244 298.424248559871 L 1082.5317547305483 325.00000000000006 L 1125.6079760203095 302.1055231768514 L 1169.134295108992 325.00000000000006 Z" fill="#d9b78c" stroke="#000" stroke-width="0.5" opacity="0.9"/>
  <path d="M 433.0127018922193 250.00000000000006 L 442.24453529954957 298.424248559871 L 476.31397208144125 325.00000000000006 L 433.2377507916801 302.1055231768514 L 389.7114317029974 325.00000000000006 Z" fill="#2675d9" stroke="#000" stroke-width="0.5" opacity="0.9"/>
  <path d="M 1385.6406460551018 250.00000000000006 L 1376.4088126477716 298.424248559871 L 1342.33937586588 325.00000000000006 L 1385.415597155641 302.1055231768514 L 1428.9419162443237 325.00000000000006 Z" fill="#8caed9" stroke="#000" stroke-width="0.5" opacity="0.9"/>
  <path d="M 519.6152422706632 250.00000000000006 L 528.8470756779935 298.424248559871 L 562.9165124598851 325.00000000000006 L 519.840291170124 302.1055231768514 L 476.3139720814413 325.00000000000006 Z" fill="#d98a26" stroke="#000" stroke-width="0.5" opacity="0.9"/>
  <path d="M 1645.4482671904334 250.00000000000006 L 1636.216433783103 298.424248559871 L 1602.1469970012115 325.00000000000006 L 1645.2232182909725 302.1055231768514 L 1688.7495373796553 325.00000000000006 Z" fill="#d9b78c" stroke="#000" stroke-width="0.5" opacity="0.9"/>
  <path d="M 606.217782649107 250.00000000000006 L 615.4496160564373 298.424248559871 L 649.5190528383289 325.00000000000006 L 606.4428315485678 302.1055231768514 L 562.9165124598851 325.00000000000006 Z" fill="#2675d9" stroke="#000" stroke-width="0.5" opacity="0.9"/>
  <path d="M 1905.2558883257648 250.00000000000006 L 1896.0240549184343 298.424248559871 L 1861.9546181365429 325.00000000000006 L 1905.0308394263038 302.1055231768514 L 1948.5571585149867 325.00000000000006 Z" fill="#8caed9" stroke="#000" stroke-width="0.5" opacity="0.9"/>
  <path d="M 692.8203230275509 250.00000000000006 L 702.0521564348812 298.424248559871 L 736.1215932167728 325.00000000000006 L 693.0453719270117 302.1055231768514 L 649.519052838329 325.00000000000006 Z" fill="#d98a26" stroke="#000" stroke-width="0.5" opacity="0.9"/>
  <path d="M 2165.0635094610966 250.00000000000006 L 2155.831676053766 298.424248559871 L 2121.7622392718745 325.00000000000006 L 2164.8384605616357 302.1055231768514 L 2208.3647796503183 325.00000000000006 Z" fill="#d9b78c" stroke="#000" stroke-width="0.5" opacity="0.9"/>
  <path d="M -86.60254037844386 325.00000000000006 L -77.37070697111359 373.424248559871 L -43.301270189221924 400.00000000000006 L -86.37749147898303 377.1055231768514 L -129.9038105676658 400.00000000000006 Z" fill="#2675d9" stroke="#000" stroke-width="0.5" opacity="0.9"/>
  <path d="M -173.20508075688772 325.00000000000006 L -182.43691416421802 373.424248559871 L -216.50635094610965 400.00000000000006 L -173.43012965634853 377.1055231768514 L -129.9038105676658 400.00000000000006 Z" fill="#8caed9" stroke="#000" stroke-width="0.5" opacity="0.9"/>
  <path d="M 3.061616997868383e-15 325.00000000000006 L 9.231833407330274 373.424248559871 L 43.30127018922194 400.00000000000006 L 0.22504889946082382 377.1055231768514 L -43.301270189221924 400.00000000000006 Z" fill="#d98a26" stroke="#000" stroke-width="0.5" opacity="0.9"/>
  <path d="M 86.60254037844386 325.00000000000006 L 77.37070697111358 373.424248559871 L 43.301270189221924 400.00000000000006 L 86.37749147898305 377.1055231768514 L 129.90381056766577 400.00000000000006 Z" fill="#d9b78c" stroke="#000" stroke-width="0.5" opacity="0.9"/>
  <path d="M 86.60254037844386 325.00000000000006 L 95.83437378577413 373.424248559871 L 129.9038105676658 400.00000000000006 L 86.82758927790469 377.1055231768514 L 43.30127018922194 400.00000000000006 Z" fill="#2675d9" stroke="#000" stroke-width="0.5" opacity="0.9"/>
  <path d="M 346.41016151377545 325.00000000000006 L 337.1783281064452 373.424248559871 L 303.1088913245535 400.00000000000006 L 346.1851126143146 377.1055231768514 L 389.71143170299734 400.00000000000006 Z" fill="#8caed9" stroke="#000" stroke-width="0.5" opacity="0.9"/>
  <path d="M 173.20508075688772 325.00000000000006 L 182.436914164218 373.424248559871 L 216.50635094610965 400.00000000000006 L 173.43012965634856 377.1055231768514 L 129.9038105676658 400.00000000000006 Z" fill="#d98a26" stroke="#000" stroke-width="0.5" opacity="0.9"/>
  <path d="M 606.217782649107 325.00000000000006 L 596.9859492417768 373.424248559871 L 562.9165124598851 400.00000000000006 L 605.9927337496462 377.1055231768514 L 649.519052838329 400.00000000000006 Z" fill="#d9b78c" stroke="#000" stroke-width="0.5" opacity="0.9"/>
  <path d="M 259.8076211353316 325.00000000000006 L 269.0394545426619 373.424248559871 L 303.10889132455355 400.00000000000006 L 260.03267003479243 377.1055231768514 L 216.50635094610968 400.00000000000006 Z" fill="#2675d9" stroke="#000" stroke-width="0.5" opacity="0.9"/>
  <path d="M 866.0254037844387 325.00000000000006 L 856.7935703771085 373.424248559871 L 822.7241335952167 400.00000000000006 L 865.8003548849779 377.1055231768514 L 909.3266739736607 400.00000000000006 Z" fill="#8caed9" stroke="#000" stroke-width="0.5" opacity="0.9"/>
  <path d="M 346.41016151377545 325.00000000000006 L 355.6419949211057 373.424248559871 L 389.7114317029974 400.00000000000006 L 346.6352104132363 377.1055231768514 L 303.1088913245535 400.00000000000006 Z" fill="#d98a26" stroke="#000" stroke-width="0.5" opacity="0.9"/>
  <path d="M 1125.8330249197702 325.00000000000006 L 1116.60119151244 373.424248559871 L 1082.5317547305483 400.00000000000006 L 1125.6079760203095 377.1055231768514 L 1169.134295108992 400.00000000000006 Z" fill="#d9b78c" stroke="#000" stroke-width="0.5" opacity="0.9"/>
  <path d="M 433.0127018922193 325.00000000000006 L 442.24453529954957 373.424248559871 L 476.31397208144125 400.00000000000006 L 433.2377507916801 377.1055231768514 L 389.7114317029974 400.00000000000006 Z" fill="#2675d9" stroke="#000" stroke-width="0.5" opacity="0.9"/>
  <path d="M 1385.6406460551018 325.00000000000006 L 1376.4088126477716 373.424248559871 L 1342.33937586588 400.00000000000006 L 1385.415597155641 377.1055231768514 L 1428.9419162443237 400.00000000000006 Z" fill="#8caed9" stroke="#000" stroke-width="0.5" opacity="0.9"/>
  <path d="M 519.6152422706632 325.00000000000006 L 528.8470756779935 373.424248559871 L 562.9165124598851 400.00000000000006 L 519.840291170124 377.1055231768514 L 476.3139720814413 400.00000000000006 Z" fill="#d98a26" stroke="#000" stroke-width="0.5" opacity="0.9"/>
  <path d="M 1645.4482671904334 325.00000000000006 L 1636.216433783103 373.424248559871 L 1602.1469970012115 400.00000000000006 L 1645.2232182909725 377.1055231768514 L 1688.7495373796553 400.00000000000006 Z" fill="#d9b78c" stroke="#000" stroke-width="0.5" opacity="0.9"/>
  <path d="M 606.217782649107 325.00000000000006 L 615.4496160564373 373.424248559871 L 649.5190528383289 400.00000000000006 L 606.4428315485678 377.1055231768514 L 562.9165124598851 400.00000000000006 Z" fill="#2675d9" stroke="#000" stroke-width="0.5" opacity="0.9"/>
  <path d="M 1905.2558883257648 325.00000000000006 L 1896.0240549184343 373.424248559871 L 1861.9546181365429 400.00000000000006 L 1905.0308394263038 377.1055231768514 L 1948.5571585149867 400.00000000000006 Z" fill="#8caed9" stroke="#000" stroke-width="0.5" opacity="0.9"/>
  <path d="M 692.8203230275509 325.00000000000006 L 702.0521564348812 373.424248559871 L 736.1215932167728 400.00000000000006 L 693.0453719270117 377.1055231768514 L 649.519052838329 400.00000000000006 Z" fill="#d98a26" stroke="#000" stroke-width="0.5" opacity="0.9"/>
  <path d="M 2165.0635094610966 325.00000000000006 L 2155.831676053766 373.424248559871 L 2121.7622392718745 400.00000000000006 L 2164.8384605616357 377.1055231768514 L 2208.3647796503183 400.00000000000006 Z" fill="#d9b78c" stroke="#000" stroke-width="0.5" opacity="0.9"/>
  <path d="M -86.60254037844386 400.0000000000001 L -77.37070697111359 448.42424855987105 L -43.301270189221924 475.0000000000001 L -86.37749147898303 452.1055231768515 L -129.9038105676658 475.0000000000001 Z" fill="#2675d9" stroke="#000" stroke-width="0.5" opacity="0.9"/>
  <path d="M -173.20508075688772 400.0000000000001 L -182.43691416421802 448.42424855987105 L -216.50635094610965 475.0000000000001 L -173.43012965634853 452.1055231768515 L -129.9038105676658 475.0000000000001 Z" fill="#8caed9" stroke="#000" stroke-width="0.5" opacity="0.9"/>
  <path d="M 3.061616997868383e-15 400.0000000000001 L 9.231833407330274 448.42424855987105 L 43.30127018922194 475.0000000000001 L 0.22504889946082382 452.1055231768515 L -43.301270189221924 475.0000000000001 Z" fill="#d98a26" stroke="#000" stroke-width="0.5" opacity="0.9"/>
  <path d="M 86.60254037844386 400.0000000000001 L 77.37070697111358 448.42424855987105 L 43.301270189221924 475.0000000000001 L 86.37749147898305 452.1055231768515 L 129.90381056766577 475.0000000000001 Z" fill="#d9b78c" stroke="#000" stroke-width="0.5" opacity="0.9"/>
  <path d="M 86.60254037844386 400.0000000000001 L 95.83437378577413 448.42424855987105 L 129.9038105676658 475.0000000000001 L 86.82758927790469 452.1055231768515 L 43.30127018922194 475.0000000000001 Z" fill="#2675d9" stroke="#000" stroke-width="0.5" opacity="0.9"/>
  <path d="M 346.41016151377545 400.0000000000001 L 337.1783281064452 448.42424855987105 L 303.1088913245535 475.0000000000001 L 346.1851126143146 452.1055231768515 L 389.71143170299734 475.0000000000001 Z" fill="#8caed9" stroke="#000" stroke-width="0.5" opacity="0.9"/>
  <path d="M 173.20508075688772 400.0000000000001 L 182.436914164218 448.42424855987105 L 216.50635094610965 475.0000000000001 L 173.43012965634856 452.1055231768515 L 129.9038105676658 475.0000000000001 Z" fill="#d98a26" stroke="#000" stroke-width="0.5" opacity="0.9"/>
  <path d="M 606.217782649107 400.0000000000001 L 596.9859492417768 448.42424855987105 L 562.9165124598851 475.0000000000001 L 605.9927337496462 452.1055231768515 L 649.519052838329 475.0000000000001 Z" fill="#d9b78c" stroke="#000" stroke-width="0.5" opacity="0.9"/>
  <path d="M 259.8076211353316 400.0000000000001 L 269.0394545426619 448.42424855987105 L 303.10889132455355 475.0000000000001 L 260.03267003479243 452.1055231768515 L 216.50635094610968 475.0000000000001 Z" fill="#2675d9" stroke="#000" stroke-width="0.5" opacity="0.9"/>
  <path d="M 866.0254037844387 400.0000000000001 L 856.7935703771085 448.42424855987105 L 822.7241335952167 475.0000000000001 L 865.8003548849779 452.1055231768515 L 909.3266739736607 475.0000000000001 Z" fill="#8caed9" stroke="#000" stroke-width="0.5" opacity="0.9"/>
  <path d="M 346.41016151377545 400.0000000000001 L 355.6419949211057 448.42424855987105 L 389.7114317029974 475.0000000000001 L 346.6352104132363 452.1055231768515 L 303.1088913245535 475.0000000000001 Z" fill="#d98a26" stroke="#000" stroke-width="0.5" opacity="0.9"/>
  <path d="M 1125.8330249197702 400.0000000000001 L 1116.60119151244 448.42424855987105 L 1082.5317547305483 475.0000000000001 L 1125.6079760203095 452.1055231768515 L 1169.134295108992 475.0000000000001 Z" fill="#d9b78c" stroke="#000" stroke-width="0.5" opacity="0.9"/>
  <path d="M 433.0127018922193 400.0000000000001 L 442.24453529954957 448.42424855987105 L 476.31397208144125 475.0000000000001 L 433.2377507916801 452.1055231768515 L 389.7114317029974 475.0000000000001 Z" fill="#2675d9" stroke="#000" stroke-width="0.5" opacity="0.9"/>
  <path d="M 1385.6406460551018 400.0000000000001 L 1376.4088126477716 448.42424855987105 L 1342.33937586588 475.0000000000001 L 1385.415597155641 452.1055231768515 L 1428.9419162443237 475.0000000000001 Z" fill="#8caed9" stroke="#000" stroke-width="0.5" opacity="0.9"/>
  <path d="M 519.6152422706632 400.0000000000001 L 528.8470756779935 448.42424855987105 L 562.9165124598851 475.0000000000001 L 519.840291170124 452.1055231768515 L 476.3139720814413 475.0000000000001 Z" fill="#d98a26" stroke="#000" stroke-width="0.5" opacity="0.9"/>
  <path d="M 1645.4482671904334 400.0000000000001 L 1636.216433783103 448.42424855987105 L 1602.1469970012115 475.0000000000001 L 1645.2232182909725 452.1055231768515 L 1688.7495373796553 475.0000000000001 Z" fill="#d9b78c" stroke="#000" stroke-width="0.5" opacity="0.9"/>
  <path d="M 606.217782649107 400.0000000000001 L 615.4496160564373 448.42424855987105 L 649.5190528383289 475.0000000000001 L 606.4428315485678 452.1055231768515 L 562.9165124598851 475.0000000000001 Z" fill="#2675d9" stroke="#000" stroke-width="0.5" opacity="0.9"/>
  <path d="M 1905.2558883257648 400.0000000000001 L 1896.0240549184343 448.42424855987105 L 1861.9546181365429 475.0000000000001 L 1905.0308394263038 452.1055231768515 L 1948.5571585149867 475.0000000000001 Z" fill="#8caed9" stroke="#000" stroke-width="0.5" opacity="0.9"/>
  <path d="M 692.8203230275509 400.0000000000001 L 702.0521564348812 448.42424855987105 L 736.1215932167728 475.0000000000001 L 693.0453719270117 452.1055231768515 L 649.519052838329 475.0000000000001 Z" fill="#d98a26" stroke="#000" stroke-width="0.5" opacity="0.9"/>
  <path d="M 2165.0635094610966 400.0000000000001 L 2155.831676053766 448.42424855987105 L 2121.7622392718745 475.0000000000001 L 2164.8384605616357 452.1055231768515 L 2208.3647796503183 475.0000000000001 Z" fill="#d9b78c" stroke="#000" stroke-width="0.5" opacity="0.9"/>
  <path d="M -86.60254037844386 475.0000000000001 L -77.37070697111359 523.4242485598711 L -43.301270189221924 550.0000000000001 L -86.37749147898303 527.1055231768514 L -129.9038105676658 550.0000000000001 Z" fill="#2675d9" stroke="#000" stroke-width="0.5" opacity="0.9"/>
  <path d="M -173.20508075688772 475.0000000000001 L -182.43691416421802 523.4242485598711 L -216.50635094610965 550.0000000000001 L -173.43012965634853 527.1055231768514 L -129.9038105676658 550.0000000000001 Z" fill="#8caed9" stroke="#000" stroke-width="0.5" opacity="0.9"/>
  <path d="M 3.061616997868383e-15 475.0000000000001 L 9.231833407330274 523.4242485598711 L 43.30127018922194 550.0000000000001 L 0.22504889946082382 527.1055231768514 L -43.301270189221924 550.0000000000001 Z" fill="#d98a26" stroke="#000" stroke-width="0.5" opacity="0.9"/>
  <path d="M 86.60254037844386 475.0000000000001 L 77.37070697111358 523.4242485598711 L 43.301270189221924 550.0000000000001 L 86.37749147898305 527.1055231768514 L 129.90381056766577 550.0000000000001 Z" fill="#d9b78c" stroke="#000" stroke-width="0.5" opacity="0.9"/>
  <path d="M 86.60254037844386 475.0000000000001 L 95.83437378577413 523.4242485598711 L 129.9038105676658 550.0000000000001 L 86.82758927790469 527.1055231768514 L 43.30127018922194 550.0000000000001 Z" fill="#2675d9" stroke="#000" stroke-width="0.5" opacity="0.9"/>
  <path d="M 346.41016151377545 475.0000000000001 L 337.1783281064452 523.4242485598711 L 303.1088913245535 550.0000000000001 L 346.1851126143146 527.1055231768514 L 389.71143170299734 550.0000000000001 Z" fill="#8caed9" stroke="#000" stroke-width="0.5" opacity="0.9"/>
  <path d="M 173.20508075688772 475.0000000000001 L 182.436914164218 523.4242485598711 L 216.50635094610965 550.0000000000001 L 173.43012965634856 527.1055231768514 L 129.9038105676658 550.0000000000001 Z" fill="#d98a26" stroke="#000" stroke-width="0.5" opacity="0.9"/>
  <path d="M 606.217782649107 475.0000000000001 L 596.9859492417768 523.4242485598711 L 562.9165124598851 550.0000000000001 L 605.9927337496462 527.1055231768514 L 649.519052838329 550.0000000000001 Z" fill="#d9b78c" stroke="#000" stroke-width="0.5" opacity="0.9"/>
  <path d="M 259.8076211353316 475.0000000000001 L 269.0394545426619 523.4242485598711 L 303.10889132455355 550.0000000000001 L 260.03267003479243 527.1055231768514 L 216.50635094610968 550.0000000000001 Z" fill="#2675d9" stroke="#000" stroke-width="0.5" opacity="0.9"/>
  <path d="M 866.0254037844387 475.0000000000001 L 856.7935703771085 523.4242485598711 L 822.7241335952167 550.0000000000001 L 865.8003548849779 527.1055231768514 L 909.3266739736607 550.0000000000001 Z" fill="#8caed9" stroke="#000" stroke-width="0.5" opacity="0.9"/>
  <path d="M 346.41016151377545 475.0000000000001 L 355.6419949211057 523.4242485598711 L 389.7114317029974 550.0000000000001 L 346.6352104132363 527.1055231768514 L 303.1088913245535 550.0000000000001 Z" fill="#d98a26" stroke="#000" stroke-width="0.5" opacity="0.9"/>
  <path d="M 1125.8330249197702 475.0000000000001 L 1116.60119151244 523.4242485598711 L 1082.5317547305483 550.0000000000001 L 1125.6079760203095 527.1055231768514 L 1169.134295108992 550.0000000000001 Z" fill="#d9b78c" stroke="#000" stroke-width="0.5" opacity="0.9"/>
  <path d="M 433.0127018922193 475.0000000000001 L 442.24453529954957 523.4242485598711 L 476.31397208144125 550.0000000000001 L 433.2377507916801 527.1055231768514 L 389.7114317029974 550.0000000000001 Z" fill="#2675d9" stroke="#000" stroke-width="0.5" opacity="0.9"/>
  <path d="M 1385.6406460551018 475.0000000000001 L 1376.4088126477716 523.4242485598711 L 1342.33937586588 550.0000000000001 L 1385.415597155641 527.1055231768514 L 1428.9419162443237 550.0000000000001 Z" fill="#8caed9" stroke="#000" stroke-width="0.5" opacity="0.9"/>
  <path d="M 519.6152422706632 475.0000000000001 L 528.8470756779935 523.4242485598711 L 562.9165124598851 550.0000000000001 L 519.840291170124 527.1055231768514 L 476.3139720814413 550.0000000000001 Z" fill="#d98a26" stroke="#000" stroke-width="0.5" opacity="0.9"/>
  <path d="M 1645.4482671904334 475.0000000000001 L 1636.216433783103 523.4242485598711 L 1602.1469970012115 550.0000000000001 L 1645.2232182909725 527.1055231768514 L 1688.7495373796553 550.0000000000001 Z" fill="#d9b78c" stroke="#000" stroke-width="0.5" opacity="0.9"/>
  <path d="M 606.217782649107 475.0000000000001 L 615.4496160564373 523.4242485598711 L 649.5190528383289 550.0000000000001 L 606.4428315485678 527.1055231768514 L 562.9165124598851 550.0000000000001 Z" fill="#2675d9" stroke="#000" stroke-width="0.5" opacity="0.9"/>
  <path d="M 1905.2558883257648 475.0000000000001 L 1896.0240549184343 523.4242485598711 L 1861.9546181365429 550.0000000000001 L 1905.0308394263038 527.1055231768514 L 1948.5571585149867 550.0000000000001 Z" fill="#8caed9" stroke="#000" stroke-width="0.5" opacity="0.9"/>
  <path d="M 692.8203230275509 475.0000000000001 L 702.0521564348812 523.4242485598711 L 736.1215932167728 550.0000000000001 L 693.0453719270117 527.1055231768514 L 649.519052838329 550.0000000000001 Z" fill="#d98a26" stroke="#000" stroke-width="0.5" opacity="0.9"/>
  <path d="M 2165.0635094610966 475.0000000000001 L 2155.831676053766 523.4242485598711 L 2121.7622392718745 550.0000000000001 L 2164.8384605616357 527.1055231768514 L 2208.3647796503183 550.0000000000001 Z" fill="#d9b78c" stroke="#000" stroke-width="0.5" opacity="0.9"/>
  <path d="M -86.60254037844386 550.0000000000001 L -77.37070697111359 598.4242485598711 L -43.301270189221924 625.0000000000001 L -86.37749147898303 602.1055231768514 L -129.9038105676658 625.0000000000001 Z" fill="#2675d9" stroke="#000" stroke-width="0.5" opacity="0.9"/>
  <path d="M -173.20508075688772 550.0000000000001 L -182.43691416421802 598.4242485598711 L -216.50635094610965 625.0000000000001 L -173.43012965634853 602.1055231768514 L -129.9038105676658 625.0000000000001 Z" fill="#8caed9" stroke="#000" stroke-width="0.5" opacity="0.9"/>
  <path d="M 3.061616997868383e-15 550.0000000000001 L 9.231833407330274 598.4242485598711 L 43.30127018922194 625.0000000000001 L 0.22504889946082382 602.1055231768514 L -43.301270189221924 625.0000000000001 Z" fill="#d98a26" stroke="#000" stroke-width="0.5" opacity="0.9"/>
  <path d="M 86.60254037844386 550.0000000000001 L 77.37070697111358 598.4242485598711 L 43.301270189221924 625.0000000000001 L 86.37749147898305 602.1055231768514 L 129.90381056766577 625.0000000000001 Z" fill="#d9b78c" stroke="#000" stroke-width="0.5" opacity="0.9"/>
  <path d="M 86.60254037844386 550.0000000000001 L 95.83437378577413 598.4242485598711 L 129.9038105676658 625.0000000000001 L 86.82758927790469 602.1055231768514 L 43.30127018922194 625.0000000000001 Z" fill="#2675d9" stroke="#000" stroke-width="0.5" opacity="0.9"/>
  <path d="M 346.41016151377545 550.0000000000001 L 337.1783281064452 598.4242485598711 L 303.1088913245535 625.0000000000001 L 346.1851126143146 602.1055231768514 L 389.71143170299734 625.0000000000001 Z" fill="#8caed9" stroke="#000" stroke-width="0.5" opacity="0.9"/>
  <path d="M 173.20508075688772 550.0000000000001 L 182.436914164218 598.4242485598711 L 216.50635094610965 625.0000000000001 L 173.43012965634856 602.1055231768514 L 129.9038105676658 625.0000000000001 Z" fill="#d98a26" stroke="#000" stroke-width="0.5" opacity="0.9"/>
  <path d="M 606.217782649107 550.0000000000001 L 596.9859492417768 598.4242485598711 L 562.9165124598851 625.0000000000001 L 605.9927337496462 602.1055231768514 L 649.519052838329 625.0000000000001 Z" fill="#d9b78c" stroke="#000" stroke-width="0.5" opacity="0.9"/>
  <path d="M 259.8076211353316 550.0000000000001 L 269.0394545426619 598.4242485598711 L 303.10889132455355 625.0000000000001 L 260.03267003479243 602.1055231768514 L 216.50635094610968 625.0000000000001 Z" fill="#2675d9" stroke="#000" stroke-width="0.5" opacity="0.9"/>
  <path d="M 866.0254037844387 550.0000000000001 L 856.7935703771085 598.4242485598711 L 822.7241335952167 625.0000000000001 L 865.8003548849779 602.1055231768514 L 909.3266739736607 625.0000000000001 Z" fill="#8caed9" stroke="#000" stroke-width="0.5" opacity="0.9"/>
  <path d="M 346.41016151377545 550.0000000000001 L 355.6419949211057 598.4242485598711 L 389.7114317029974 625.0000000000001 L 346.6352104132363 602.1055231768514 L 303.1088913245535 625.0000000000001 Z" fill="#d98a26" stroke="#000" stroke-width="0.5" opacity="0.9"/>
  <path d="M 1125.8330249197702 550.0000000000001 L 1116.60119151244 598.4242485598711 L 1082.5317547305483 625.0000000000001 L 1125.6079760203095 602.1055231768514 L 1169.134295108992 625.0000000000001 Z" fill="#d9b78c" stroke="#000" stroke-width="0.5" opacity="0.9"/>
  <path d="M 433.0127018922193 550.0000000000001 L 442.24453529954957 598.4242485598711 L 476.31397208144125 625.0000000000001 L 433.2377507916801 602.1055231768514 L 389.7114317029974 625.0000000000001 Z" fill="#2675d9" stroke="#000" stroke-width="0.5" opacity="0.9"/>
  <path d="M 1385.6406460551018 550.0000000000001 L 1376.4088126477716 598.4242485598711 L 1342.33937586588 625.0000000000001 L 1385.415597155641 602.1055231768514 L 1428.9419162443237 625.0000000000001 Z" fill="#8caed9" stroke="#000" stroke-width="0.5" opacity="0.9"/>
  <path d="M 519.6152422706632 550.0000000000001 L 528.8470756779935 598.4242485598711 L 562.9165124598851 625.0000000000001 L 519.840291170124 602.1055231768514 L 476.3139720814413 625.0000000000001 Z" fill="#d98a26" stroke="#000" stroke-width="0.5" opacity="0.9"/>
  <path d="M 1645.4482671904334 550.0000000000001 L 1636.216433783103 598.4242485598711 L 1602.1469970012115 625.0000000000001 L 1645.2232182909725 602.1055231768514 L 1688.7495373796553 625.0000000000001 Z" fill="#d9b78c" stroke="#000" stroke-width="0.5" opacity="0.9"/>
  <path d="M 606.217782649107 550.0000000000001 L 615.4496160564373 598.4242485598711 L 649.5190528383289 625.0000000000001 L 606.4428315485678 602.1055231768514 L 562.9165124598851 625.0000000000001 Z" fill="#2675d9" stroke="#000" stroke-width="0.5" opacity="0.9"/>
  <path d="M 1905.2558883257648 550.0000000000001 L 1896.0240549184343 598.4242485598711 L 1861.9546181365429 625.0000000000001 L 1905.0308394263038 602.1055231768514 L 1948.5571585149867 625.0000000000001 Z" fill="#8caed9" stroke="#000" stroke-width="0.5" opacity="0.9"/>
  <path d="M 692.8203230275509 550.0000000000001 L 702.0521564348812 598.4242485598711 L 736.1215932167728 625.0000000000001 L 693.0453719270117 602.1055231768514 L 649.519052838329 625.0000000000001 Z" fill="#d98a26" stroke="#000" stroke-width="0.5" opacity="0.9"/>
  <path d="M 2165.0635094610966 550.0000000000001 L 2155.831676053766 598.4242485598711 L 2121.7622392718745 625.0000000000001 L 2164.8384605616357 602.1055231768514 L 2208.3647796503183 625.0000000000001 Z" fill="#d9b78c" stroke="#000" stroke-width="0.5" opacity="0.9"/>
  <path d="M -86.60254037844386 625.0000000000001 L -77.37070697111359 673.4242485598711 L -43.301270189221924 700.0000000000001 L -86.37749147898303 677.1055231768514 L -129.9038105676658 700.0000000000001 Z" fill="#2675d9" stroke="#000" stroke-width="0.5" opacity="0.9"/>
  <path d="M -173.20508075688772 625.0000000000001 L -182.43691416421802 673.4242485598711 L -216.50635094610965 700.0000000000001 L -173.43012965634853 677.1055231768514 L -129.9038105676658 700.0000000000001 Z" fill="#8caed9" stroke="#000" stroke-width="0.5" opacity="0.9"/>
  <path d="M 3.061616997868383e-15 625.0000000000001 L 9.231833407330274 673.4242485598711 L 43.30127018922194 700.0000000000001 L 0.22504889946082382 677.1055231768514 L -43.301270189221924 700.0000000000001 Z" fill="#d98a26" stroke="#000" stroke-width="0.5" opacity="0.9"/>
  <path d="M 86.60254037844386 625.0000000000001 L 77.37070697111358 673.4242485598711 L 43.301270189221924 700.0000000000001 L 86.37749147898305 677.1055231768514 L 129.90381056766577 700.0000000000001 Z" fill="#d9b78c" stroke="#000" stroke-width="0.5" opacity="0.9"/>
  <path d="M 86.60254037844386 625.0000000000001 L 95.83437378577413 673.4242485598711 L 129.9038105676658 700.0000000000001 L 86.82758927790469 677.1055231768514 L 43.30127018922194 700.0000000000001 Z" fill="#2675d9" stroke="#000" stroke-width="0.5" opacity="0.9"/>
  <path d="M 346.41016151377545 625.0000000000001 L 337.1783281064452 673.4242485598711 L 303.1088913245535 700.0000000000001 L 346.1851126143146 677.1055231768514 L 389.71143170299734 700.0000000000001 Z" fill="#8caed9" stroke="#000" stroke-width="0.5" opacity="0.9"/>
  <path d="M 173.20508075688772 625.0000000000001 L 182.436914164218 673.4242485598711 L 216.50635094610965 700.0000000000001 L 173.43012965634856 677.1055231768514 L 129.9038105676658 700.0000000000001 Z" fill="#d98a26" stroke="#000" stroke-width="0.5" opacity="0.9"/>
  <path d="M 606.217782649107 625.0000000000001 L 596.9859492417768 673.4242485598711 L 562.9165124598851 700.0000000000001 L 605.9927337496462 677.1055231768514 L 649.519052838329 700.0000000000001 Z" fill="#d9b78c" stroke="#000" stroke-width="0.5" opacity="0.9"/>
  <path d="M 259.8076211353316 625.0000000000001 L 269.0394545426619 673.4242485598711 L 303.10889132455355 700.0000000000001 L 260.03267003479243 677.1055231768514 L 216.50635094610968 700.0000000000001 Z" fill="#2675d9" stroke="#000" stroke-width="0.5" opacity="0.9"/>
  <path d="M 866.0254037844387 625.0000000000001 L 856.7935703771085 673.4242485598711 L 822.7241335952167 700.0000000000001 L 865.8003548849779 677.1055231768514 L 909.3266739736607 700.0000000000001 Z" fill="#8caed9" stroke="#000" stroke-width="0.5" opacity="0.9"/>
  <path d="M 346.41016151377545 625.0000000000001 L 355.6419949211057 673.4242485598711 L 389.7114317029974 700.0000000000001 L 346.6352104132363 677.1055231768514 L 303.1088913245535 700.0000000000001 Z" fill="#d98a26" stroke="#000" stroke-width="0.5" opacity="0.9"/>
  <path d="M 1125.8330249197702 625.0000000000001 L 1116.60119151244 673.4242485598711 L 1082.5317547305483 700.0000000000001 L 1125.6079760203095 677.1055231768514 L 1169.134295108992 700.0000000000001 Z" fill="#d9b78c" stroke="#000" stroke-width="0.5" opacity="0.9"/>
  <path d="M 433.0127018922193 625.0000000000001 L 442.24453529954957 673.4242485598711 L 476.31397208144125 700.0000000000001 L 433.2377507916801 677.1055231768514 L 389.7114317029974 700.0000000000001 Z" fill="#2675d9" stroke="#000" stroke-width="0.5" opacity="0.9"/>
  <path d="M 1385.6406460551018 625.0000000000001 L 1376.4088126477716 673.4242485598711 L 1342.33937586588 700.0000000000001 L 1385.415597155641 677.1055231768514 L 1428.9419162443237 700.0000000000001 Z" fill="#8caed9" stroke="#000" stroke-width="0.5" opacity="0.9"/>
  <path d="M 519.6152422706632 625.0000000000001 L 528.8470756779935 673.4242485598711 L 562.9165124598851 700.0000000000001 L 519.840291170124 677.1055231768514 L 476.3139720814413 700.0000000000001 Z" fill="#d98a26" stroke="#000" stroke-width="0.5" opacity="0.9"/>
  <path d="M 1645.4482671904334 625.0000000000001 L 1636.216433783103 673.4242485598711 L 1602.1469970012115 700.0000000000001 L 1645.2232182909725 677.1055231768514 L 1688.7495373796553 700.0000000000001 Z" fill="#d9b78c" stroke="#000" stroke-width="0.5" opacity="0.9"/>
  <path d="M 606.217782649107 625.0000000000001 L 615.4496160564373 673.4242485598711 L 649.5190528383289 700.0000000000001 L 606.4428315485678 677.1055231768514 L 562.9165124598851 700.0000000000001 Z" fill="#2675d9" stroke="#000" stroke-width="0.5" opacity="0.9"/>
  <path d="M 1905.2558883257648 625.0000000000001 L 1896.0240549184343 673.4242485598711 L 1861.9546181365429 700.0000000000001 L 1905.0308394263038 677.1055231768514 L 1948.5571585149867 700.0000000000001 Z" fill="#8caed9" stroke="#000" stroke-width="0.5" opacity="0.9"/>
  <path d="M 692.8203230275509 625.0000000000001 L 702.0521564348812 673.4242485598711 L 736.1215932167728 700.0000000000001 L 693.0453719270117 677.1055231768514 L 649.519052838329 700.0000000000001 Z" fill="#d98a26" stroke="#000" stroke-width="0.5" opacity="0.9"/>
  <path d="M 2165.0635094610966 625.0000000000001 L 2155.831676053766 673.4242485598711 L 2121.7622392718745 700.0000000000001 L 2164.8384605616357 677.1055231768514 L 2208.3647796503183 700.0000000000001 Z" fill="#d9b78c" stroke="#000" stroke-width="0.5" opacity="0.9"/>
</svg>