<?xml version="1.0" encoding="UTF-8"?>
<svg width="600" height="600" viewBox="0 0 600 600" xmlns="http://www.w3.org/2000/svg">
  <path d="M -60 -60 L 0 -60 L 0 0 L -60 0 Z" fill="#26d94d" stroke="#000" stroke-width="0.5" opacity="0.9"/>
  <path d="M 0 -60 L 60 -60 L 60 0 L 0 0 Z" fill="#26d9a6" stroke="#000" stroke-width="0.5" opacity="0.9"/>
  <path d="M 60 -60 L 120 -60 L 120 0 L 60 0 Z" fill="#26b2d9" stroke="#000" stroke-width="0.5" opacity="0.9"/>
  <path d="M 120 -60 L 180 -60 L 180 0 L 120 0 Z" fill="#2659d9" stroke="#000" stroke-width="0.5" opacity="0.9"/>
  <path d="M 180 -60 L 240 -60 L 240 0 L 180 0 Z" fill="#26d94d" stroke="#000" stroke-width="0.5" opacity="0.9"/>
  <path d="M 240 -60 L 300 -60 L 300 0 L 240 0 Z" fill="#26d9a6" stroke="#000" stroke-width="0.5" opacity="0.9"/>
  <path d="M 300 -60 L 360 -60 L 360 0 L 300 0 Z" fill="#26b2d9" stroke="#000" stroke-width="0.5" opacity="0.9"/>
  <path d="M 360 -60 L 420 -60 L 420 0 L 360 0 Z" fill="#2659d9" stroke="#000" stroke-width="0.5" opacity="0.9"/>
  <path d="M 420 -60 L 480 -60 L 480 0 L 420 0 Z" fill="#26d94d" stroke="#000" stroke-width="0.5" opacity="0.9"/>
  <path d="M 480 -60 L 540 -60 L 540 0 L 480 0 Z" fill="#26d9a6" stroke="#000" stroke-width="0.5" opacity="0.9"/>
  <path d="M 540 -60 L 600 -60 L 600 0 L 540 0 Z" fill="#26b2d9" stroke="#000" stroke-width="0.5" opacity="0.9"/>
  <path d="M 600 -60 L 660 -60 L 660 0 L 600 0 Z" fill="#2659d9" stroke="#000" stroke-width="0.5" opacity="0.9"/>
  <path d="M 660 -60 L 720 -60 L 720 0 L 660 0 Z" fill="#26d94d" stroke="#000" stroke-width="0.5" opacity="0.9"/>
  <path d="M -60 0 L 0 0 L 0 60 L -60 60 Z" fill="#26d9a6" stroke="#000" stroke-width="0.5" opacity="0.9"/>
  <path d="M 0 0 L 60 0 L 60 60 L 0 60 Z" fill="#26b2d9" stroke="#000" stroke-width="0.5" opacity="0.9"/>
  <path d="M 60 0 L 120 0 L 120 60 L 60 60 Z" fill="#2659d9" stroke="#000" stroke-width="0.5" opacity="0.9"/>
  <path d="M 120 0 L 180 0 L 180 60 L 120 60 Z" fill="#26d94d" stroke="#000" stroke-width="0.5" opacity="0.9"/>
  <path d="M 180 0 L 240 0 L 240 60 L 180 60 Z" fill="#26d9a6" stroke="#000" stroke-width="0.5" opacity="0.9"/>
  <path d="M 240 0 L 300 0 L 300 60 L 240 60 Z" fill="#26b2d9" stroke="#000" stroke-width="0.5" opacity="0.9"/>
  <path d="M 300 0 L 360 0 L 360 60 L 300 60 Z" fill="#2659d9" stroke="#000" stroke-width="0.5" opacity="0.9"/>
  <path d="M 360 0 L 420 0 L 420 60 L 360 60 Z" fill="#26d94d" stroke="#000" stroke-width="0.5" opacity="0.9"/>
  <path d="M 420 0 L 480 0 L 480 60 L 420 60 Z" fill="#26d9a6" stroke="#000" stroke-width="0.5" opacity="0.9"/>
  <path d="M 480 0 L 540 0 L 540 60 L 480 60 Z" fill="#26b2d9" stroke="#000" stroke-width="0.5" opacity="0.9"/>
  <path d="M 540 0 L 600 0 L 600 60 L 540 60 Z" fill="#2659d9" stroke="#000" stroke-width="0.5" opacity="0.9"/>
  <path d="M 600 0 L 660 0 L 660 60 L 600 60 Z" fill="#26d94d" stroke="#000" stroke-width="0.5" opacity="0.9"/>
  <path d="M 660 0 L 720 0 L 720 60 L 660 60 Z" fill="#26d9a6" stroke="#000" stroke-width="0.5" opacity="0.9"/>
  <path d="M -60 60 L 0 60 L 0 120 L -60 120 Z" fill="#26b2d9" stroke="#000" stroke-width="0.5" opacity="0.9"/>
  <path d="M 0 60 L 60 60 L 60 120 L 0 120 Z" fill="#2659d9" stroke="#000" stroke-width="0.5" opacity="0.9"/>
  <path d="M 60 60 L 120 60 L 120 120 L 60 120 Z" fill="#26d94d" stroke="#000" stroke-width="0.5" opacity="0.9"/>
  <path d="M 120 60 L 180 60 L 180 120 L 120 120 Z" fill="#26d9a6" stroke="#000" stroke-width="0.5" opacity="0.9"/>
  <path d="M 180 60 L 240 60 L 240 120 L 180 120 Z" fill="#26b2d9" stroke="#000" stroke-width="0.5" opacity="0.9"/>
  <path d="M 240 60 L 300 60 L 300 120 L 240 120 Z" fill="#2659d9" stroke="#000" stroke-width="0.5" opacity="0.9"/>
  <path d="M 300 60 L 360 60 L 360 120 L 300 120 Z" fill="#26d94d" stroke="#000" stroke-width="0.5" opacity="0.9"/>
  <path d="M 360 60 L 420 60 L 420 120 L 360 120 Z" fill="#26d9a6" stroke="#000" stroke-width="0.5" opacity="0.9"/>
  <path d="M 420 60 L 480 60 L 480 120 L 420 120 Z" fill="#26b2d9" stroke="#000" stroke-width="0.5" opacity="0.9"/>
  <path d="M 480 60 L 540 60 L 540 120 L 480 120 Z" fill="#2659d9" stroke="#000" stroke-width="0.5" opacity="0.9"/>
  <path d="M 540 60 L 600 60 L 600 120 L 540 120 Z" fill="#26d94d" stroke="#000" stroke-width="0.5" opacity="0.9"/>
  <path d="M 600 60 L 660 60 L 660 120 L 600 120 Z" fill="#26d9a6" stroke="#000" stroke-width="0.5" opacity="0.9"/>
  <path d="M 660 60 L 720 60 L 720 120 L 660 120 Z" fill="#26b2d9" stroke="#000" stroke-width="0.5" opacity="0.9"/>
  <path d="M -60 120 L 0 120 L 0 180 L -60 180 Z" fill="#2659d9" stroke="#000" stroke-width="0.5" opacity="0.9"/>
  <path d="M 0 120 L 60 120 L 60 180 L 0 180 Z" fill="#26d94d" stroke="#000" stroke-width="0.5" opacity="0.9"/>
  <path d="M 60 120 L 120 120 L 120 180 L 60 180 Z" fill="#26d9a6" stroke="#000" stroke-width="0.5" opacity="0.9"/>
  <path d="M 120 120 L 180 120 L 180 180 L 120 180 Z" fill="#26b2d9" stroke="#000" stroke-width="0.5" opacity="0.9"/>
  <path d="M 180 120 L 240 120 L 240 180 L 180 180 Z" fill="#2659d9" stroke="#000" stroke-width="0.5" opacity="0.9"/>
  <path d="M 240 120 L 300 120 L 300 180 L 240 180 Z" fill="#26d94d" stroke="#000" stroke-width="0.5" opacity="0.9"/>
  <path d="M 300 120 L 360 120 L 360 180 L 300 180 Z" fill="#26d9a6" stroke="#000" stroke-width="0.5" opacity="0.9"/>
  <path d="M 360 120 L 420 120 L 420 180 L 360 180 Z" fill="#26b2d9" stroke="#000" stroke-width="0.5" opacity="0.9"/>
  <path d="M 420 120 L 480 120 L 480 180 L 420 180 Z" fill="#2659d9" stroke="#000" stroke-width="0.5" opacity="0.9"/>
  <path d="M 480 120 L 540 120 L 540 180 L 480 180 Z" fill="#26d94d" stroke="#000" stroke-width="0.5" opacity="0.9"/>
  <path d="M 540 120 L 600 120 L 600 180 L 540 180 Z" fill="#26d9a6" stroke="#000" stroke-width="0.5" opacity="0.9"/>
  <path d="M 600 120 L 660 120 L 660 180 L 600 180 Z" fill="#26b2d9" stroke="#000" stroke-width="0.5" opacity="0.9"/>
  <path d="M 660 120 L 720 120 L 720 180 L 660 180 Z" fill="#2659d9" stroke="#000" stroke-width="0.5" opacity="0.9"/>
  <path d="M -60 180 L 0 180 L 0 240 L -60 240 Z" fill="#26d94d" stroke="#000" stroke-width="0.5" opacity="0.9"/>
  <path d="M 0 180 L 60 180 L 60 240 L 0 240 Z" fill="#26d9a6" stroke="#000" stroke-width="0.5" opacity="0.9"/>
  <path d="M 60 180 L 120 180 L 120 240 L 60 240 Z" fill="#26b2d9" stroke="#000" stroke-width="0.5" opacity="0.9"/>
  <path d="M 120 180 L 180 180 L 180 240 L 120 240 Z" fill="#2659d9" stroke="#000" stroke-width="0.5" opacity="0.9"/>
  <path d="M 180 180 L 240 180 L 240 240 L 180 240 Z" fill="#26d94d" stroke="#000" stroke-width="0.5" opacity="0.9"/>
  <path d="M 240 180 L 300 180 L 300 240 L 240 240 Z" fill="#26d9a6" stroke="#000" stroke-width="0.5" opacity="0.9"/>
  <path d="M 300 180 L 360 180 L 360 240 L 300 240 Z" fill="#26b2d9" stroke="#000" stroke-width="0.5" opacity="0.9"/>
  <path d="M 360 180 L 420 180 L 420 240 L 360 240 Z" fill="#2659d9" stroke="#000" stroke-width="0.5" opacity="0.9"/>
  <path d="M 420 180 L 480 180 L 480 240 L 420 240 Z" fill="#26d94d" stroke="#000" stroke-width="0.5" opacity="0.9"/>
  <path d="M 480 180 L 540 180 L 540 240 L 480 240 Z" fill="#26d9a6" stroke="#000" stroke-width="0.5" opacity="0.9"/>
  <path d="M 540 180 L 600 180 L 600 240 L 540 240 Z" fill="#26b2d9" stroke="#000" stroke-width="0.5" opacity="0.9"/>
  <path d="M 600 180 L 660 180 L 660 240 L 600 240 Z" fill="#2659d9" stroke="#000" stroke-width="0.5" opacity="0.9"/>
  <path d="M 660 180 L 720 180 L 720 240 L 660 240 Z" fill="#26d94d" stroke="#000" stroke-width="0.5" opacity="0.9"/>
  <path d="M -60 240 L 0 240 L 0 300 L -60 300 Z" fill="#26d9a6" stroke="#000" stroke-width="0.5" opacity="0.9"/>
  <path d="M 0 240 L 60 240 L 60 300 L 0 300 Z" fill="#26b2d9" stroke="#000" stroke-width="0.5" opacity="0.9"/>
  <path d="M 60 240 L 120 240 L 120 300 L 60 300 Z" fill="#2659d9" stroke="#000" stroke-width="0.5" opacity="0.9"/>
  <path d="M 120 240 L 180 240 L 180 300 L 120 300 Z" fill="#26d94d" stroke="#000" stroke-width="0.5" opacity="0.9"/>
  <path d="M 180 240 L 240 240 L 240 300 L 180 300 Z" fill="#26d9a6" stroke="#000" stroke-width="0.5" opacity="0.9"/>
  <path d="M 240 240 L 300 240 L 300 300 L 240 300 Z" fill="#26b2d9" stroke="#000" stroke-width="0.5" opacity="0.9"/>
  <path d="M 300 240 L 360 240 L 360 300 L 300 300 Z" fill="#2659d9" stroke="#000" stroke-width="0.5" opacity="0.9"/>
  <path d="M 360 240 L 420 240 L 420 300 L 360 300 Z" fill="#26d94d" stroke="#000" stroke-width="0.5" opacity="0.9"/>
  <path d="M 420 240 L 480 240 L 480 300 L 420 300 Z" fill="#26d9a6" stroke="#000" stroke-width="0.5" opacity="0.9"/>
  <path d="M 480 240 L 540 240 L 540 300 L 480 300 Z" fill="#26b2d9" stroke="#000" stroke-width="0.5" opacity="0.9"/>
  <path d="M 540 240 L 600 240 L 600 300 L 540 300 Z" fill="#2659d9" stroke="#000" stroke-width="0.5" opacity="0.9"/>
  <path d="M 600 240 L 660 240 L 660 300 L 600 300 Z" fill="#26d94d" stroke="#000" stroke-width="0.5" opacity="0.9"/>
  <path d="M 660 240 L 720 240 L 720 300 L 660 300 Z" fill="#26d9a6" stroke="#000" stroke-width="0.5" opacity="0.9"/>
  <path d="M -60 300 L 0 300 L 0 360 L -60 360 Z" fill="#26b2d9" stroke="#000" stroke-width="0.5" opacity="0.9"/>
  <path d="M 0 300 L 60 300 L 60 360 L 0 360 Z" fill="#2659d9" stroke="#000" stroke-width="0.5" opacity="0.9"/>
  <path d="M 60 300 L 120 300 L 120 360 L 60 360 Z" fill="#26d94d" stroke="#000" stroke-width="0.5" opacity="0.9"/>
  <path d="M 120 300 L 180 300 L 180 360 L 120 360 Z" fill="#26d9a6" stroke="#000" stroke-width="0.5" opacity="0.9"/>
  <path d="M 180 300 L 240 300 L 240 360 L 180 360 Z" fill="#26b2d9" stroke="#000" stroke-width="0.5" opacity="0.9"/>
  <path d="M 240 300 L 300 300 L 300 360 L 240 360 Z" fill="#2659d9" stroke="#000" stroke-width="0.5" opacity="0.9"/>
  <path d="M 300 300 L 360 300 L 360 360 L 300 360 Z" fill="#26d94d" stroke="#000" stroke-width="0.5" opacity="0.9"/>
  <path d="M 360 300 L 420 300 L 420 360 L 360 360 Z" fill="#26d9a6" stroke="#000" stroke-width="0.5" opacity="0.9"/>
  <path d="M 420 300 L 480 300 L 480 360 L 420 360 Z" fill="#26b2d9" stroke="#000" stroke-width="0.5" opacity="0.9"/>
  <path d="M 480 300 L 540 300 L 540 360 L 480 360 Z" fill="#2659d9" stroke="#000" stroke-width="0.5" opacity="0.9"/>
  <path d="M 540 300 L 600 300 L 600 360 L 540 360 Z" fill="#26d94d" stroke="#000" stroke-width="0.5" opacity="0.9"/>
  <path d="M 600 300 L 660 300 L 660 360 L 600 360 Z" fill="#26d9a6" stroke="#000" stroke-width="0.5" opacity="0.9"/>
  <path d="M 660 300 L 720 300 L 720 360 L 660 360 Z" fill="#26b2d9" stroke="#000" stroke-width="0.5" opacity="0.9"/>
  <path d="M -60 360 L 0 360 L 0 420 L -60 420 Z" fill="#2659d9" stroke="#000" stroke-width="0.5" opacity="0.9"/>
  <path d="M 0 360 L 60 360 L 60 420 L 0 420 Z" fill="#26d94d" stroke="#000" stroke-width="0.5" opacity="0.9"/>
  <path d="M 60 360 L 120 360 L 120 420 L 60 420 Z" fill="#26d9a6" stroke="#000" stroke-width="0.5" opacity="0.9"/>
  <path d="M 120 360 L 180 360 L 180 420 L 120 420 Z" fill="#26b2d9" stroke="#000" stroke-width="0.5" opacity="0.9"/>
  <path d="M 180 360 L 240 360 L 240 420 L 180 420 Z" fill="#2659d9" stroke="#000" stroke-width="0.5" opacity="0.9"/>
  <path d="M 240 360 L 300 360 L 300 420 L 240 420 Z" fill="#26d94d" stroke="#000" stroke-width="0.5" opacity="0.9"/>
  <path d="M 300 360 L 360 360 L 360 420 L 300 420 Z" fill="#26d9a6" stroke="#000" stroke-width="0.5" opacity="0.9"/>
  <path d="M 360 360 L 420 360 L 420 420 L 360 420 Z" fill="#26b2d9" stroke="#000" stroke-width="0.5" opacity="0.9"/>
  <path d="M 420 360 L 480 360 L 480 420 L 420 420 Z" fill="#2659d9" stroke="#000" stroke-width="0.5" opacity="0.9"/>
  <path d="M 480 360 L 540 360 L 540 420 L 480 420 Z" fill="#26d94d" stroke="#000" stroke-width="0.5" opacity="0.9"/>
  <path d="M 540 360 L 600 360 L 600 420 L 540 420 Z" fill="#26d9a6" stroke="#000" stroke-width="0.5" opacity="0.9"/>
  <path d="M 600 360 L 660 360 L 660 420 L 600 420 Z" fill="#26b2d9" stroke="#000" stroke-width="0.5" opacity="0.9"/>
  <path d="M 660 360 L 720 360 L 720 420 L 660 420 Z" fill="#2659d9" stroke="#000" stroke-width="0.5" opacity="0.9"/>
  <path d="M -60 420 L 0 420 L 0 480 L -60 480 Z" fill="#26d94d" stroke="#000" stroke-width="0.5" opacity="0.9"/>
  <path d="M 0 420 L 60 420 L 60 480 L 0 480 Z" fill="#26d9a6" stroke="#000" stroke-width="0.5" opacity="0.9"/>
  <path d="M 60 420 L 120 420 L 120 480 L 60 480 Z" fill="#26b2d9" stroke="#000" stroke-width="0.5" opacity="0.9"/>
  <path d="M 120 420 L 180 420 L 180 480 L 120 480 Z" fill="#2659d9" stroke="#000" stroke-width="0.5" opacity="0.9"/>
  <path d="M 180 420 L 240 420 L 240 480 L 180 480 Z" fill="#26d94d" stroke="#000" stroke-width="0.5" opacity="0.9"/>
  <path d="M 240 420 L 300 420 L 300 480 L 240 480 Z" fill="#26d9a6" stroke="#000" stroke-width="0.5" opacity="0.9"/>
  <path d="M 300 420 L 360 420 L 360 480 L 300 480 Z" fill="#26b2d9" stroke="#000" stroke-width="0.5" opacity="0.9"/>
  <path d="M 360 420 L 420 420 L 420 480 L 360 480 Z" fill="#2659d9" stroke="#000" stroke-width="0.5" opacity="0.9"/>
  <path d="M 420 420 L 480 420 L 480 480 L 420 480 Z" fill="#26d94d" stroke="#000" stroke-width="0.5" opacity="0.9"/>
  <path d="M 480 420 L 540 420 L 540 480 L 480 480 Z" fill="#26d9a6" stroke="#000" stroke-width="0.5" opacity="0.9"/>
  <path d="M 540 420 L 600 420 L 600 480 L 540 480 Z" fill="#26b2d9" stroke="#000" stroke-width="0.5" opacity="0.9"/>
  <path d="M 600 420 L 660 420 L 660 480 L 600 480 Z" fill="#2659d9" stroke="#000" stroke-width="0.5" opacity="0.9"/>
  <path d="M 660 420 L 720 420 L 720 480 L 660 480 Z" fill="#26d94d" stroke="#000" stroke-width="0.5" opacity="0.9"/>
  <path d="M -60 480 L 0 480 L 0 540 L -60 540 Z" fill="#26d9a6" stroke="#000" stroke-width="0.5" opacity="0.9"/>
  <path d="M 0 480 L 60 480 L 60 540 L 0 540 Z" fill="#26b2d9" stroke="#000" stroke-width="0.5" opacity="0.9"/>
  <path d="M 60 480 L 120 480 L 120 540 L 60 540 Z" fill="#2659d9" stroke="#000" stroke-width="0.5" opacity="0.9"/>
  <path d="M 120 480 L 180 480 L 180 540 L 120 540 Z" fill="#26d94d" stroke="#000" stroke-width="0.5" opacity="0.9"/>
  <path d="M 180 480 L 240 480 L 240 540 L 180 540 Z" fill="#26d9a6" stroke="#000" stroke-width="0.5" opacity="0.9"/>
  <path d="M 240 480 L 300 480 L 300 540 L 240 540 Z" fill="#26b2d9" stroke="#000" stroke-width="0.5" opacity="0.9"/>
  <path d="M 300 480 L 360 480 L 360 540 L 300 540 Z" fill="#2659d9" stroke="#000" stroke-width="0.5" opacity="0.9"/>
  <path d="M 360 480 L 420 480 L 420 540 L 360 540 Z" fill="#26d94d" stroke="#000" stroke-width="0.5" opacity="0.9"/>
  <path d="M 420 480 L 480 480 L 480 540 L 420 540 Z" fill="#26d9a6" stroke="#000" stroke-width="0.5" opacity="0.9"/>
  <path d="M 480 480 L 540 480 L 540 540 L 480 540 Z" fill="#26b2d9" stroke="#000" stroke-width="0.5" opacity="0.9"/>
  <path d="M 540 480 L 600 480 L 600 540 L 540 540 Z" fill="#2659d9" stroke="#000" stroke-width="0.5" opacity="0.9"/>
  <path d="M 600 480 L 660 480 L 660 540 L 600 540 Z" fill="#26d94d" stroke="#000" stroke-width="0.5" opacity="0.9"/>
  <path d="M 660 480 L 720 480 L 720 540 L 660 540 Z" fill="#26d9a6" stroke="#000" stroke-width="0.5" opacity="0.9"/>
  <path d="M -60 540 L 0 540 L 0 600 L -60 600 Z" fill="#26b2d9" stroke="#000" stroke-width="0.5" opacity="0.9"/>
  <path d="M 0 540 L 60 540 L 60 600 L 0 600 Z" fill="#2659d9" stroke="#000" stroke-width="0.5" opacity="0.9"/>
  <path d="M 60 540 L 120 540 L 120 600 L 60 600 Z" fill="#26d94d" stroke="#000" stroke-width="0.5" opacity="0.9"/>
  <path d="M 120 540 L 180 540 L 180 600 L 120 600 Z" fill="#26d9a6" stroke="#000" stroke-width="0.5" opacity="0.9"/>
  <path d="M 180 540 L 240 540 L 240 600 L 180 600 Z" fill="#26b2d9" stroke="#000" stroke-width="0.5" opacity="0.9"/>
  <path d="M 240 540 L 300 540 L 300 600 L 240 600 Z" fill="#2659d9" stroke="#000" stroke-width="0.5" opacity="0.9"/>
  <path d="M 300 540 L 360 540 L 360 600 L 300 600 Z" fill="#26d94d" stroke="#000" stroke-width="0.5" opacity="0.9"/>
  <path d="M 360 540 L 420 540 L 420 600 L 360 600 Z" fill="#26d9a6" stroke="#000" stroke-width="0.5" opacity="0.9"/>
  <path d="M 420 540 L 480 540 L 480 600 L 420 600 Z" fill="#26b2d9" stroke="#000" stroke-width="0.5" opacity="0.9"/>
  <path d="M 480 540 L 540 540 L 540 600 L 480 600 Z" fill="#2659d9" stroke="#000" stroke-width="0.5" opacity="0.9"/>
  <path d="M 540 540 L 600 540 L 600 600 L 540 600 Z" fill="#26d94d" stroke="#000" stroke-width="0.5" opacity="0.9"/>
  <path d="M 600 540 L 660 540 L 660 600 L 600 600 Z" fill="#26d9a6" stroke="#000" stroke-width="0.5" opacity="0.9"/>
  <path d="M 660 540 L 720 540 L 720 600 L 660 600 Z" fill="#26b2d9" stroke="#000" stroke-width="0.5" opacity="0.9"/>
  <path d="M -60 600 L 0 600 L 0 660 L -60 660 Z" fill="#2659d9" stroke="#000" stroke-width="0.5" opacity="0.9"/>
  <path d="M 0 600 L 60 600 L 60 660 L 0 660 Z" fill="#26d94d" stroke="#000" stroke-width="0.5" opacity="0.9"/>
  <path d="M 60 600 L 120 600 L 120 660 L 60 660 Z" fill="#26d9a6" stroke="#000" stroke-width="0.5" opacity="0.9"/>
  <path d="M 120 600 L 180 600 L 180 660 L 120 660 Z" fill="#26b2d9" stroke="#000" stroke-width="0.5" opacity="0.9"/>
  <path d="M 180 600 L 240 600 L 240 660 L 180 660 Z" fill="#2659d9" stroke="#000" stroke-width="0.5" opacity="0.9"/>
  <path d="M 240 600 L 300 600 L 300 660 L 240 660 Z" fill="#26d94d" stroke="#000" stroke-width="0.5" opacity="0.9"/>
  <path d="M 300 600 L 360 600 L 360 660 L 300 660 Z" fill="#26d9a6" stroke="#000" stroke-width="0.5" opacity="0.9"/>
  <path d="M 360 600 L 420 600 L 420 660 L 360 660 Z" fill="#26b2d9" stroke="#000" stroke-width="0.5" opacity="0.9"/>
  <path d="M 420 600 L 480 600 L 480 660 L 420 660 Z" fill="#2659d9" stroke="#000" stroke-width="0.5" opacity="0.9"/>
  <path d="M 480 600 L 540 600 L 540 660 L 480 660 Z" fill="#26d94d" stroke="#000" stroke-width="0.5" opacity="0.9"/>
  <path d="M 540 600 L 600 600 L 600 660 L 540 660 Z" fill="#26d9a6" stroke="#000" stroke-width="0.5" opacity="0.9"/>
  <path d="M 600 600 L 660 600 L 660 660 L 600 660 Z" fill="#26b2d9" stroke="#000" stroke-width="0.5" opacity="0.9"/>
  <path d="M 660 600 L 720 600 L 720 660 L 660 660 Z" fill="#2659d9" stroke="#000" stroke-width="0.5" opacity="0.9"/>
  <path d="M -60 660 L 0 660 L 0 720 L -60 720 Z" fill="#26d94d" stroke="#000" stroke-width="0.5" opacity="0.9"/>
  <path d="M 0 660 L 60 660 L 60 720 L 0 720 Z" fill="#26d9a6" stroke="#000" stroke-width="0.5" opacity="0.9"/>
  <path d="M 60 660 L 120 660 L 120 720 L 60 720 Z" fill="#26b2d9" stroke="#000" stroke-width="0.5" opacity="0.9"/>
  <path d="M 120 660 L 180 660 L 180 720 L 120 720 Z" fill="#2659d9" stroke="#000" stroke-width="0.5" opacity="0.9"/>
  <path d="M 180 660 L 240 660 L 240 720 L 180 720 Z" fill="#26d94d" stroke="#000" stroke-width="0.5" opacity="0.9"/>
  <path d="M 240 660 L 300 660 L 300 720 L 240 720 Z" fill="#26d9a6" stroke="#000" stroke-width="0.5" opacity="0.9"/>
  <path d="M 300 660 L 360 660 L 360 720 L 300 720 Z" fill="#26b2d9" stroke="#000" stroke-width="0.5" opacity="0.9"/>
  <path d="M 360 660 L 420 660 L 420 720 L 360 720 Z" fill="#2659d9" stroke="#000" stroke-width="0.5" opacity="0.9"/>
  <path d="M 420 660 L 480 660 L 480 720 L 420 720 Z" fill="#26d94d" stroke="#000" stroke-width="0.5" opacity="0.9"/>
  <path d="M 480 660 L 540 660 L 540 720 L 480 720 Z" fill="#26d9a6" stroke="#000" stroke-width="0.5" opacity="0.9"/>
  <path d="M 540 660 L 600 660 L 600 720 L 540 720 Z" fill="#26b2d9" stroke="#000" stroke-width="0.5" opacity="0.9"/>
  <path d="M 600 660 L 660 660 L 660 720 L 600 720 Z" fill="#2659d9" stroke="#000" stroke-width="0.5" opacity="0.9"/>
  <path d="M 660 660 L 720 660 L 720 720 L 660 720 Z" fill="#26d94d" stroke="#000" stroke-width="0.5" opacity="0.9"/>
</svg>