<?xml version="1.0" encoding="UTF-8"?>
<svg width="800" height="600" viewBox="0 0 800 600" xmlns="http://www.w3.org/2000/svg">
  <path d="M -38.97114317029974 -97.5 L -12.990381056766584 -82.5 L -12.99038105676658 -52.50000000000001 L -38.97114317029974 -37.5 L -64.9519052838329 -52.499999999999986 L -64.9519052838329 -82.5 Z" fill="#cad926" stroke="#000" stroke-width="0.5" opacity="0.9"/>
  <path d="M 1.83697019872103e-15 -75 L 25.980762113533157 -60 L 25.98076211353316 -30.000000000000007 L 1.83697019872103e-15 -15 L -25.980762113533153 -29.99999999999999 L -25.980762113533157 -60 Z" fill="#71d926" stroke="#000" stroke-width="0.5" opacity="0.9"/>
  <path d="M 38.97114317029974 -52.5 L 64.9519052838329 -37.5 L 64.9519052838329 -7.500000000000005 L 38.97114317029974 7.5 L 12.990381056766587 -7.499999999999989 L 12.990381056766584 -37.5 Z" fill="#26d935" stroke="#000" stroke-width="0.5" opacity="0.9"/>
  <path d="M 77.94228634059948 -75 L 103.92304845413264 -60 L 103.92304845413264 -30.000000000000007 L 77.94228634059948 -15 L 51.96152422706633 -29.99999999999999 L 51.96152422706632 -60 Z" fill="#26d98e" stroke="#000" stroke-width="0.5" opacity="0.9"/>
  <path d="M 116.91342951089922 -52.5 L 142.89419162443238 -37.5 L 142.89419162443238 -7.500000000000005 L 116.91342951089922 7.5 L 90.93266739736606 -7.499999999999989 L 90.93266739736606 -37.5 Z" fill="#cad926" stroke="#000" stroke-width="0.5" opacity="0.9"/>
  <path d="M 155.88457268119896 -75 L 181.86533479473212 -60 L 181.86533479473212 -30.000000000000007 L 155.88457268119896 -15 L 129.9038105676658 -29.99999999999999 L 129.9038105676658 -60 Z" fill="#71d926" stroke="#000" stroke-width="0.5" opacity="0.9"/>
  <path d="M 194.8557158514987 -52.5 L 220.83647796503186 -37.5 L 220.83647796503186 -7.500000000000005 L 194.8557158514987 7.5 L 168.87495373796554 -7.499999999999989 L 168.87495373796554 -37.5 Z" fill="#26d935" stroke="#000" stroke-width="0.5" opacity="0.9"/>
  <path d="M 233.82685902179844 -75 L 259.8076211353316 -60 L 259.8076211353316 -30.000000000000007 L 233.82685902179844 -15 L 207.84609690826528 -29.99999999999999 L 207.84609690826528 -60 Z" fill="#26d98e" stroke="#000" stroke-width="0.5" opacity="0.9"/>
  <path d="M 272.7980021920982 -52.5 L 298.77876430563134 -37.5 L 298.77876430563134 -7.500000000000005 L 272.7980021920982 7.5 L 246.81724007856502 -7.499999999999989 L 246.81724007856502 -37.5 Z" fill="#cad926" stroke="#000" stroke-width="0.5" opacity="0.9"/>
  <path d="M 311.7691453623979 -75 L 337.7499074759311 -60 L 337.7499074759311 -30.000000000000007 L 311.7691453623979 -15 L 285.78838324886476 -29.99999999999999 L 285.78838324886476 -60 Z" fill="#71d926" stroke="#000" stroke-width="0.5" opacity="0.9"/>
  <path d="M 350.74028853269766 -52.5 L 376.7210506462308 -37.5 L 376.7210506462308 -7.500000000000005 L 350.74028853269766 7.5 L 324.7595264191645 -7.499999999999989 L 324.7595264191645 -37.5 Z" fill="#26d935" stroke="#000" stroke-width="0.5" opacity="0.9"/>
  <path d="M 389.7114317029974 -75 L 415.69219381653056 -60 L 415.69219381653056 -30.000000000000007 L 389.7114317029974 -15 L 363.73066958946424 -29.99999999999999 L 363.73066958946424 -60 Z" fill="#26d98e" stroke="#000" stroke-width="0.5" opacity="0.9"/>
  <path d="M 428.68257487329714 -52.5 L 454.6633369868303 -37.5 L 454.6633369868303 -7.500000000000005 L 428.68257487329714 7.5 L 402.701812759764 -7.499999999999989 L 402.701812759764 -37.5 Z" fill="#cad926" stroke="#000" stroke-width="0.5" opacity="0.9"/>
  <path d="M 467.6537180435969 -75 L 493.63448015713004 -60 L 493.63448015713004 -30.000000000000007 L 467.6537180435969 -15 L 441.6729559300637 -29.99999999999999 L 441.6729559300637 -60 Z" fill="#71d926" stroke="#000" stroke-width="0.5" opacity="0.9"/>
  <path d="M 506.6248612138966 -52.5 L 532.6056233274297 -37.5 L 532.6056233274298 -7.500000000000005 L 506.6248612138966 7.5 L 480.64409910036346 -7.499999999999989 L 480.64409910036346 -37.5 Z" fill="#26d935" stroke="#000" stroke-width="0.5" opacity="0.9"/>
  <path d="M 545.5960043841964 -75 L 571.5767664977295 -60 L 571.5767664977295 -30.000000000000007 L 545.5960043841964 -15 L 519.6152422706632 -29.99999999999999 L 519.6152422706632 -60 Z" fill="#26d98e" stroke="#000" stroke-width="0.5" opacity="0.9"/>
  <path d="M 584.5671475544962 -52.5 L 610.5479096680293 -37.5 L 610.5479096680293 -7.500000000000005 L 584.5671475544962 7.5 L 558.586385440963 -7.499999999999989 L 558.586385440963 -37.5 Z" fill="#cad926" stroke="#000" stroke-width="0.5" opacity="0.9"/>
  <path d="M 623.5382907247958 -75 L 649.519052838329 -60 L 649.519052838329 -30.000000000000007 L 623.5382907247958 -15 L 597.5575286112627 -29.99999999999999 L 597.5575286112627 -60 Z" fill="#71d926" stroke="#000" stroke-width="0.5" opacity="0.9"/>
  <path d="M 662.5094338950955 -52.5 L 688.4901960086287 -37.5 L 688.4901960086287 -7.500000000000005 L 662.5094338950955 7.5 L 636.5286717815624 -7.499999999999989 L 636.5286717815624 -37.5 Z" fill="#26d935" stroke="#000" stroke-width="0.5" opacity="0.9"/>
  <path d="M 701.4805770653953 -75 L 727.4613391789285 -60 L 727.4613391789285 -30.000000000000007 L 701.4805770653953 -15 L 675.4998149518622 -29.99999999999999 L 675.4998149518622 -60 Z" fill="#26d98e" stroke="#000" stroke-width="0.5" opacity="0.9"/>
  <path d="M 740.4517202356951 -52.5 L 766.4324823492283 -37.5 L 766.4324823492283 -7.500000000000005 L 740.4517202356951 7.5 L 714.470958122162 -7.499999999999989 L 714.470958122162 -37.5 Z" fill="#cad926" stroke="#000" stroke-width="0.5" opacity="0.9"/>
  <path d="M 779.4228634059948 -75 L 805.403625519528 -60 L 805.403625519528 -30.000000000000007 L 779.4228634059948 -15 L 753.4421012924616 -29.99999999999999 L 753.4421012924616 -60 Z" fill="#71d926" stroke="#000" stroke-width="0.5" opacity="0.9"/>
  <path d="M 818.3940065762945 -52.5 L 844.3747686898276 -37.5 L 844.3747686898276 -7.500000000000005 L 818.3940065762945 7.5 L 792.4132444627613 -7.499999999999989 L 792.4132444627613 -37.5 Z" fill="#26d935" stroke="#000" stroke-width="0.5" opacity="0.9"/>
  <path d="M 857.3651497465943 -75 L 883.3459118601274 -60 L 883.3459118601274 -30.000000000000007 L 857.3651497465943 -15 L 831.3843876330611 -29.99999999999999 L 831.3843876330611 -60 Z" fill="#26d98e" stroke="#000" stroke-width="0.5" opacity="0.9"/>
  <path d="M -38.97114317029974 -52.5 L -12.990381056766584 -37.5 L -12.99038105676658 -7.500000000000005 L -38.97114317029974 7.5 L -64.9519052838329 -7.499999999999989 L -64.9519052838329 -37.5 Z" fill="#cad926" stroke="#000" stroke-width="0.5" opacity="0.9"/>
  <path d="M 1.83697019872103e-15 -30 L 25.980762113533157 -15 L 25.98076211353316 14.999999999999995 L 1.83697019872103e-15 30 L -25.980762113533153 15.00000000000001 L -25.980762113533157 -15.000000000000004 Z" fill="#71d926" stroke="#000" stroke-width="0.5" opacity="0.9"/>
  <path d="M 38.97114317029974 -7.5 L 64.9519052838329 7.5 L 64.9519052838329 37.49999999999999 L 38.97114317029974 52.5 L 12.990381056766587 37.500000000000014 L 12.990381056766584 7.4999999999999964 Z" fill="#26d935" stroke="#000" stroke-width="0.5" opacity="0.9"/>
  <path d="M 77.94228634059948 -30 L 103.92304845413264 -15 L 103.92304845413264 14.999999999999995 L 77.94228634059948 30 L 51.96152422706633 15.00000000000001 L 51.96152422706632 -15.000000000000004 Z" fill="#26d98e" stroke="#000" stroke-width="0.5" opacity="0.9"/>
  <path d="M 116.91342951089922 -7.5 L 142.89419162443238 7.5 L 142.89419162443238 37.49999999999999 L 116.91342951089922 52.5 L 90.93266739736606 37.500000000000014 L 90.93266739736606 7.4999999999999964 Z" fill="#cad926" stroke="#000" stroke-width="0.5" opacity="0.9"/>
  <path d="M 155.88457268119896 -30 L 181.86533479473212 -15 L 181.86533479473212 14.999999999999995 L 155.88457268119896 30 L 129.9038105676658 15.00000000000001 L 129.9038105676658 -15.000000000000004 Z" fill="#71d926" stroke="#000" stroke-width="0.5" opacity="0.9"/>
  <path d="M 194.8557158514987 -7.5 L 220.83647796503186 7.5 L 220.83647796503186 37.49999999999999 L 194.8557158514987 52.5 L 168.87495373796554 37.500000000000014 L 168.87495373796554 7.4999999999999964 Z" fill="#26d935" stroke="#000" stroke-width="0.5" opacity="0.9"/>
  <path d="M 233.82685902179844 -30 L 259.8076211353316 -15 L 259.8076211353316 14.999999999999995 L 233.82685902179844 30 L 207.84609690826528 15.00000000000001 L 207.84609690826528 -15.000000000000004 Z" fill="#26d98e" stroke="#000" stroke-width="0.5" opacity="0.9"/>
  <path d="M 272.7980021920982 -7.5 L 298.77876430563134 7.5 L 298.77876430563134 37.49999999999999 L 272.7980021920982 52.5 L 246.81724007856502 37.500000000000014 L 246.81724007856502 7.4999999999999964 Z" fill="#cad926" stroke="#000" stroke-width="0.5" opacity="0.9"/>
  <path d="M 311.7691453623979 -30 L 337.7499074759311 -15 L 337.7499074759311 14.999999999999995 L 311.7691453623979 30 L 285.78838324886476 15.00000000000001 L 285.78838324886476 -15.000000000000004 Z" fill="#71d926" stroke="#000" stroke-width="0.5" opacity="0.9"/>
  <path d="M 350.74028853269766 -7.5 L 376.7210506462308 7.5 L 376.7210506462308 37.49999999999999 L 350.74028853269766 52.5 L 324.7595264191645 37.500000000000014 L 324.7595264191645 7.4999999999999964 Z" fill="#26d935" stroke="#000" stroke-width="0.5" opacity="0.9"/>
  <path d="M 389.7114317029974 -30 L 415.69219381653056 -15 L 415.69219381653056 14.999999999999995 L 389.7114317029974 30 L 363.73066958946424 15.00000000000001 L 363.73066958946424 -15.000000000000004 Z" fill="#26d98e" stroke="#000" stroke-width="0.5" opacity="0.9"/>
  <path d="M 428.68257487329714 -7.5 L 454.6633369868303 7.5 L 454.6633369868303 37.49999999999999 L 428.68257487329714 52.5 L 402.701812759764 37.500000000000014 L 402.701812759764 7.4999999999999964 Z" fill="#cad926" stroke="#000" stroke-width="0.5" opacity="0.9"/>
  <path d="M 467.6537180435969 -30 L 493.63448015713004 -15 L 493.63448015713004 14.999999999999995 L 467.6537180435969 30 L 441.6729559300637 15.00000000000001 L 441.6729559300637 -15.000000000000004 Z" fill="#71d926" stroke="#000" stroke-width="0.5" opacity="0.9"/>
  <path d="M 506.6248612138966 -7.5 L 532.6056233274297 7.5 L 532.6056233274298 37.49999999999999 L 506.6248612138966 52.5 L 480.64409910036346 37.500000000000014 L 480.64409910036346 7.4999999999999964 Z" fill="#26d935" stroke="#000" stroke-width="0.5" opacity="0.9"/>
  <path d="M 545.5960043841964 -30 L 571.5767664977295 -15 L 571.5767664977295 14.999999999999995 L 545.5960043841964 30 L 519.6152422706632 15.00000000000001 L 519.6152422706632 -15.000000000000004 Z" fill="#26d98e" stroke="#000" stroke-width="0.5" opacity="0.9"/>
  <path d="M 584.5671475544962 -7.5 L 610.5479096680293 7.5 L 610.5479096680293 37.49999999999999 L 584.5671475544962 52.5 L 558.586385440963 37.500000000000014 L 558.586385440963 7.4999999999999964 Z" fill="#cad926" stroke="#000" stroke-width="0.5" opacity="0.9"/>
  <path d="M 623.5382907247958 -30 L 649.519052838329 -15 L 649.519052838329 14.999999999999995 L 623.5382907247958 30 L 597.5575286112627 15.00000000000001 L 597.5575286112627 -15.000000000000004 Z" fill="#71d926" stroke="#000" stroke-width="0.5" opacity="0.9"/>
  <path d="M 662.5094338950955 -7.5 L 688.4901960086287 7.5 L 688.4901960086287 37.49999999999999 L 662.5094338950955 52.5 L 636.5286717815624 37.500000000000014 L 636.5286717815624 7.4999999999999964 Z" fill="#26d935" stroke="#000" stroke-width="0.5" opacity="0.9"/>
  <path d="M 701.4805770653953 -30 L 727.4613391789285 -15 L 727.4613391789285 14.999999999999995 L 701.4805770653953 30 L 675.4998149518622 15.00000000000001 L 675.4998149518622 -15.000000000000004 Z" fill="#26d98e" stroke="#000" stroke-width="0.5" opacity="0.9"/>
  <path d="M 740.4517202356951 -7.5 L 766.4324823492283 7.5 L 766.4324823492283 37.49999999999999 L 740.4517202356951 52.5 L 714.470958122162 37.500000000000014 L 714.470958122162 7.4999999999999964 Z" fill="#cad926" stroke="#000" stroke-width="0.5" opacity="0.9"/>
  <path d="M 779.4228634059948 -30 L 805.403625519528 -15 L 805.403625519528 14.999999999999995 L 779.4228634059948 30 L 753.4421012924616 15.00000000000001 L 753.4421012924616 -15.000000000000004 Z" fill="#71d926" stroke="#000" stroke-width="0.5" opacity="0.9"/>
  <path d="M 818.3940065762945 -7.5 L 844.3747686898276 7.5 L 844.3747686898276 37.49999999999999 L 818.3940065762945 52.5 L 792.4132444627613 37.500000000000014 L 792.4132444627613 7.4999999999999964 Z" fill="#26d935" stroke="#000" stroke-width="0.5" opacity="0.9"/>
  <path d="M 857.3651497465943 -30 L 883.3459118601274 -15 L 883.3459118601274 14.999999999999995 L 857.3651497465943 30 L 831.3843876330611 15.00000000000001 L 831.3843876330611 -15.000000000000004 Z" fill="#26d98e" stroke="#000" stroke-width="0.5" opacity="0.9"/>
  <path d="M -38.97114317029974 -7.5 L -12.990381056766584 7.5 L -12.99038105676658 37.49999999999999 L -38.97114317029974 52.5 L -64.9519052838329 37.500000000000014 L -64.9519052838329 7.4999999999999964 Z" fill="#cad926" stroke="#000" stroke-width="0.5" opacity="0.9"/>
  <path d="M 1.83697019872103e-15 15 L 25.980762113533157 30 L 25.98076211353316 59.99999999999999 L 1.83697019872103e-15 75 L -25.980762113533153 60.000000000000014 L -25.980762113533157 29.999999999999996 Z" fill="#71d926" stroke="#000" stroke-width="0.5" opacity="0.9"/>
  <path d="M 38.97114317029974 37.5 L 64.9519052838329 52.5 L 64.9519052838329 82.5 L 38.97114317029974 97.5 L 12.990381056766587 82.50000000000001 L 12.990381056766584 52.5 Z" fill="#26d935" stroke="#000" stroke-width="0.5" opacity="0.9"/>
  <path d="M 77.94228634059948 15 L 103.92304845413264 30 L 103.92304845413264 59.99999999999999 L 77.94228634059948 75 L 51.96152422706633 60.000000000000014 L 51.96152422706632 29.999999999999996 Z" fill="#26d98e" stroke="#000" stroke-width="0.5" opacity="0.9"/>
  <path d="M 116.91342951089922 37.5 L 142.89419162443238 52.5 L 142.89419162443238 82.5 L 116.91342951089922 97.5 L 90.93266739736606 82.50000000000001 L 90.93266739736606 52.5 Z" fill="#cad926" stroke="#000" stroke-width="0.5" opacity="0.9"/>
  <path d="M 155.88457268119896 15 L 181.86533479473212 30 L 181.86533479473212 59.99999999999999 L 155.88457268119896 75 L 129.9038105676658 60.000000000000014 L 129.9038105676658 29.999999999999996 Z" fill="#71d926" stroke="#000" stroke-width="0.5" opacity="0.9"/>
  <path d="M 194.8557158514987 37.5 L 220.83647796503186 52.5 L 220.83647796503186 82.5 L 194.8557158514987 97.5 L 168.87495373796554 82.50000000000001 L 168.87495373796554 52.5 Z" fill="#26d935" stroke="#000" stroke-width="0.5" opacity="0.9"/>
  <path d="M 233.82685902179844 15 L 259.8076211353316 30 L 259.8076211353316 59.99999999999999 L 233.82685902179844 75 L 207.84609690826528 60.000000000000014 L 207.84609690826528 29.999999999999996 Z" fill="#26d98e" stroke="#000" stroke-width="0.5" opacity="0.9"/>
  <path d="M 272.7980021920982 37.5 L 298.77876430563134 52.5 L 298.77876430563134 82.5 L 272.7980021920982 97.5 L 246.81724007856502 82.50000000000001 L 246.81724007856502 52.5 Z" fill="#cad926" stroke="#000" stroke-width="0.5" opacity="0.9"/>
  <path d="M 311.7691453623979 15 L 337.7499074759311 30 L 337.7499074759311 59.99999999999999 L 311.7691453623979 75 L 285.78838324886476 60.000000000000014 L 285.78838324886476 29.999999999999996 Z" fill="#71d926" stroke="#000" stroke-width="0.5" opacity="0.9"/>
  <path d="M 350.74028853269766 37.5 L 376.7210506462308 52.5 L 376.7210506462308 82.5 L 350.74028853269766 97.5 L 324.7595264191645 82.50000000000001 L 324.7595264191645 52.5 Z" fill="#26d935" stroke="#000" stroke-width="0.5" opacity="0.9"/>
  <path d="M 389.7114317029974 15 L 415.69219381653056 30 L 415.69219381653056 59.99999999999999 L 389.7114317029974 75 L 363.73066958946424 60.000000000000014 L 363.73066958946424 29.999999999999996 Z" fill="#26d98e" stroke="#000" stroke-width="0.5" opacity="0.9"/>
  <path d="M 428.68257487329714 37.5 L 454.6633369868303 52.5 L 454.6633369868303 82.5 L 428.68257487329714 97.5 L 402.701812759764 82.50000000000001 L 402.701812759764 52.5 Z" fill="#cad926" stroke="#000" stroke-width="0.5" opacity="0.9"/>
  <path d="M 467.6537180435969 15 L 493.63448015713004 30 L 493.63448015713004 59.99999999999999 L 467.6537180435969 75 L 441.6729559300637 60.000000000000014 L 441.6729559300637 29.999999999999996 Z" fill="#71d926" stroke="#000" stroke-width="0.5" opacity="0.9"/>
  <path d="M 506.6248612138966 37.5 L 532.6056233274297 52.5 L 532.6056233274298 82.5 L 506.6248612138966 97.5 L 480.64409910036346 82.50000000000001 L 480.64409910036346 52.5 Z" fill="#26d935" stroke="#000" stroke-width="0.5" opacity="0.9"/>
  <path d="M 545.5960043841964 15 L 571.5767664977295 30 L 571.5767664977295 59.99999999999999 L 545.5960043841964 75 L 519.6152422706632 60.000000000000014 L 519.6152422706632 29.999999999999996 Z" fill="#26d98e" stroke="#000" stroke-width="0.5" opacity="0.9"/>
  <path d="M 584.5671475544962 37.5 L 610.5479096680293 52.5 L 610.5479096680293 82.5 L 584.5671475544962 97.5 L 558.586385440963 82.50000000000001 L 558.586385440963 52.5 Z" fill="#cad926" stroke="#000" stroke-width="0.5" opacity="0.9"/>
  <path d="M 623.5382907247958 15 L 649.519052838329 30 L 649.519052838329 59.99999999999999 L 623.5382907247958 75 L 597.5575286112627 60.000000000000014 L 597.5575286112627 29.999999999999996 Z" fill="#71d926" stroke="#000" stroke-width="0.5" opacity="0.9"/>
  <path d="M 662.5094338950955 37.5 L 688.4901960086287 52.5 L 688.4901960086287 82.5 L 662.5094338950955 97.5 L 636.5286717815624 82.50000000000001 L 636.5286717815624 52.5 Z" fill="#26d935" stroke="#000" stroke-width="0.5" opacity="0.9"/>
  <path d="M 701.4805770653953 15 L 727.4613391789285 30 L 727.4613391789285 59.99999999999999 L 701.4805770653953 75 L 675.4998149518622 60.000000000000014 L 675.4998149518622 29.999999999999996 Z" fill="#26d98e" stroke="#000" stroke-width="0.5" opacity="0.9"/>
  <path d="M 740.4517202356951 37.5 L 766.4324823492283 52.5 L 766.4324823492283 82.5 L 740.4517202356951 97.5 L 714.470958122162 82.50000000000001 L 714.470958122162 52.5 Z" fill="#cad926" stroke="#000" stroke-width="0.5" opacity="0.9"/>
  <path d="M 779.4228634059948 15 L 805.403625519528 30 L 805.403625519528 59.99999999999999 L 779.4228634059948 75 L 753.4421012924616 60.000000000000014 L 753.4421012924616 29.999999999999996 Z" fill="#71d926" stroke="#000" stroke-width="0.5" opacity="0.9"/>
  <path d="M 818.3940065762945 37.5 L 844.3747686898276 52.5 L 844.3747686898276 82.5 L 818.3940065762945 97.5 L 792.4132444627613 82.50000000000001 L 792.4132444627613 52.5 Z" fill="#26d935" stroke="#000" stroke-width="0.5" opacity="0.9"/>
  <path d="M 857.3651497465943 15 L 883.3459118601274 30 L 883.3459118601274 59.99999999999999 L 857.3651497465943 75 L 831.3843876330611 60.000000000000014 L 831.3843876330611 29.999999999999996 Z" fill="#26d98e" stroke="#000" stroke-width="0.5" opacity="0.9"/>
  <path d="M -38.97114317029974 37.5 L -12.990381056766584 52.5 L -12.99038105676658 82.5 L -38.97114317029974 97.5 L -64.9519052838329 82.50000000000001 L -64.9519052838329 52.5 Z" fill="#cad926" stroke="#000" stroke-width="0.5" opacity="0.9"/>
  <path d="M 1.83697019872103e-15 60 L 25.980762113533157 75 L 25.98076211353316 105 L 1.83697019872103e-15 120 L -25.980762113533153 105.00000000000001 L -25.980762113533157 75 Z" fill="#71d926" stroke="#000" stroke-width="0.5" opacity="0.9"/>
  <path d="M 38.97114317029974 82.5 L 64.9519052838329 97.5 L 64.9519052838329 127.5 L 38.97114317029974 142.5 L 12.990381056766587 127.50000000000001 L 12.990381056766584 97.5 Z" fill="#26d935" stroke="#000" stroke-width="0.5" opacity="0.9"/>
  <path d="M 77.94228634059948 60 L 103.92304845413264 75 L 103.92304845413264 105 L 77.94228634059948 120 L 51.96152422706633 105.00000000000001 L 51.96152422706632 75 Z" fill="#26d98e" stroke="#000" stroke-width="0.5" opacity="0.9"/>
  <path d="M 116.91342951089922 82.5 L 142.89419162443238 97.5 L 142.89419162443238 127.5 L 116.91342951089922 142.5 L 90.93266739736606 127.50000000000001 L 90.93266739736606 97.5 Z" fill="#cad926" stroke="#000" stroke-width="0.5" opacity="0.9"/>
  <path d="M 155.88457268119896 60 L 181.86533479473212 75 L 181.86533479473212 105 L 155.88457268119896 120 L 129.9038105676658 105.00000000000001 L 129.9038105676658 75 Z" fill="#71d926" stroke="#000" stroke-width="0.5" opacity="0.9"/>
  <path d="M 194.8557158514987 82.5 L 220.83647796503186 97.5 L 220.83647796503186 127.5 L 194.8557158514987 142.5 L 168.87495373796554 127.50000000000001 L 168.87495373796554 97.5 Z" fill="#26d935" stroke="#000" stroke-width="0.5" opacity="0.9"/>
  <path d="M 233.82685902179844 60 L 259.8076211353316 75 L 259.8076211353316 105 L 233.82685902179844 120 L 207.84609690826528 105.00000000000001 L 207.84609690826528 75 Z" fill="#26d98e" stroke="#000" stroke-width="0.5" opacity="0.9"/>
  <path d="M 272.7980021920982 82.5 L 298.77876430563134 97.5 L 298.77876430563134 127.5 L 272.7980021920982 142.5 L 246.81724007856502 127.50000000000001 L 246.81724007856502 97.5 Z" fill="#cad926" stroke="#000" stroke-width="0.5" opacity="0.9"/>
  <path d="M 311.7691453623979 60 L 337.7499074759311 75 L 337.7499074759311 105 L 311.7691453623979 120 L 285.78838324886476 105.00000000000001 L 285.78838324886476 75 Z" fill="#71d926" stroke="#000" stroke-width="0.5" opacity="0.9"/>
  <path d="M 350.74028853269766 82.5 L 376.7210506462308 97.5 L 376.7210506462308 127.5 L 350.74028853269766 142.5 L 324.7595264191645 127.50000000000001 L 324.7595264191645 97.5 Z" fill="#26d935" stroke="#000" stroke-width="0.5" opacity="0.9"/>
  <path d="M 389.7114317029974 60 L 415.69219381653056 75 L 415.69219381653056 105 L 389.7114317029974 120 L 363.73066958946424 105.00000000000001 L 363.73066958946424 75 Z" fill="#26d98e" stroke="#000" stroke-width="0.5" opacity="0.9"/>
  <path d="M 428.68257487329714 82.5 L 454.6633369868303 97.5 L 454.6633369868303 127.5 L 428.68257487329714 142.5 L 402.701812759764 127.50000000000001 L 402.701812759764 97.5 Z" fill="#cad926" stroke="#000" stroke-width="0.5" opacity="0.9"/>
  <path d="M 467.6537180435969 60 L 493.63448015713004 75 L 493.63448015713004 105 L 467.6537180435969 120 L 441.6729559300637 105.00000000000001 L 441.6729559300637 75 Z" fill="#71d926" stroke="#000" stroke-width="0.5" opacity="0.9"/>
  <path d="M 506.6248612138966 82.5 L 532.6056233274297 97.5 L 532.6056233274298 127.5 L 506.6248612138966 142.5 L 480.64409910036346 127.50000000000001 L 480.64409910036346 97.5 Z" fill="#26d935" stroke="#000" stroke-width="0.5" opacity="0.9"/>
  <path d="M 545.5960043841964 60 L 571.5767664977295 75 L 571.5767664977295 105 L 545.5960043841964 120 L 519.6152422706632 105.00000000000001 L 519.6152422706632 75 Z" fill="#26d98e" stroke="#000" stroke-width="0.5" opacity="0.9"/>
  <path d="M 584.5671475544962 82.5 L 610.5479096680293 97.5 L 610.5479096680293 127.5 L 584.5671475544962 142.5 L 558.586385440963 127.50000000000001 L 558.586385440963 97.5 Z" fill="#cad926" stroke="#000" stroke-width="0.5" opacity="0.9"/>
  <path d="M 623.5382907247958 60 L 649.519052838329 75 L 649.519052838329 105 L 623.5382907247958 120 L 597.5575286112627 105.00000000000001 L 597.5575286112627 75 Z" fill="#71d926" stroke="#000" stroke-width="0.5" opacity="0.9"/>
  <path d="M 662.5094338950955 82.5 L 688.4901960086287 97.5 L 688.4901960086287 127.5 L 662.5094338950955 142.5 L 636.5286717815624 127.50000000000001 L 636.5286717815624 97.5 Z" fill="#26d935" stroke="#000" stroke-width="0.5" opacity="0.9"/>
  <path d="M 701.4805770653953 60 L 727.4613391789285 75 L 727.4613391789285 105 L 701.4805770653953 120 L 675.4998149518622 105.00000000000001 L 675.4998149518622 75 Z" fill="#26d98e" stroke="#000" stroke-width="0.5" opacity="0.9"/>
  <path d="M 740.4517202356951 82.5 L 766.4324823492283 97.5 L 766.4324823492283 127.5 L 740.4517202356951 142.5 L 714.470958122162 127.50000000000001 L 714.470958122162 97.5 Z" fill="#cad926" stroke="#000" stroke-width="0.5" opacity="0.9"/>
  <path d="M 779.4228634059948 60 L 805.403625519528 75 L 805.403625519528 105 L 779.4228634059948 120 L 753.4421012924616 105.00000000000001 L 753.4421012924616 75 Z" fill="#71d926" stroke="#000" stroke-width="0.5" opacity="0.9"/>
  <path d="M 818.3940065762945 82.5 L 844.3747686898276 97.5 L 844.3747686898276 127.5 L 818.3940065762945 142.5 L 792.4132444627613 127.50000000000001 L 792.4132444627613 97.5 Z" fill="#26d935" stroke="#000" stroke-width="0.5" opacity="0.9"/>
  <path d="M 857.3651497465943 60 L 883.3459118601274 75 L 883.3459118601274 105 L 857.3651497465943 120 L 831.3843876330611 105.00000000000001 L 831.3843876330611 75 Z" fill="#26d98e" stroke="#000" stroke-width="0.5" opacity="0.9"/>
  <path d="M -38.97114317029974 82.5 L -12.990381056766584 97.5 L -12.99038105676658 127.5 L -38.97114317029974 142.5 L -64.9519052838329 127.50000000000001 L -64.9519052838329 97.5 Z" fill="#cad926" stroke="#000" stroke-width="0.5" opacity="0.9"/>
  <path d="M 1.83697019872103e-15 105 L 25.980762113533157 120 L 25.98076211353316 150 L 1.83697019872103e-15 165 L -25.980762113533153 150 L -25.980762113533157 120 Z" fill="#71d926" stroke="#000" stroke-width="0.5" opacity="0.9"/>
  <path d="M 38.97114317029974 127.5 L 64.9519052838329 142.5 L 64.9519052838329 172.5 L 38.97114317029974 187.5 L 12.990381056766587 172.5 L 12.990381056766584 142.5 Z" fill="#26d935" stroke="#000" stroke-width="0.5" opacity="0.9"/>
  <path d="M 77.94228634059948 105 L 103.92304845413264 120 L 103.92304845413264 150 L 77.94228634059948 165 L 51.96152422706633 150 L 51.96152422706632 120 Z" fill="#26d98e" stroke="#000" stroke-width="0.5" opacity="0.9"/>
  <path d="M 116.91342951089922 127.5 L 142.89419162443238 142.5 L 142.89419162443238 172.5 L 116.91342951089922 187.5 L 90.93266739736606 172.5 L 90.93266739736606 142.5 Z" fill="#cad926" stroke="#000" stroke-width="0.5" opacity="0.9"/>
  <path d="M 155.88457268119896 105 L 181.86533479473212 120 L 181.86533479473212 150 L 155.88457268119896 165 L 129.9038105676658 150 L 129.9038105676658 120 Z" fill="#71d926" stroke="#000" stroke-width="0.5" opacity="0.9"/>
  <path d="M 194.8557158514987 127.5 L 220.83647796503186 142.5 L 220.83647796503186 172.5 L 194.8557158514987 187.5 L 168.87495373796554 172.5 L 168.87495373796554 142.5 Z" fill="#26d935" stroke="#000" stroke-width="0.5" opacity="0.9"/>
  <path d="M 233.82685902179844 105 L 259.8076211353316 120 L 259.8076211353316 150 L 233.82685902179844 165 L 207.84609690826528 150 L 207.84609690826528 120 Z" fill="#26d98e" stroke="#000" stroke-width="0.5" opacity="0.9"/>
  <path d="M 272.7980021920982 127.5 L 298.77876430563134 142.5 L 298.77876430563134 172.5 L 272.7980021920982 187.5 L 246.81724007856502 172.5 L 246.81724007856502 142.5 Z" fill="#cad926" stroke="#000" stroke-width="0.5" opacity="0.9"/>
  <path d="M 311.7691453623979 105 L 337.7499074759311 120 L 337.7499074759311 150 L 311.7691453623979 165 L 285.78838324886476 150 L 285.78838324886476 120 Z" fill="#71d926" stroke="#000" stroke-width="0.5" opacity="0.9"/>
  <path d="M 350.74028853269766 127.5 L 376.7210506462308 142.5 L 376.7210506462308 172.5 L 350.74028853269766 187.5 L 324.7595264191645 172.5 L 324.7595264191645 142.5 Z" fill="#26d935" stroke="#000" stroke-width="0.5" opacity="0.9"/>
  <path d="M 389.7114317029974 105 L 415.69219381653056 120 L 415.69219381653056 150 L 389.7114317029974 165 L 363.73066958946424 150 L 363.73066958946424 120 Z" fill="#26d98e" stroke="#000" stroke-width="0.5" opacity="0.9"/>
  <path d="M 428.68257487329714 127.5 L 454.6633369868303 142.5 L 454.6633369868303 172.5 L 428.68257487329714 187.5 L 402.701812759764 172.5 L 402.701812759764 142.5 Z" fill="#cad926" stroke="#000" stroke-width="0.5" opacity="0.9"/>
  <path d="M 467.6537180435969 105 L 493.63448015713004 120 L 493.63448015713004 150 L 467.6537180435969 165 L 441.6729559300637 150 L 441.6729559300637 120 Z" fill="#71d926" stroke="#000" stroke-width="0.5" opacity="0.9"/>
  <path d="M 506.6248612138966 127.5 L 532.6056233274297 142.5 L 532.6056233274298 172.5 L 506.6248612138966 187.5 L 480.64409910036346 172.5 L 480.64409910036346 142.5 Z" fill="#26d935" stroke="#000" stroke-width="0.5" opacity="0.9"/>
  <path d="M 545.5960043841964 105 L 571.5767664977295 120 L 571.5767664977295 150 L 545.5960043841964 165 L 519.6152422706632 150 L 519.6152422706632 120 Z" fill="#26d98e" stroke="#000" stroke-width="0.5" opacity="0.9"/>
  <path d="M 584.5671475544962 127.5 L 610.5479096680293 142.5 L 610.5479096680293 172.5 L 584.5671475544962 187.5 L 558.586385440963 172.5 L 558.586385440963 142.5 Z" fill="#cad926" stroke="#000" stroke-width="0.5" opacity="0.9"/>
  <path d="M 623.5382907247958 105 L 649.519052838329 120 L 649.519052838329 150 L 623.5382907247958 165 L 597.5575286112627 150 L 597.5575286112627 120 Z" fill="#71d926" stroke="#000" stroke-width="0.5" opacity="0.9"/>
  <path d="M 662.5094338950955 127.5 L 688.4901960086287 142.5 L 688.4901960086287 172.5 L 662.5094338950955 187.5 L 636.5286717815624 172.5 L 636.5286717815624 142.5 Z" fill="#26d935" stroke="#000" stroke-width="0.5" opacity="0.9"/>
  <path d="M 701.4805770653953 105 L 727.4613391789285 120 L 727.4613391789285 150 L 701.4805770653953 165 L 675.4998149518622 150 L 675.4998149518622 120 Z" fill="#26d98e" stroke="#000" stroke-width="0.5" opacity="0.9"/>
  <path d="M 740.4517202356951 127.5 L 766.4324823492283 142.5 L 766.4324823492283 172.5 L 740.4517202356951 187.5 L 714.470958122162 172.5 L 714.470958122162 142.5 Z" fill="#cad926" stroke="#000" stroke-width="0.5" opacity="0.9"/>
  <path d="M 779.4228634059948 105 L 805.403625519528 120 L 805.403625519528 150 L 779.4228634059948 165 L 753.4421012924616 150 L 753.4421012924616 120 Z" fill="#71d926" stroke="#000" stroke-width="0.5" opacity="0.9"/>
  <path d="M 818.3940065762945 127.5 L 844.3747686898276 142.5 L 844.3747686898276 172.5 L 818.3940065762945 187.5 L 792.4132444627613 172.5 L 792.4132444627613 142.5 Z" fill="#26d935" stroke="#000" stroke-width="0.5" opacity="0.9"/>
  <path d="M 857.3651497465943 105 L 883.3459118601274 120 L 883.3459118601274 150 L 857.3651497465943 165 L 831.3843876330611 150 L 831.3843876330611 120 Z" fill="#26d98e" stroke="#000" stroke-width="0.5" opacity="0.9"/>
  <path d="M -38.97114317029974 127.5 L -12.990381056766584 142.5 L -12.99038105676658 172.5 L -38.97114317029974 187.5 L -64.9519052838329 172.5 L -64.9519052838329 142.5 Z" fill="#cad926" stroke="#000" stroke-width="0.5" opacity="0.9"/>
  <path d="M 1.83697019872103e-15 150 L 25.980762113533157 165 L 25.98076211353316 195 L 1.83697019872103e-15 210 L -25.980762113533153 195 L -25.980762113533157 165 Z" fill="#71d926" stroke="#000" stroke-width="0.5" opacity="0.9"/>
  <path d="M 38.97114317029974 172.5 L 64.9519052838329 187.5 L 64.9519052838329 217.5 L 38.97114317029974 232.5 L 12.990381056766587 217.5 L 12.990381056766584 187.5 Z" fill="#26d935" stroke="#000" stroke-width="0.5" opacity="0.9"/>
  <path d="M 77.94228634059948 150 L 103.92304845413264 165 L 103.92304845413264 195 L 77.94228634059948 210 L 51.96152422706633 195 L 51.96152422706632 165 Z" fill="#26d98e" stroke="#000" stroke-width="0.5" opacity="0.9"/>
  <path d="M 116.91342951089922 172.5 L 142.89419162443238 187.5 L 142.89419162443238 217.5 L 116.91342951089922 232.5 L 90.93266739736606 217.5 L 90.93266739736606 187.5 Z" fill="#cad926" stroke="#000" stroke-width="0.5" opacity="0.9"/>
  <path d="M 155.88457268119896 150 L 181.86533479473212 165 L 181.86533479473212 195 L 155.88457268119896 210 L 129.9038105676658 195 L 129.9038105676658 165 Z" fill="#71d926" stroke="#000" stroke-width="0.5" opacity="0.9"/>
  <path d="M 194.8557158514987 172.5 L 220.83647796503186 187.5 L 220.83647796503186 217.5 L 194.8557158514987 232.5 L 168.87495373796554 217.5 L 168.87495373796554 187.5 Z" fill="#26d935" stroke="#000" stroke-width="0.5" opacity="0.9"/>
  <path d="M 233.82685902179844 150 L 259.8076211353316 165 L 259.8076211353316 195 L 233.82685902179844 210 L 207.84609690826528 195 L 207.84609690826528 165 Z" fill="#26d98e" stroke="#000" stroke-width="0.5" opacity="0.9"/>
  <path d="M 272.7980021920982 172.5 L 298.77876430563134 187.5 L 298.77876430563134 217.5 L 272.7980021920982 232.5 L 246.81724007856502 217.5 L 246.81724007856502 187.5 Z" fill="#cad926" stroke="#000" stroke-width="0.5" opacity="0.9"/>
  <path d="M 311.7691453623979 150 L 337.7499074759311 165 L 337.7499074759311 195 L 311.7691453623979 210 L 285.78838324886476 195 L 285.78838324886476 165 Z" fill="#71d926" stroke="#000" stroke-width="0.5" opacity="0.9"/>
  <path d="M 350.74028853269766 172.5 L 376.7210506462308 187.5 L 376.7210506462308 217.5 L 350.74028853269766 232.5 L 324.7595264191645 217.5 L 324.7595264191645 187.5 Z" fill="#26d935" stroke="#000" stroke-width="0.5" opacity="0.9"/>
  <path d="M 389.7114317029974 150 L 415.69219381653056 165 L 415.69219381653056 195 L 389.7114317029974 210 L 363.73066958946424 195 L 363.73066958946424 165 Z" fill="#26d98e" stroke="#000" stroke-width="0.5" opacity="0.9"/>
  <path d="M 428.68257487329714 172.5 L 454.6633369868303 187.5 L 454.6633369868303 217.5 L 428.68257487329714 232.5 L 402.701812759764 217.5 L 402.701812759764 187.5 Z" fill="#cad926" stroke="#000" stroke-width="0.5" opacity="0.9"/>
  <path d="M 467.6537180435969 150 L 493.63448015713004 165 L 493.63448015713004 195 L 467.6537180435969 210 L 441.6729559300637 195 L 441.6729559300637 165 Z" fill="#71d926" stroke="#000" stroke-width="0.5" opacity="0.9"/>
  <path d="M 506.6248612138966 172.5 L 532.6056233274297 187.5 L 532.6056233274298 217.5 L 506.6248612138966 232.5 L 480.64409910036346 217.5 L 480.64409910036346 187.5 Z" fill="#26d935" stroke="#000" stroke-width="0.5" opacity="0.9"/>
  <path d="M 545.5960043841964 150 L 571.5767664977295 165 L 571.5767664977295 195 L 545.5960043841964 210 L 519.6152422706632 195 L 519.6152422706632 165 Z" fill="#26d98e" stroke="#000" stroke-width="0.5" opacity="0.9"/>
  <path d="M 584.5671475544962 172.5 L 610.5479096680293 187.5 L 610.5479096680293 217.5 L 584.5671475544962 232.5 L 558.586385440963 217.5 L 558.586385440963 187.5 Z" fill="#cad926" stroke="#000" stroke-width="0.5" opacity="0.9"/>
  <path d="M 623.5382907247958 150 L 649.519052838329 165 L 649.519052838329 195 L 623.5382907247958 210 L 597.5575286112627 195 L 597.5575286112627 165 Z" fill="#71d926" stroke="#000" stroke-width="0.5" opacity="0.9"/>
  <path d="M 662.5094338950955 172.5 L 688.4901960086287 187.5 L 688.4901960086287 217.5 L 662.5094338950955 232.5 L 636.5286717815624 217.5 L 636.5286717815624 187.5 Z" fill="#26d935" stroke="#000" stroke-width="0.5" opacity="0.9"/>
  <path d="M 701.4805770653953 150 L 727.4613391789285 165 L 727.4613391789285 195 L 701.4805770653953 210 L 675.4998149518622 195 L 675.4998149518622 165 Z" fill="#26d98e" stroke="#000" stroke-width="0.5" opacity="0.9"/>
  <path d="M 740.4517202356951 172.5 L 766.4324823492283 187.5 L 766.4324823492283 217.5 L 740.4517202356951 232.5 L 714.470958122162 217.5 L 714.470958122162 187.5 Z" fill="#cad926" stroke="#000" stroke-width="0.5" opacity="0.9"/>
  <path d="M 779.4228634059948 150 L 805.403625519528 165 L 805.403625519528 195 L 779.4228634059948 210 L 753.4421012924616 195 L 753.4421012924616 165 Z" fill="#71d926" stroke="#000" stroke-width="0.5" opacity="0.9"/>
  <path d="M 818.3940065762945 172.5 L 844.3747686898276 187.5 L 844.3747686898276 217.5 L 818.3940065762945 232.5 L 792.4132444627613 217.5 L 792.4132444627613 187.5 Z" fill="#26d935" stroke="#000" stroke-width="0.5" opacity="0.9"/>
  <path d="M 857.3651497465943 150 L 883.3459118601274 165 L 883.3459118601274 195 L 857.3651497465943 210 L 831.3843876330611 195 L 831.3843876330611 165 Z" fill="#26d98e" stroke="#000" stroke-width="0.5" opacity="0.9"/>
  <path d="M -38.97114317029974 172.5 L -12.990381056766584 187.5 L -12.99038105676658 217.5 L -38.97114317029974 232.5 L -64.9519052838329 217.5 L -64.9519052838329 187.5 Z" fill="#cad926" stroke="#000" stroke-width="0.5" opacity="0.9"/>
  <path d="M 1.83697019872103e-15 195 L 25.980762113533157 210 L 25.98076211353316 240 L 1.83697019872103e-15 255 L -25.980762113533153 240 L -25.980762113533157 210 Z" fill="#71d926" stroke="#000" stroke-width="0.5" opacity="0.9"/>
  <path d="M 38.97114317029974 217.5 L 64.9519052838329 232.5 L 64.9519052838329 262.5 L 38.97114317029974 277.5 L 12.990381056766587 262.5 L 12.990381056766584 232.5 Z" fill="#26d935" stroke="#000" stroke-width="0.5" opacity="0.9"/>
  <path d="M 77.94228634059948 195 L 103.92304845413264 210 L 103.92304845413264 240 L 77.94228634059948 255 L 51.96152422706633 240 L 51.96152422706632 210 Z" fill="#26d98e" stroke="#000" stroke-width="0.5" opacity="0.9"/>
  <path d="M 116.91342951089922 217.5 L 142.89419162443238 232.5 L 142.89419162443238 262.5 L 116.91342951089922 277.5 L 90.93266739736606 262.5 L 90.93266739736606 232.5 Z" fill="#cad926" stroke="#000" stroke-width="0.5" opacity="0.9"/>
  <path d="M 155.88457268119896 195 L 181.86533479473212 210 L 181.86533479473212 240 L 155.88457268119896 255 L 129.9038105676658 240 L 129.9038105676658 210 Z" fill="#71d926" stroke="#000" stroke-width="0.5" opacity="0.9"/>
  <path d="M 194.8557158514987 217.5 L 220.83647796503186 232.5 L 220.83647796503186 262.5 L 194.8557158514987 277.5 L 168.87495373796554 262.5 L 168.87495373796554 232.5 Z" fill="#26d935" stroke="#000" stroke-width="0.5" opacity="0.9"/>
  <path d="M 233.82685902179844 195 L 259.8076211353316 210 L 259.8076211353316 240 L 233.82685902179844 255 L 207.84609690826528 240 L 207.84609690826528 210 Z" fill="#26d98e" stroke="#000" stroke-width="0.5" opacity="0.9"/>
  <path d="M 272.7980021920982 217.5 L 298.77876430563134 232.5 L 298.77876430563134 262.5 L 272.7980021920982 277.5 L 246.81724007856502 262.5 L 246.81724007856502 232.5 Z" fill="#cad926" stroke="#000" stroke-width="0.5" opacity="0.9"/>
  <path d="M 311.7691453623979 195 L 337.7499074759311 210 L 337.7499074759311 240 L 311.7691453623979 255 L 285.78838324886476 240 L 285.78838324886476 210 Z" fill="#71d926" stroke="#000" stroke-width="0.5" opacity="0.9"/>
  <path d="M 350.74028853269766 217.5 L 376.7210506462308 232.5 L 376.7210506462308 262.5 L 350.74028853269766 277.5 L 324.7595264191645 262.5 L 324.7595264191645 232.5 Z" fill="#26d935" stroke="#000" stroke-width="0.5" opacity="0.9"/>
  <path d="M 389.7114317029974 195 L 415.69219381653056 210 L 415.69219381653056 240 L 389.7114317029974 255 L 363.73066958946424 240 L 363.73066958946424 210 Z" fill="#26d98e" stroke="#000" stroke-width="0.5" opacity="0.9"/>
  <path d="M 428.68257487329714 217.5 L 454.6633369868303 232.5 L 454.6633369868303 262.5 L 428.68257487329714 277.5 L 402.701812759764 262.5 L 402.701812759764 232.5 Z" fill="#cad926" stroke="#000" stroke-width="0.5" opacity="0.9"/>
  <path d="M 467.6537180435969 195 L 493.63448015713004 210 L 493.63448015713004 240 L 467.6537180435969 255 L 441.6729559300637 240 L 441.6729559300637 210 Z" fill="#71d926" stroke="#000" stroke-width="0.5" opacity="0.9"/>
  <path d="M 506.6248612138966 217.5 L 532.6056233274297 232.5 L 532.6056233274298 262.5 L 506.6248612138966 277.5 L 480.64409910036346 262.5 L 480.64409910036346 232.5 Z" fill="#26d935" stroke="#000" stroke-width="0.5" opacity="0.9"/>
  <path d="M 545.5960043841964 195 L 571.5767664977295 210 L 571.5767664977295 240 L 545.5960043841964 255 L 519.6152422706632 240 L 519.6152422706632 210 Z" fill="#26d98e" stroke="#000" stroke-width="0.5" opacity="0.9"/>
  <path d="M 584.5671475544962 217.5 L 610.5479096680293 232.5 L 610.5479096680293 262.5 L 584.5671475544962 277.5 L 558.586385440963 262.5 L 558.586385440963 232.5 Z" fill="#cad926" stroke="#000" stroke-width="0.5" opacity="0.9"/>
  <path d="M 623.5382907247958 195 L 649.519052838329 210 L 649.519052838329 240 L 623.5382907247958 255 L 597.5575286112627 240 L 597.5575286112627 210 Z" fill="#71d926" stroke="#000" stroke-width="0.5" opacity="0.9"/>
  <path d="M 662.5094338950955 217.5 L 688.4901960086287 232.5 L 688.4901960086287 262.5 L 662.5094338950955 277.5 L 636.5286717815624 262.5 L 636.5286717815624 232.5 Z" fill="#26d935" stroke="#000" stroke-width="0.5" opacity="0.9"/>
  <path d="M 701.4805770653953 195 L 727.4613391789285 210 L 727.4613391789285 240 L 701.4805770653953 255 L 675.4998149518622 240 L 675.4998149518622 210 Z" fill="#26d98e" stroke="#000" stroke-width="0.5" opacity="0.9"/>
  <path d="M 740.4517202356951 217.5 L 766.4324823492283 232.5 L 766.4324823492283 262.5 L 740.4517202356951 277.5 L 714.470958122162 262.5 L 714.470958122162 232.5 Z" fill="#cad926" stroke="#000" stroke-width="0.5" opacity="0.9"/>
  <path d="M 779.4228634059948 195 L 805.403625519528 210 L 805.403625519528 240 L 779.4228634059948 255 L 753.4421012924616 240 L 753.4421012924616 210 Z" fill="#71d926" stroke="#000" stroke-width="0.5" opacity="0.9"/>
  <path d="M 818.3940065762945 217.5 L 844.3747686898276 232.5 L 844.3747686898276 262.5 L 818.3940065762945 277.5 L 792.4132444627613 262.5 L 792.4132444627613 232.5 Z" fill="#26d935" stroke="#000" stroke-width="0.5" opacity="0.9"/>
  <path d="M 857.3651497465943 195 L 883.3459118601274 210 L 883.3459118601274 240 L 857.3651497465943 255 L 831.3843876330611 240 L 831.3843876330611 210 Z" fill="#26d98e" stroke="#000" stroke-width="0.5" opacity="0.9"/>
  <path d="M -38.97114317029974 217.5 L -12.990381056766584 232.5 L -12.99038105676658 262.5 L -38.97114317029974 277.5 L -64.9519052838329 262.5 L -64.9519052838329 232.5 Z" fill="#cad926" stroke="#000" stroke-width="0.5" opacity="0.9"/>
  <path d="M 1.83697019872103e-15 240 L 25.980762113533157 255 L 25.98076211353316 285 L 1.83697019872103e-15 300 L -25.980762113533153 285 L -25.980762113533157 255 Z" fill="#71d926" stroke="#000" stroke-width="0.5" opacity="0.9"/>
  <path d="M 38.97114317029974 262.5 L 64.9519052838329 277.5 L 64.9519052838329 307.5 L 38.97114317029974 322.5 L 12.990381056766587 307.5 L 12.990381056766584 277.5 Z" fill="#26d935" stroke="#000" stroke-width="0.5" opacity="0.9"/>
  <path d="M 77.94228634059948 240 L 103.92304845413264 255 L 103.92304845413264 285 L 77.94228634059948 300 L 51.96152422706633 285 L 51.96152422706632 255 Z" fill="#26d98e" stroke="#000" stroke-width="0.5" opacity="0.9"/>
  <path d="M 116.91342951089922 262.5 L 142.89419162443238 277.5 L 142.89419162443238 307.5 L 116.91342951089922 322.5 L 90.93266739736606 307.5 L 90.93266739736606 277.5 Z" fill="#cad926" stroke="#000" stroke-width="0.5" opacity="0.9"/>
  <path d="M 155.88457268119896 240 L 181.86533479473212 255 L 181.86533479473212 285 L 155.88457268119896 300 L 129.9038105676658 285 L 129.9038105676658 255 Z" fill="#71d926" stroke="#000" stroke-width="0.5" opacity="0.9"/>
  <path d="M 194.8557158514987 262.5 L 220.83647796503186 277.5 L 220.83647796503186 307.5 L 194.8557158514987 322.5 L 168.87495373796554 307.5 L 168.87495373796554 277.5 Z" fill="#26d935" stroke="#000" stroke-width="0.5" opacity="0.9"/>
  <path d="M 233.82685902179844 240 L 259.8076211353316 255 L 259.8076211353316 285 L 233.82685902179844 300 L 207.84609690826528 285 L 207.84609690826528 255 Z" fill="#26d98e" stroke="#000" stroke-width="0.5" opacity="0.9"/>
  <path d="M 272.7980021920982 262.5 L 298.77876430563134 277.5 L 298.77876430563134 307.5 L 272.7980021920982 322.5 L 246.81724007856502 307.5 L 246.81724007856502 277.5 Z" fill="#cad926" stroke="#000" stroke-width="0.5" opacity="0.9"/>
  <path d="M 311.7691453623979 240 L 337.7499074759311 255 L 337.7499074759311 285 L 311.7691453623979 300 L 285.78838324886476 285 L 285.78838324886476 255 Z" fill="#71d926" stroke="#000" stroke-width="0.5" opacity="0.9"/>
  <path d="M 350.74028853269766 262.5 L 376.7210506462308 277.5 L 376.7210506462308 307.5 L 350.74028853269766 322.5 L 324.7595264191645 307.5 L 324.7595264191645 277.5 Z" fill="#26d935" stroke="#000" stroke-width="0.5" opacity="0.9"/>
  <path d="M 389.7114317029974 240 L 415.69219381653056 255 L 415.69219381653056 285 L 389.7114317029974 300 L 363.73066958946424 285 L 363.73066958946424 255 Z" fill="#26d98e" stroke="#000" stroke-width="0.5" opacity="0.9"/>
  <path d="M 428.68257487329714 262.5 L 454.6633369868303 277.5 L 454.6633369868303 307.5 L 428.68257487329714 322.5 L 402.701812759764 307.5 L 402.701812759764 277.5 Z" fill="#cad926" stroke="#000" stroke-width="0.5" opacity="0.9"/>
  <path d="M 467.6537180435969 240 L 493.63448015713004 255 L 493.63448015713004 285 L 467.6537180435969 300 L 441.6729559300637 285 L 441.6729559300637 255 Z" fill="#71d926" stroke="#000" stroke-width="0.5" opacity="0.9"/>
  <path d="M 506.6248612138966 262.5 L 532.6056233274297 277.5 L 532.6056233274298 307.5 L 506.6248612138966 322.5 L 480.64409910036346 307.5 L 480.64409910036346 277.5 Z" fill="#26d935" stroke="#000" stroke-width="0.5" opacity="0.9"/>
  <path d="M 545.5960043841964 240 L 571.5767664977295 255 L 571.5767664977295 285 L 545.5960043841964 300 L 519.6152422706632 285 L 519.6152422706632 255 Z" fill="#26d98e" stroke="#000" stroke-width="0.5" opacity="0.9"/>
  <path d="M 584.5671475544962 262.5 L 610.5479096680293 277.5 L 610.5479096680293 307.5 L 584.5671475544962 322.5 L 558.586385440963 307.5 L 558.586385440963 277.5 Z" fill="#cad926" stroke="#000" stroke-width="0.5" opacity="0.9"/>
  <path d="M 623.5382907247958 240 L 649.519052838329 255 L 649.519052838329 285 L 623.5382907247958 300 L 597.5575286112627 285 L 597.5575286112627 255 Z" fill="#71d926" stroke="#000" stroke-width="0.5" opacity="0.9"/>
  <path d="M 662.5094338950955 262.5 L 688.4901960086287 277.5 L 688.4901960086287 307.5 L 662.5094338950955 322.5 L 636.5286717815624 307.5 L 636.5286717815624 277.5 Z" fill="#26d935" stroke="#000" stroke-width="0.5" opacity="0.9"/>
  <path d="M 701.4805770653953 240 L 727.4613391789285 255 L 727.4613391789285 285 L 701.4805770653953 300 L 675.4998149518622 285 L 675.4998149518622 255 Z" fill="#26d98e" stroke="#000" stroke-width="0.5" opacity="0.9"/>
  <path d="M 740.4517202356951 262.5 L 766.4324823492283 277.5 L 766.4324823492283 307.5 L 740.4517202356951 322.5 L 714.470958122162 307.5 L 714.470958122162 277.5 Z" fill="#cad926" stroke="#000" stroke-width="0.5" opacity="0.9"/>
  <path d="M 779.4228634059948 240 L 805.403625519528 255 L 805.403625519528 285 L 779.4228634059948 300 L 753.4421012924616 285 L 753.4421012924616 255 Z" fill="#71d926" stroke="#000" stroke-width="0.5" opacity="0.9"/>
  <path d="M 818.3940065762945 262.5 L 844.3747686898276 277.5 L 844.3747686898276 307.5 L 818.3940065762945 322.5 L 792.4132444627613 307.5 L 792.4132444627613 277.5 Z" fill="#26d935" stroke="#000" stroke-width="0.5" opacity="0.9"/>
  <path d="M 857.3651497465943 240 L 883.3459118601274 255 L 883.3459118601274 285 L 857.3651497465943 300 L 831.3843876330611 285 L 831.3843876330611 255 Z" fill="#26d98e" stroke="#000" stroke-width="0.5" opacity="0.9"/>
  <path d="M -38.97114317029974 262.5 L -12.990381056766584 277.5 L -12.99038105676658 307.5 L -38.97114317029974 322.5 L -64.9519052838329 307.5 L -64.9519052838329 277.5 Z" fill="#cad926" stroke="#000" stroke-width="0.5" opacity="0.9"/>
  <path d="M 1.83697019872103e-15 285 L 25.980762113533157 300 L 25.98076211353316 330 L 1.83697019872103e-15 345 L -25.980762113533153 330 L -25.980762113533157 300 Z" fill="#71d926" stroke="#000" stroke-width="0.5" opacity="0.9"/>
  <path d="M 38.97114317029974 307.5 L 64.9519052838329 322.5 L 64.9519052838329 352.5 L 38.97114317029974 367.5 L 12.990381056766587 352.5 L 12.990381056766584 322.5 Z" fill="#26d935" stroke="#000" stroke-width="0.5" opacity="0.9"/>
  <path d="M 77.94228634059948 285 L 103.92304845413264 300 L 103.92304845413264 330 L 77.94228634059948 345 L 51.96152422706633 330 L 51.96152422706632 300 Z" fill="#26d98e" stroke="#000" stroke-width="0.5" opacity="0.9"/>
  <path d="M 116.91342951089922 307.5 L 142.89419162443238 322.5 L 142.89419162443238 352.5 L 116.91342951089922 367.5 L 90.93266739736606 352.5 L 90.93266739736606 322.5 Z" fill="#cad926" stroke="#000" stroke-width="0.5" opacity="0.9"/>
  <path d="M 155.88457268119896 285 L 181.86533479473212 300 L 181.86533479473212 330 L 155.88457268119896 345 L 129.9038105676658 330 L 129.9038105676658 300 Z" fill="#71d926" stroke="#000" stroke-width="0.5" opacity="0.9"/>
  <path d="M 194.8557158514987 307.5 L 220.83647796503186 322.5 L 220.83647796503186 352.5 L 194.8557158514987 367.5 L 168.87495373796554 352.5 L 168.87495373796554 322.5 Z" fill="#26d935" stroke="#000" stroke-width="0.5" opacity="0.9"/>
  <path d="M 233.82685902179844 285 L 259.8076211353316 300 L 259.8076211353316 330 L 233.82685902179844 345 L 207.84609690826528 330 L 207.84609690826528 300 Z" fill="#26d98e" stroke="#000" stroke-width="0.5" opacity="0.9"/>
  <path d="M 272.7980021920982 307.5 L 298.77876430563134 322.5 L 298.77876430563134 352.5 L 272.7980021920982 367.5 L 246.81724007856502 352.5 L 246.81724007856502 322.5 Z" fill="#cad926" stroke="#000" stroke-width="0.5" opacity="0.9"/>
  <path d="M 311.7691453623979 285 L 337.7499074759311 300 L 337.7499074759311 330 L 311.7691453623979 345 L 285.78838324886476 330 L 285.78838324886476 300 Z" fill="#71d926" stroke="#000" stroke-width="0.5" opacity="0.9"/>
  <path d="M 350.74028853269766 307.5 L 376.7210506462308 322.5 L 376.7210506462308 352.5 L 350.74028853269766 367.5 L 324.7595264191645 352.5 L 324.7595264191645 322.5 Z" fill="#26d935" stroke="#000" stroke-width="0.5" opacity="0.9"/>
  <path d="M 389.7114317029974 285 L 415.69219381653056 300 L 415.69219381653056 330 L 389.7114317029974 345 L 363.73066958946424 330 L 363.73066958946424 300 Z" fill="#26d98e" stroke="#000" stroke-width="0.5" opacity="0.9"/>
  <path d="M 428.68257487329714 307.5 L 454.6633369868303 322.5 L 454.6633369868303 352.5 L 428.68257487329714 367.5 L 402.701812759764 352.5 L 402.701812759764 322.5 Z" fill="#cad926" stroke="#000" stroke-width="0.5" opacity="0.9"/>
  <path d="M 467.6537180435969 285 L 493.63448015713004 300 L 493.63448015713004 330 L 467.6537180435969 345 L 441.6729559300637 330 L 441.6729559300637 300 Z" fill="#71d926" stroke="#000" stroke-width="0.5" opacity="0.9"/>
  <path d="M 506.6248612138966 307.5 L 532.6056233274297 322.5 L 532.6056233274298 352.5 L 506.6248612138966 367.5 L 480.64409910036346 352.5 L 480.64409910036346 322.5 Z" fill="#26d935" stroke="#000" stroke-width="0.5" opacity="0.9"/>
  <path d="M 545.5960043841964 285 L 571.5767664977295 300 L 571.5767664977295 330 L 545.5960043841964 345 L 519.6152422706632 330 L 519.6152422706632 300 Z" fill="#26d98e" stroke="#000" stroke-width="0.5" opacity="0.9"/>
  <path d="M 584.5671475544962 307.5 L 610.5479096680293 322.5 L 610.5479096680293 352.5 L 584.5671475544962 367.5 L 558.586385440963 352.5 L 558.586385440963 322.5 Z" fill="#cad926" stroke="#000" stroke-width="0.5" opacity="0.9"/>
  <path d="M 623.5382907247958 285 L 649.519052838329 300 L 649.519052838329 330 L 623.5382907247958 345 L 597.5575286112627 330 L 597.5575286112627 300 Z" fill="#71d926" stroke="#000" stroke-width="0.5" opacity="0.9"/>
  <path d="M 662.5094338950955 307.5 L 688.4901960086287 322.5 L 688.4901960086287 352.5 L 662.5094338950955 367.5 L 636.5286717815624 352.5 L 636.5286717815624 322.5 Z" fill="#26d935" stroke="#000" stroke-width="0.5" opacity="0.9"/>
  <path d="M 701.4805770653953 285 L 727.4613391789285 300 L 727.4613391789285 330 L 701.4805770653953 345 L 675.4998149518622 330 L 675.4998149518622 300 Z" fill="#26d98e" stroke="#000" stroke-width="0.5" opacity="0.9"/>
  <path d="M 740.4517202356951 307.5 L 766.4324823492283 322.5 L 766.4324823492283 352.5 L 740.4517202356951 367.5 L 714.470958122162 352.5 L 714.470958122162 322.5 Z" fill="#cad926" stroke="#000" stroke-width="0.5" opacity="0.9"/>
  <path d="M 779.4228634059948 285 L 805.403625519528 300 L 805.403625519528 330 L 779.4228634059948 345 L 753.4421012924616 330 L 753.4421012924616 300 Z" fill="#71d926" stroke="#000" stroke-width="0.5" opacity="0.9"/>
  <path d="M 818.3940065762945 307.5 L 844.3747686898276 322.5 L 844.3747686898276 352.5 L 818.3940065762945 367.5 L 792.4132444627613 352.5 L 792.4132444627613 322.5 Z" fill="#26d935" stroke="#000" stroke-width="0.5" opacity="0.9"/>
  <path d="M 857.3651497465943 285 L 883.3459118601274 300 L 883.3459118601274 330 L 857.3651497465943 345 L 831.3843876330611 330 L 831.3843876330611 300 Z" fill="#26d98e" stroke="#000" stroke-width="0.5" opacity="0.9"/>
  <path d="M -38.97114317029974 307.5 L -12.990381056766584 322.5 L -12.99038105676658 352.5 L -38.97114317029974 367.5 L -64.9519052838329 352.5 L -64.9519052838329 322.5 Z" fill="#cad926" stroke="#000" stroke-width="0.5" opacity="0.9"/>
  <path d="M 1.83697019872103e-15 330 L 25.980762113533157 345 L 25.98076211353316 375 L 1.83697019872103e-15 390 L -25.980762113533153 375 L -25.980762113533157 345 Z" fill="#71d926" stroke="#000" stroke-width="0.5" opacity="0.9"/>
  <path d="M 38.97114317029974 352.5 L 64.9519052838329 367.5 L 64.9519052838329 397.5 L 38.97114317029974 412.5 L 12.990381056766587 397.5 L 12.990381056766584 367.5 Z" fill="#26d935" stroke="#000" stroke-width="0.5" opacity="0.9"/>
  <path d="M 77.94228634059948 330 L 103.92304845413264 345 L 103.92304845413264 375 L 77.94228634059948 390 L 51.96152422706633 375 L 51.96152422706632 345 Z" fill="#26d98e" stroke="#000" stroke-width="0.5" opacity="0.9"/>
  <path d="M 116.91342951089922 352.5 L 142.89419162443238 367.5 L 142.89419162443238 397.5 L 116.91342951089922 412.5 L 90.93266739736606 397.5 L 90.93266739736606 367.5 Z" fill="#cad926" stroke="#000" stroke-width="0.5" opacity="0.9"/>
  <path d="M 155.88457268119896 330 L 181.86533479473212 345 L 181.86533479473212 375 L 155.88457268119896 390 L 129.9038105676658 375 L 129.9038105676658 345 Z" fill="#71d926" stroke="#000" stroke-width="0.5" opacity="0.9"/>
  <path d="M 194.8557158514987 352.5 L 220.83647796503186 367.5 L 220.83647796503186 397.5 L 194.8557158514987 412.5 L 168.87495373796554 397.5 L 168.87495373796554 367.5 Z" fill="#26d935" stroke="#000" stroke-width="0.5" opacity="0.9"/>
  <path d="M 233.82685902179844 330 L 259.8076211353316 345 L 259.8076211353316 375 L 233.82685902179844 390 L 207.84609690826528 375 L 207.84609690826528 345 Z" fill="#26d98e" stroke="#000" stroke-width="0.5" opacity="0.9"/>
  <path d="M 272.7980021920982 352.5 L 298.77876430563134 367.5 L 298.77876430563134 397.5 L 272.7980021920982 412.5 L 246.81724007856502 397.5 L 246.81724007856502 367.5 Z" fill="#cad926" stroke="#000" stroke-width="0.5" opacity="0.9"/>
  <path d="M 311.7691453623979 330 L 337.7499074759311 345 L 337.7499074759311 375 L 311.7691453623979 390 L 285.78838324886476 375 L 285.78838324886476 345 Z" fill="#71d926" stroke="#000" stroke-width="0.5" opacity="0.9"/>
  <path d="M 350.74028853269766 352.5 L 376.7210506462308 367.5 L 376.7210506462308 397.5 L 350.74028853269766 412.5 L 324.7595264191645 397.5 L 324.7595264191645 367.5 Z" fill="#26d935" stroke="#000" stroke-width="0.5" opacity="0.9"/>
  <path d="M 389.7114317029974 330 L 415.69219381653056 345 L 415.69219381653056 375 L 389.7114317029974 390 L 363.73066958946424 375 L 363.73066958946424 345 Z" fill="#26d98e" stroke="#000" stroke-width="0.5" opacity="0.9"/>
  <path d="M 428.68257487329714 352.5 L 454.6633369868303 367.5 L 454.6633369868303 397.5 L 428.68257487329714 412.5 L 402.701812759764 397.5 L 402.701812759764 367.5 Z" fill="#cad926" stroke="#000" stroke-width="0.5" opacity="0.9"/>
  <path d="M 467.6537180435969 330 L 493.63448015713004 345 L 493.63448015713004 375 L 467.6537180435969 390 L 441.6729559300637 375 L 441.6729559300637 345 Z" fill="#71d926" stroke="#000" stroke-width="0.5" opacity="0.9"/>
  <path d="M 506.6248612138966 352.5 L 532.6056233274297 367.5 L 532.6056233274298 397.5 L 506.6248612138966 412.5 L 480.64409910036346 397.5 L 480.64409910036346 367.5 Z" fill="#26d935" stroke="#000" stroke-width="0.5" opacity="0.9"/>
  <path d="M 545.5960043841964 330 L 571.5767664977295 345 L 571.5767664977295 375 L 545.5960043841964 390 L 519.6152422706632 375 L 519.6152422706632 345 Z" fill="#26d98e" stroke="#000" stroke-width="0.5" opacity="0.9"/>
  <path d="M 584.5671475544962 352.5 L 610.5479096680293 367.5 L 610.5479096680293 397.5 L 584.5671475544962 412.5 L 558.586385440963 397.5 L 558.586385440963 367.5 Z" fill="#cad926" stroke="#000" stroke-width="0.5" opacity="0.9"/>
  <path d="M 623.5382907247958 330 L 649.519052838329 345 L 649.519052838329 375 L 623.5382907247958 390 L 597.5575286112627 375 L 597.5575286112627 345 Z" fill="#71d926" stroke="#000" stroke-width="0.5" opacity="0.9"/>
  <path d="M 662.5094338950955 352.5 L 688.4901960086287 367.5 L 688.4901960086287 397.5 L 662.5094338950955 412.5 L 636.5286717815624 397.5 L 636.5286717815624 367.5 Z" fill="#26d935" stroke="#000" stroke-width="0.5" opacity="0.9"/>
  <path d="M 701.4805770653953 330 L 727.4613391789285 345 L 727.4613391789285 375 L 701.4805770653953 390 L 675.4998149518622 375 L 675.4998149518622 345 Z" fill="#26d98e" stroke="#000" stroke-width="0.5" opacity="0.9"/>
  <path d="M 740.4517202356951 352.5 L 766.4324823492283 367.5 L 766.4324823492283 397.5 L 740.4517202356951 412.5 L 714.470958122162 397.5 L 714.470958122162 367.5 Z" fill="#cad926" stroke="#000" stroke-width="0.5" opacity="0.9"/>
  <path d="M 779.4228634059948 330 L 805.403625519528 345 L 805.403625519528 375 L 779.4228634059948 390 L 753.4421012924616 375 L 753.4421012924616 345 Z" fill="#71d926" stroke="#000" stroke-width="0.5" opacity="0.9"/>
  <path d="M 818.3940065762945 352.5 L 844.3747686898276 367.5 L 844.3747686898276 397.5 L 818.3940065762945 412.5 L 792.4132444627613 397.5 L 792.4132444627613 367.5 Z" fill="#26d935" stroke="#000" stroke-width="0.5" opacity="0.9"/>
  <path d="M 857.3651497465943 330 L 883.3459118601274 345 L 883.3459118601274 375 L 857.3651497465943 390 L 831.3843876330611 375 L 831.3843876330611 345 Z" fill="#26d98e" stroke="#000" stroke-width="0.5" opacity="0.9"/>
  <path d="M -38.97114317029974 352.5 L -12.990381056766584 367.5 L -12.99038105676658 397.5 L -38.97114317029974 412.5 L -64.9519052838329 397.5 L -64.9519052838329 367.5 Z" fill="#cad926" stroke="#000" stroke-width="0.5" opacity="0.9"/>
  <path d="M 1.83697019872103e-15 375 L 25.980762113533157 390 L 25.98076211353316 420 L 1.83697019872103e-15 435 L -25.980762113533153 420 L -25.980762113533157 390 Z" fill="#71d926" stroke="#000" stroke-width="0.5" opacity="0.9"/>
  <path d="M 38.97114317029974 397.5 L 64.9519052838329 412.5 L 64.9519052838329 442.5 L 38.97114317029974 457.5 L 12.990381056766587 442.5 L 12.990381056766584 412.5 Z" fill="#26d935" stroke="#000" stroke-width="0.5" opacity="0.9"/>
  <path d="M 77.94228634059948 375 L 103.92304845413264 390 L 103.92304845413264 420 L 77.94228634059948 435 L 51.96152422706633 420 L 51.96152422706632 390 Z" fill="#26d98e" stroke="#000" stroke-width="0.5" opacity="0.9"/>
  <path d="M 116.91342951089922 397.5 L 142.89419162443238 412.5 L 142.89419162443238 442.5 L 116.91342951089922 457.5 L 90.93266739736606 442.5 L 90.93266739736606 412.5 Z" fill="#cad926" stroke="#000" stroke-width="0.5" opacity="0.9"/>
  <path d="M 155.88457268119896 375 L 181.86533479473212 390 L 181.86533479473212 420 L 155.88457268119896 435 L 129.9038105676658 420 L 129.9038105676658 390 Z" fill="#71d926" stroke="#000" stroke-width="0.5" opacity="0.9"/>
  <path d="M 194.8557158514987 397.5 L 220.83647796503186 412.5 L 220.83647796503186 442.5 L 194.8557158514987 457.5 L 168.87495373796554 442.5 L 168.87495373796554 412.5 Z" fill="#26d935" stroke="#000" stroke-width="0.5" opacity="0.9"/>
  <path d="M 233.82685902179844 375 L 259.8076211353316 390 L 259.8076211353316 420 L 233.82685902179844 435 L 207.84609690826528 420 L 207.84609690826528 390 Z" fill="#26d98e" stroke="#000" stroke-width="0.5" opacity="0.9"/>
  <path d="M 272.7980021920982 397.5 L 298.77876430563134 412.5 L 298.77876430563134 442.5 L 272.7980021920982 457.5 L 246.81724007856502 442.5 L 246.81724007856502 412.5 Z" fill="#cad926" stroke="#000" stroke-width="0.5" opacity="0.9"/>
  <path d="M 311.7691453623979 375 L 337.7499074759311 390 L 337.7499074759311 420 L 311.7691453623979 435 L 285.78838324886476 420 L 285.78838324886476 390 Z" fill="#71d926" stroke="#000" stroke-width="0.5" opacity="0.9"/>
  <path d="M 350.74028853269766 397.5 L 376.7210506462308 412.5 L 376.7210506462308 442.5 L 350.74028853269766 457.5 L 324.7595264191645 442.5 L 324.7595264191645 412.5 Z" fill="#26d935" stroke="#000" stroke-width="0.5" opacity="0.9"/>
  <path d="M 389.7114317029974 375 L 415.69219381653056 390 L 415.69219381653056 420 L 389.7114317029974 435 L 363.73066958946424 420 L 363.73066958946424 390 Z" fill="#26d98e" stroke="#000" stroke-width="0.5" opacity="0.9"/>
  <path d="M 428.68257487329714 397.5 L 454.6633369868303 412.5 L 454.6633369868303 442.5 L 428.68257487329714 457.5 L 402.701812759764 442.5 L 402.701812759764 412.5 Z" fill="#cad926" stroke="#000" stroke-width="0.5" opacity="0.9"/>
  <path d="M 467.6537180435969 375 L 493.63448015713004 390 L 493.63448015713004 420 L 467.6537180435969 435 L 441.6729559300637 420 L 441.6729559300637 390 Z" fill="#71d926" stroke="#000" stroke-width="0.5" opacity="0.9"/>
  <path d="M 506.6248612138966 397.5 L 532.6056233274297 412.5 L 532.6056233274298 442.5 L 506.6248612138966 457.5 L 480.64409910036346 442.5 L 480.64409910036346 412.5 Z" fill="#26d935" stroke="#000" stroke-width="0.5" opacity="0.9"/>
  <path d="M 545.5960043841964 375 L 571.5767664977295 390 L 571.5767664977295 420 L 545.5960043841964 435 L 519.6152422706632 420 L 519.6152422706632 390 Z" fill="#26d98e" stroke="#000" stroke-width="0.5" opacity="0.9"/>
  <path d="M 584.5671475544962 397.5 L 610.5479096680293 412.5 L 610.5479096680293 442.5 L 584.5671475544962 457.5 L 558.586385440963 442.5 L 558.586385440963 412.5 Z" fill="#cad926" stroke="#000" stroke-width="0.5" opacity="0.9"/>
  <path d="M 623.5382907247958 375 L 649.519052838329 390 L 649.519052838329 420 L 623.5382907247958 435 L 597.5575286112627 420 L 597.5575286112627 390 Z" fill="#71d926" stroke="#000" stroke-width="0.5" opacity="0.9"/>
  <path d="M 662.5094338950955 397.5 L 688.4901960086287 412.5 L 688.4901960086287 442.5 L 662.5094338950955 457.5 L 636.5286717815624 442.5 L 636.5286717815624 412.5 Z" fill="#26d935" stroke="#000" stroke-width="0.5" opacity="0.9"/>
  <path d="M 701.4805770653953 375 L 727.4613391789285 390 L 727.4613391789285 420 L 701.4805770653953 435 L 675.4998149518622 420 L 675.4998149518622 390 Z" fill="#26d98e" stroke="#000" stroke-width="0.5" opacity="0.9"/>
  <path d="M 740.4517202356951 397.5 L 766.4324823492283 412.5 L 766.4324823492283 442.5 L 740.4517202356951 457.5 L 714.470958122162 442.5 L 714.470958122162 412.5 Z" fill="#cad926" stroke="#000" stroke-width="0.5" opacity="0.9"/>
  <path d="M 779.4228634059948 375 L 805.403625519528 390 L 805.403625519528 420 L 779.4228634059948 435 L 753.4421012924616 420 L 753.4421012924616 390 Z" fill="#71d926" stroke="#000" stroke-width="0.5" opacity="0.9"/>
  <path d="M 818.3940065762945 397.5 L 844.3747686898276 412.5 L 844.3747686898276 442.5 L 818.3940065762945 457.5 L 792.4132444627613 442.5 L 792.4132444627613 412.5 Z" fill="#26d935" stroke="#000" stroke-width="0.5" opacity="0.9"/>
  <path d="M 857.3651497465943 375 L 883.3459118601274 390 L 883.3459118601274 420 L 857.3651497465943 435 L 831.3843876330611 420 L 831.3843876330611 390 Z" fill="#26d98e" stroke="#000" stroke-width="0.5" opacity="0.9"/>
  <path d="M -38.97114317029974 397.5 L -12.990381056766584 412.5 L -12.99038105676658 442.5 L -38.97114317029974 457.5 L -64.9519052838329 442.5 L -64.9519052838329 412.5 Z" fill="#cad926" stroke="#000" stroke-width="0.5" opacity="0.9"/>
  <path d="M 1.83697019872103e-15 420 L 25.980762113533157 435 L 25.98076211353316 465 L 1.83697019872103e-15 480 L -25.980762113533153 465 L -25.980762113533157 435 Z" fill="#71d926" stroke="#000" stroke-width="0.5" opacity="0.9"/>
  <path d="M 38.97114317029974 442.5 L 64.9519052838329 457.5 L 64.9519052838329 487.5 L 38.97114317029974 502.5 L 12.990381056766587 487.5 L 12.990381056766584 457.5 Z" fill="#26d935" stroke="#000" stroke-width="0.5" opacity="0.9"/>
  <path d="M 77.94228634059948 420 L 103.92304845413264 435 L 103.92304845413264 465 L 77.94228634059948 480 L 51.96152422706633 465 L 51.96152422706632 435 Z" fill="#26d98e" stroke="#000" stroke-width="0.5" opacity="0.9"/>
  <path d="M 116.91342951089922 442.5 L 142.89419162443238 457.5 L 142.89419162443238 487.5 L 116.91342951089922 502.5 L 90.93266739736606 487.5 L 90.93266739736606 457.5 Z" fill="#cad926" stroke="#000" stroke-width="0.5" opacity="0.9"/>
  <path d="M 155.88457268119896 420 L 181.86533479473212 435 L 181.86533479473212 465 L 155.88457268119896 480 L 129.9038105676658 465 L 129.9038105676658 435 Z" fill="#71d926" stroke="#000" stroke-width="0.5" opacity="0.9"/>
  <path d="M 194.8557158514987 442.5 L 220.83647796503186 457.5 L 220.83647796503186 487.5 L 194.8557158514987 502.5 L 168.87495373796554 487.5 L 168.87495373796554 457.5 Z" fill="#26d935" stroke="#000" stroke-width="0.5" opacity="0.9"/>
  <path d="M 233.82685902179844 420 L 259.8076211353316 435 L 259.8076211353316 465 L 233.82685902179844 480 L 207.84609690826528 465 L 207.84609690826528 435 Z" fill="#26d98e" stroke="#000" stroke-width="0.5" opacity="0.9"/>
  <path d="M 272.7980021920982 442.5 L 298.77876430563134 457.5 L 298.77876430563134 487.5 L 272.7980021920982 502.5 L 246.81724007856502 487.5 L 246.81724007856502 457.5 Z" fill="#cad926" stroke="#000" stroke-width="0.5" opacity="0.9"/>
  <path d="M 311.7691453623979 420 L 337.7499074759311 435 L 337.7499074759311 465 L 311.7691453623979 480 L 285.78838324886476 465 L 285.78838324886476 435 Z" fill="#71d926" stroke="#000" stroke-width="0.5" opacity="0.9"/>
  <path d="M 350.74028853269766 442.5 L 376.7210506462308 457.5 L 376.7210506462308 487.5 L 350.74028853269766 502.5 L 324.7595264191645 487.5 L 324.7595264191645 457.5 Z" fill="#26d935" stroke="#000" stroke-width="0.5" opacity="0.9"/>
  <path d="M 389.7114317029974 420 L 415.69219381653056 435 L 415.69219381653056 465 L 389.7114317029974 480 L 363.73066958946424 465 L 363.73066958946424 435 Z" fill="#26d98e" stroke="#000" stroke-width="0.5" opacity="0.9"/>
  <path d="M 428.68257487329714 442.5 L 454.6633369868303 457.5 L 454.6633369868303 487.5 L 428.68257487329714 502.5 L 402.701812759764 487.5 L 402.701812759764 457.5 Z" fill="#cad926" stroke="#000" stroke-width="0.5" opacity="0.9"/>
  <path d="M 467.6537180435969 420 L 493.63448015713004 435 L 493.63448015713004 465 L 467.6537180435969 480 L 441.6729559300637 465 L 441.6729559300637 435 Z" fill="#71d926" stroke="#000" stroke-width="0.5" opacity="0.9"/>
  <path d="M 506.6248612138966 442.5 L 532.6056233274297 457.5 L 532.6056233274298 487.5 L 506.6248612138966 502.5 L 480.64409910036346 487.5 L 480.64409910036346 457.5 Z" fill="#26d935" stroke="#000" stroke-width="0.5" opacity="0.9"/>
  <path d="M 545.5960043841964 420 L 571.5767664977295 435 L 571.5767664977295 465 L 545.5960043841964 480 L 519.6152422706632 465 L 519.6152422706632 435 Z" fill="#26d98e" stroke="#000" stroke-width="0.5" opacity="0.9"/>
  <path d="M 584.5671475544962 442.5 L 610.5479096680293 457.5 L 610.5479096680293 487.5 L 584.5671475544962 502.5 L 558.586385440963 487.5 L 558.586385440963 457.5 Z" fill="#cad926" stroke="#000" stroke-width="0.5" opacity="0.9"/>
  <path d="M 623.5382907247958 420 L 649.519052838329 435 L 649.519052838329 465 L 623.5382907247958 480 L 597.5575286112627 465 L 597.5575286112627 435 Z" fill="#71d926" stroke="#000" stroke-width="0.5" opacity="0.9"/>
  <path d="M 662.5094338950955 442.5 L 688.4901960086287 457.5 L 688.4901960086287 487.5 L 662.5094338950955 502.5 L 636.5286717815624 487.5 L 636.5286717815624 457.5 Z" fill="#26d935" stroke="#000" stroke-width="0.5" opacity="0.9"/>
  <path d="M 701.4805770653953 420 L 727.4613391789285 435 L 727.4613391789285 465 L 701.4805770653953 480 L 675.4998149518622 465 L 675.4998149518622 435 Z" fill="#26d98e" stroke="#000" stroke-width="0.5" opacity="0.9"/>
  <path d="M 740.4517202356951 442.5 L 766.4324823492283 457.5 L 766.4324823492283 487.5 L 740.4517202356951 502.5 L 714.470958122162 487.5 L 714.470958122162 457.5 Z" fill="#cad926" stroke="#000" stroke-width="0.5" opacity="0.9"/>
  <path d="M 779.4228634059948 420 L 805.403625519528 435 L 805.403625519528 465 L 779.4228634059948 480 L 753.4421012924616 465 L 753.4421012924616 435 Z" fill="#71d926" stroke="#000" stroke-width="0.5" opacity="0.9"/>
  <path d="M 818.3940065762945 442.5 L 844.3747686898276 457.5 L 844.3747686898276 487.5 L 818.3940065762945 502.5 L 792.4132444627613 487.5 L 792.4132444627613 457.5 Z" fill="#26d935" stroke="#000" stroke-width="0.5" opacity="0.9"/>
  <path d="M 857.3651497465943 420 L 883.3459118601274 435 L 883.3459118601274 465 L 857.3651497465943 480 L 831.3843876330611 465 L 831.3843876330611 435 Z" fill="#26d98e" stroke="#000" stroke-width="0.5" opacity="0.9"/>
  <path d="M -38.97114317029974 442.5 L -12.990381056766584 457.5 L -12.99038105676658 487.5 L -38.97114317029974 502.5 L -64.9519052838329 487.5 L -64.9519052838329 457.5 Z" fill="#cad926" stroke="#000" stroke-width="0.5" opacity="0.9"/>
  <path d="M 1.83697019872103e-15 465 L 25.980762113533157 480 L 25.98076211353316 510 L 1.83697019872103e-15 525 L -25.980762113533153 510 L -25.980762113533157 480 Z" fill="#71d926" stroke="#000" stroke-width="0.5" opacity="0.9"/>
  <path d="M 38.97114317029974 487.5 L 64.9519052838329 502.5 L 64.9519052838329 532.5 L 38.97114317029974 547.5 L 12.990381056766587 532.5 L 12.990381056766584 502.5 Z" fill="#26d935" stroke="#000" stroke-width="0.5" opacity="0.9"/>
  <path d="M 77.94228634059948 465 L 103.92304845413264 480 L 103.92304845413264 510 L 77.94228634059948 525 L 51.96152422706633 510 L 51.96152422706632 480 Z" fill="#26d98e" stroke="#000" stroke-width="0.5" opacity="0.9"/>
  <path d="M 116.91342951089922 487.5 L 142.89419162443238 502.5 L 142.89419162443238 532.5 L 116.91342951089922 547.5 L 90.93266739736606 532.5 L 90.93266739736606 502.5 Z" fill="#cad926" stroke="#000" stroke-width="0.5" opacity="0.9"/>
  <path d="M 155.88457268119896 465 L 181.86533479473212 480 L 181.86533479473212 510 L 155.88457268119896 525 L 129.9038105676658 510 L 129.9038105676658 480 Z" fill="#71d926" stroke="#000" stroke-width="0.5" opacity="0.9"/>
  <path d="M 194.8557158514987 487.5 L 220.83647796503186 502.5 L 220.83647796503186 532.5 L 194.8557158514987 547.5 L 168.87495373796554 532.5 L 168.87495373796554 502.5 Z" fill="#26d935" stroke="#000" stroke-width="0.5" opacity="0.9"/>
  <path d="M 233.82685902179844 465 L 259.8076211353316 480 L 259.8076211353316 510 L 233.82685902179844 525 L 207.84609690826528 510 L 207.84609690826528 480 Z" fill="#26d98e" stroke="#000" stroke-width="0.5" opacity="0.9"/>
  <path d="M 272.7980021920982 487.5 L 298.77876430563134 502.5 L 298.77876430563134 532.5 L 272.7980021920982 547.5 L 246.81724007856502 532.5 L 246.81724007856502 502.5 Z" fill="#cad926" stroke="#000" stroke-width="0.5" opacity="0.9"/>
  <path d="M 311.7691453623979 465 L 337.7499074759311 480 L 337.7499074759311 510 L 311.7691453623979 525 L 285.78838324886476 510 L 285.78838324886476 480 Z" fill="#71d926" stroke="#000" stroke-width="0.5" opacity="0.9"/>
  <path d="M 350.74028853269766 487.5 L 376.7210506462308 502.5 L 376.7210506462308 532.5 L 350.74028853269766 547.5 L 324.7595264191645 532.5 L 324.7595264191645 502.5 Z" fill="#26d935" stroke="#000" stroke-width="0.5" opacity="0.9"/>
  <path d="M 389.7114317029974 465 L 415.69219381653056 480 L 415.69219381653056 510 L 389.7114317029974 525 L 363.73066958946424 510 L 363.73066958946424 480 Z" fill="#26d98e" stroke="#000" stroke-width="0.5" opacity="0.9"/>
  <path d="M 428.68257487329714 487.5 L 454.6633369868303 502.5 L 454.6633369868303 532.5 L 428.68257487329714 547.5 L 402.701812759764 532.5 L 402.701812759764 502.5 Z" fill="#cad926" stroke="#000" stroke-width="0.5" opacity="0.9"/>
  <path d="M 467.6537180435969 465 L 493.63448015713004 480 L 493.63448015713004 510 L 467.6537180435969 525 L 441.6729559300637 510 L 441.6729559300637 480 Z" fill="#71d926" stroke="#000" stroke-width="0.5" opacity="0.9"/>
  <path d="M 506.6248612138966 487.5 L 532.6056233274297 502.5 L 532.6056233274298 532.5 L 506.6248612138966 547.5 L 480.64409910036346 532.5 L 480.64409910036346 502.5 Z" fill="#26d935" stroke="#000" stroke-width="0.5" opacity="0.9"/>
  <path d="M 545.5960043841964 465 L 571.5767664977295 480 L 571.5767664977295 510 L 545.5960043841964 525 L 519.6152422706632 510 L 519.6152422706632 480 Z" fill="#26d98e" stroke="#000" stroke-width="0.5" opacity="0.9"/>
  <path d="M 584.5671475544962 487.5 L 610.5479096680293 502.5 L 610.5479096680293 532.5 L 584.5671475544962 547.5 L 558.586385440963 532.5 L 558.586385440963 502.5 Z" fill="#cad926" stroke="#000" stroke-width="0.5" opacity="0.9"/>
  <path d="M 623.5382907247958 465 L 649.519052838329 480 L 649.519052838329 510 L 623.5382907247958 525 L 597.5575286112627 510 L 597.5575286112627 480 Z" fill="#71d926" stroke="#000" stroke-width="0.5" opacity="0.9"/>
  <path d="M 662.5094338950955 487.5 L 688.4901960086287 502.5 L 688.4901960086287 532.5 L 662.5094338950955 547.5 L 636.5286717815624 532.5 L 636.5286717815624 502.5 Z" fill="#26d935" stroke="#000" stroke-width="0.5" opacity="0.9"/>
  <path d="M 701.4805770653953 465 L 727.4613391789285 480 L 727.4613391789285 510 L 701.4805770653953 525 L 675.4998149518622 510 L 675.4998149518622 480 Z" fill="#26d98e" stroke="#000" stroke-width="0.5" opacity="0.9"/>
  <path d="M 740.4517202356951 487.5 L 766.4324823492283 502.5 L 766.4324823492283 532.5 L 740.4517202356951 547.5 L 714.470958122162 532.5 L 714.470958122162 502.5 Z" fill="#cad926" stroke="#000" stroke-width="0.5" opacity="0.9"/>
  <path d="M 779.4228634059948 465 L 805.403625519528 480 L 805.403625519528 510 L 779.4228634059948 525 L 753.4421012924616 510 L 753.4421012924616 480 Z" fill="#71d926" stroke="#000" stroke-width="0.5" opacity="0.9"/>
  <path d="M 818.3940065762945 487.5 L 844.3747686898276 502.5 L 844.3747686898276 532.5 L 818.3940065762945 547.5 L 792.4132444627613 532.5 L 792.4132444627613 502.5 Z" fill="#26d935" stroke="#000" stroke-width="0.5" opacity="0.9"/>
  <path d="M 857.3651497465943 465 L 883.3459118601274 480 L 883.3459118601274 510 L 857.3651497465943 525 L 831.3843876330611 510 L 831.3843876330611 480 Z" fill="#26d98e" stroke="#000" stroke-width="0.5" opacity="0.9"/>
  <path d="M -38.97114317029974 487.5 L -12.990381056766584 502.5 L -12.99038105676658 532.5 L -38.97114317029974 547.5 L -64.9519052838329 532.5 L -64.9519052838329 502.5 Z" fill="#cad926" stroke="#000" stroke-width="0.5" opacity="0.9"/>
  <path d="M 1.83697019872103e-15 510 L 25.980762113533157 525 L 25.98076211353316 555 L 1.83697019872103e-15 570 L -25.980762113533153 555 L -25.980762113533157 525 Z" fill="#71d926" stroke="#000" stroke-width="0.5" opacity="0.9"/>
  <path d="M 38.97114317029974 532.5 L 64.9519052838329 547.5 L 64.9519052838329 577.5 L 38.97114317029974 592.5 L 12.990381056766587 577.5 L 12.990381056766584 547.5 Z" fill="#26d935" stroke="#000" stroke-width="0.5" opacity="0.9"/>
  <path d="M 77.94228634059948 510 L 103.92304845413264 525 L 103.92304845413264 555 L 77.94228634059948 570 L 51.96152422706633 555 L 51.96152422706632 525 Z" fill="#26d98e" stroke="#000" stroke-width="0.5" opacity="0.9"/>
  <path d="M 116.91342951089922 532.5 L 142.89419162443238 547.5 L 142.89419162443238 577.5 L 116.91342951089922 592.5 L 90.93266739736606 577.5 L 90.93266739736606 547.5 Z" fill="#cad926" stroke="#000" stroke-width="0.5" opacity="0.9"/>
  <path d="M 155.88457268119896 510 L 181.86533479473212 525 L 181.86533479473212 555 L 155.88457268119896 570 L 129.9038105676658 555 L 129.9038105676658 525 Z" fill="#71d926" stroke="#000" stroke-width="0.5" opacity="0.9"/>
  <path d="M 194.8557158514987 532.5 L 220.83647796503186 547.5 L 220.83647796503186 577.5 L 194.8557158514987 592.5 L 168.87495373796554 577.5 L 168.87495373796554 547.5 Z" fill="#26d935" stroke="#000" stroke-width="0.5" opacity="0.9"/>
  <path d="M 233.82685902179844 510 L 259.8076211353316 525 L 259.8076211353316 555 L 233.82685902179844 570 L 207.84609690826528 555 L 207.84609690826528 525 Z" fill="#26d98e" stroke="#000" stroke-width="0.5" opacity="0.9"/>
  <path d="M 272.7980021920982 532.5 L 298.77876430563134 547.5 L 298.77876430563134 577.5 L 272.7980021920982 592.5 L 246.81724007856502 577.5 L 246.81724007856502 547.5 Z" fill="#cad926" stroke="#000" stroke-width="0.5" opacity="0.9"/>
  <path d="M 311.7691453623979 510 L 337.7499074759311 525 L 337.7499074759311 555 L 311.7691453623979 570 L 285.78838324886476 555 L 285.78838324886476 525 Z" fill="#71d926" stroke="#000" stroke-width="0.5" opacity="0.9"/>
  <path d="M 350.74028853269766 532.5 L 376.7210506462308 547.5 L 376.7210506462308 577.5 L 350.74028853269766 592.5 L 324.7595264191645 577.5 L 324.7595264191645 547.5 Z" fill="#26d935" stroke="#000" stroke-width="0.5" opacity="0.9"/>
  <path d="M 389.7114317029974 510 L 415.69219381653056 525 L 415.69219381653056 555 L 389.7114317029974 570 L 363.73066958946424 555 L 363.73066958946424 525 Z" fill="#26d98e" stroke="#000" stroke-width="0.5" opacity="0.9"/>
  <path d="M 428.68257487329714 532.5 L 454.6633369868303 547.5 L 454.6633369868303 577.5 L 428.68257487329714 592.5 L 402.701812759764 577.5 L 402.701812759764 547.5 Z" fill="#cad926" stroke="#000" stroke-width="0.5" opacity="0.9"/>
  <path d="M 467.6537180435969 510 L 493.63448015713004 525 L 493.63448015713004 555 L 467.6537180435969 570 L 441.6729559300637 555 L 441.6729559300637 525 Z" fill="#71d926" stroke="#000" stroke-width="0.5" opacity="0.9"/>
  <path d="M 506.6248612138966 532.5 L 532.6056233274297 547.5 L 532.6056233274298 577.5 L 506.6248612138966 592.5 L 480.64409910036346 577.5 L 480.64409910036346 547.5 Z" fill="#26d935" stroke="#000" stroke-width="0.5" opacity="0.9"/>
  <path d="M 545.5960043841964 510 L 571.5767664977295 525 L 571.5767664977295 555 L 545.5960043841964 570 L 519.6152422706632 555 L 519.6152422706632 525 Z" fill="#26d98e" stroke="#000" stroke-width="0.5" opacity="0.9"/>
  <path d="M 584.5671475544962 532.5 L 610.5479096680293 547.5 L 610.5479096680293 577.5 L 584.5671475544962 592.5 L 558.586385440963 577.5 L 558.586385440963 547.5 Z" fill="#cad926" stroke="#000" stroke-width="0.5" opacity="0.9"/>
  <path d="M 623.5382907247958 510 L 649.519052838329 525 L 649.519052838329 555 L 623.5382907247958 570 L 597.5575286112627 555 L 597.5575286112627 525 Z" fill="#71d926" stroke="#000" stroke-width="0.5" opacity="0.9"/>
  <path d="M 662.5094338950955 532.5 L 688.4901960086287 547.5 L 688.4901960086287 577.5 L 662.5094338950955 592.5 L 636.5286717815624 577.5 L 636.5286717815624 547.5 Z" fill="#26d935" stroke="#000" stroke-width="0.5" opacity="0.9"/>
  <path d="M 701.4805770653953 510 L 727.4613391789285 525 L 727.4613391789285 555 L 701.4805770653953 570 L 675.4998149518622 555 L 675.4998149518622 525 Z" fill="#26d98e" stroke="#000" stroke-width="0.5" opacity="0.9"/>
  <path d="M 740.4517202356951 532.5 L 766.4324823492283 547.5 L 766.4324823492283 577.5 L 740.4517202356951 592.5 L 714.470958122162 577.5 L 714.470958122162 547.5 Z" fill="#cad926" stroke="#000" stroke-width="0.5" opacity="0.9"/>
  <path d="M 779.4228634059948 510 L 805.403625519528 525 L 805.403625519528 555 L 779.4228634059948 570 L 753.4421012924616 555 L 753.4421012924616 525 Z" fill="#71d926" stroke="#000" stroke-width="0.5" opacity="0.9"/>
  <path d="M 818.3940065762945 532.5 L 844.3747686898276 547.5 L 844.3747686898276 577.5 L 818.3940065762945 592.5 L 792.4132444627613 577.5 L 792.4132444627613 547.5 Z" fill="#26d935" stroke="#000" stroke-width="0.5" opacity="0.9"/>
  <path d="M 857.3651497465943 510 L 883.3459118601274 525 L 883.3459118601274 555 L 857.3651497465943 570 L 831.3843876330611 555 L 831.3843876330611 525 Z" fill="#26d98e" stroke="#000" stroke-width="0.5" opacity="0.9"/>
  <path d="M -38.97114317029974 532.5 L -12.990381056766584 547.5 L -12.99038105676658 577.5 L -38.97114317029974 592.5 L -64.9519052838329 577.5 L -64.9519052838329 547.5 Z" fill="#cad926" stroke="#000" stroke-width="0.5" opacity="0.9"/>
  <path d="M 1.83697019872103e-15 555 L 25.980762113533157 570 L 25.98076211353316 600 L 1.83697019872103e-15 615 L -25.980762113533153 600 L -25.980762113533157 570 Z" fill="#71d926" stroke="#000" stroke-width="0.5" opacity="0.9"/>
  <path d="M 38.97114317029974 577.5 L 64.9519052838329 592.5 L 64.9519052838329 622.5 L 38.97114317029974 637.5 L 12.990381056766587 622.5 L 12.990381056766584 592.5 Z" fill="#26d935" stroke="#000" stroke-width="0.5" opacity="0.9"/>
  <path d="M 77.94228634059948 555 L 103.92304845413264 570 L 103.92304845413264 600 L 77.94228634059948 615 L 51.96152422706633 600 L 51.96152422706632 570 Z" fill="#26d98e" stroke="#000" stroke-width="0.5" opacity="0.9"/>
  <path d="M 116.91342951089922 577.5 L 142.89419162443238 592.5 L 142.89419162443238 622.5 L 116.91342951089922 637.5 L 90.93266739736606 622.5 L 90.93266739736606 592.5 Z" fill="#cad926" stroke="#000" stroke-width="0.5" opacity="0.9"/>
  <path d="M 155.88457268119896 555 L 181.86533479473212 570 L 181.86533479473212 600 L 155.88457268119896 615 L 129.9038105676658 600 L 129.9038105676658 570 Z" fill="#71d926" stroke="#000" stroke-width="0.5" opacity="0.9"/>
  <path d="M 194.8557158514987 577.5 L 220.83647796503186 592.5 L 220.83647796503186 622.5 L 194.8557158514987 637.5 L 168.87495373796554 622.5 L 168.87495373796554 592.5 Z" fill="#26d935" stroke="#000" stroke-width="0.5" opacity="0.9"/>
  <path d="M 233.82685902179844 555 L 259.8076211353316 570 L 259.8076211353316 600 L 233.82685902179844 615 L 207.84609690826528 600 L 207.84609690826528 570 Z" fill="#26d98e" stroke="#000" stroke-width="0.5" opacity="0.9"/>
  <path d="M 272.7980021920982 577.5 L 298.77876430563134 592.5 L 298.77876430563134 622.5 L 272.7980021920982 637.5 L 246.81724007856502 622.5 L 246.81724007856502 592.5 Z" fill="#cad926" stroke="#000" stroke-width="0.5" opacity="0.9"/>
  <path d="M 311.7691453623979 555 L 337.7499074759311 570 L 337.7499074759311 600 L 311.7691453623979 615 L 285.78838324886476 600 L 285.78838324886476 570 Z" fill="#71d926" stroke="#000" stroke-width="0.5" opacity="0.9"/>
  <path d="M 350.74028853269766 577.5 L 376.7210506462308 592.5 L 376.7210506462308 622.5 L 350.74028853269766 637.5 L 324.7595264191645 622.5 L 324.7595264191645 592.5 Z" fill="#26d935" stroke="#000" stroke-width="0.5" opacity="0.9"/>
  <path d="M 389.7114317029974 555 L 415.69219381653056 570 L 415.69219381653056 600 L 389.7114317029974 615 L 363.73066958946424 600 L 363.73066958946424 570 Z" fill="#26d98e" stroke="#000" stroke-width="0.5" opacity="0.9"/>
  <path d="M 428.68257487329714 577.5 L 454.6633369868303 592.5 L 454.6633369868303 622.5 L 428.68257487329714 637.5 L 402.701812759764 622.5 L 402.701812759764 592.5 Z" fill="#cad926" stroke="#000" stroke-width="0.5" opacity="0.9"/>
  <path d="M 467.6537180435969 555 L 493.63448015713004 570 L 493.63448015713004 600 L 467.6537180435969 615 L 441.6729559300637 600 L 441.6729559300637 570 Z" fill="#71d926" stroke="#000" stroke-width="0.5" opacity="0.9"/>
  <path d="M 506.6248612138966 577.5 L 532.6056233274297 592.5 L 532.6056233274298 622.5 L 506.6248612138966 637.5 L 480.64409910036346 622.5 L 480.64409910036346 592.5 Z" fill="#26d935" stroke="#000" stroke-width="0.5" opacity="0.9"/>
  <path d="M 545.5960043841964 555 L 571.5767664977295 570 L 571.5767664977295 600 L 545.5960043841964 615 L 519.6152422706632 600 L 519.6152422706632 570 Z" fill="#26d98e" stroke="#000" stroke-width="0.5" opacity="0.9"/>
  <path d="M 584.5671475544962 577.5 L 610.5479096680293 592.5 L 610.5479096680293 622.5 L 584.5671475544962 637.5 L 558.586385440963 622.5 L 558.586385440963 592.5 Z" fill="#cad926" stroke="#000" stroke-width="0.5" opacity="0.9"/>
  <path d="M 623.5382907247958 555 L 649.519052838329 570 L 649.519052838329 600 L 623.5382907247958 615 L 597.5575286112627 600 L 597.5575286112627 570 Z" fill="#71d926" stroke="#000" stroke-width="0.5" opacity="0.9"/>
  <path d="M 662.5094338950955 577.5 L 688.4901960086287 592.5 L 688.4901960086287 622.5 L 662.5094338950955 637.5 L 636.5286717815624 622.5 L 636.5286717815624 592.5 Z" fill="#26d935" stroke="#000" stroke-width="0.5" opacity="0.9"/>
  <path d="M 701.4805770653953 555 L 727.4613391789285 570 L 727.4613391789285 600 L 701.4805770653953 615 L 675.4998149518622 600 L 675.4998149518622 570 Z" fill="#26d98e" stroke="#000" stroke-width="0.5" opacity="0.9"/>
  <path d="M 740.4517202356951 577.5 L 766.4324823492283 592.5 L 766.4324823492283 622.5 L 740.4517202356951 637.5 L 714.470958122162 622.5 L 714.470958122162 592.5 Z" fill="#cad926" stroke="#000" stroke-width="0.5" opacity="0.9"/>
  <path d="M 779.4228634059948 555 L 805.403625519528 570 L 805.403625519528 600 L 779.4228634059948 615 L 753.4421012924616 600 L 753.4421012924616 570 Z" fill="#71d926" stroke="#000" stroke-width="0.5" opacity="0.9"/>
  <path d="M 818.3940065762945 577.5 L 844.3747686898276 592.5 L 844.3747686898276 622.5 L 818.3940065762945 637.5 L 792.4132444627613 622.5 L 792.4132444627613 592.5 Z" fill="#26d935" stroke="#000" stroke-width="0.5" opacity="0.9"/>
  <path d="M 857.3651497465943 555 L 883.3459118601274 570 L 883.3459118601274 600 L 857.3651497465943 615 L 831.3843876330611 600 L 831.3843876330611 570 Z" fill="#26d98e" stroke="#000" stroke-width="0.5" opacity="0.9"/>
  <path d="M -38.97114317029974 577.5 L -12.990381056766584 592.5 L -12.99038105676658 622.5 L -38.97114317029974 637.5 L -64.9519052838329 622.5 L -64.9519052838329 592.5 Z" fill="#cad926" stroke="#000" stroke-width="0.5" opacity="0.9"/>
  <path d="M 1.83697019872103e-15 600 L 25.980762113533157 615 L 25.98076211353316 645 L 1.83697019872103e-15 660 L -25.980762113533153 645 L -25.980762113533157 615 Z" fill="#71d926" stroke="#000" stroke-width="0.5" opacity="0.9"/>
  <path d="M 38.97114317029974 622.5 L 64.9519052838329 637.5 L 64.9519052838329 667.5 L 38.97114317029974 682.5 L 12.990381056766587 667.5 L 12.990381056766584 637.5 Z" fill="#26d935" stroke="#000" stroke-width="0.5" opacity="0.9"/>
  <path d="M 77.94228634059948 600 L 103.92304845413264 615 L 103.92304845413264 645 L 77.94228634059948 660 L 51.96152422706633 645 L 51.96152422706632 615 Z" fill="#26d98e" stroke="#000" stroke-width="0.5" opacity="0.9"/>
  <path d="M 116.91342951089922 622.5 L 142.89419162443238 637.5 L 142.89419162443238 667.5 L 116.91342951089922 682.5 L 90.93266739736606 667.5 L 90.93266739736606 637.5 Z" fill="#cad926" stroke="#000" stroke-width="0.5" opacity="0.9"/>
  <path d="M 155.88457268119896 600 L 181.86533479473212 615 L 181.86533479473212 645 L 155.88457268119896 660 L 129.9038105676658 645 L 129.9038105676658 615 Z" fill="#71d926" stroke="#000" stroke-width="0.5" opacity="0.9"/>
  <path d="M 194.8557158514987 622.5 L 220.83647796503186 637.5 L 220.83647796503186 667.5 L 194.8557158514987 682.5 L 168.87495373796554 667.5 L 168.87495373796554 637.5 Z" fill="#26d935" stroke="#000" stroke-width="0.5" opacity="0.9"/>
  <path d="M 233.82685902179844 600 L 259.8076211353316 615 L 259.8076211353316 645 L 233.82685902179844 660 L 207.84609690826528 645 L 207.84609690826528 615 Z" fill="#26d98e" stroke="#000" stroke-width="0.5" opacity="0.9"/>
  <path d="M 272.7980021920982 622.5 L 298.77876430563134 637.5 L 298.77876430563134 667.5 L 272.7980021920982 682.5 L 246.81724007856502 667.5 L 246.81724007856502 637.5 Z" fill="#cad926" stroke="#000" stroke-width="0.5" opacity="0.9"/>
  <path d="M 311.7691453623979 600 L 337.7499074759311 615 L 337.7499074759311 645 L 311.7691453623979 660 L 285.78838324886476 645 L 285.78838324886476 615 Z" fill="#71d926" stroke="#000" stroke-width="0.5" opacity="0.9"/>
  <path d="M 350.74028853269766 622.5 L 376.7210506462308 637.5 L 376.7210506462308 667.5 L 350.74028853269766 682.5 L 324.7595264191645 667.5 L 324.7595264191645 637.5 Z" fill="#26d935" stroke="#000" stroke-width="0.5" opacity="0.9"/>
  <path d="M 389.7114317029974 600 L 415.69219381653056 615 L 415.69219381653056 645 L 389.7114317029974 660 L 363.73066958946424 645 L 363.73066958946424 615 Z" fill="#26d98e" stroke="#000" stroke-width="0.5" opacity="0.9"/>
  <path d="M 428.68257487329714 622.5 L 454.6633369868303 637.5 L 454.6633369868303 667.5 L 428.68257487329714 682.5 L 402.701812759764 667.5 L 402.701812759764 637.5 Z" fill="#cad926" stroke="#000" stroke-width="0.5" opacity="0.9"/>
  <path d="M 467.6537180435969 600 L 493.63448015713004 615 L 493.63448015713004 645 L 467.6537180435969 660 L 441.6729559300637 645 L 441.6729559300637 615 Z" fill="#71d926" stroke="#000" stroke-width="0.5" opacity="0.9"/>
  <path d="M 506.6248612138966 622.5 L 532.6056233274297 637.5 L 532.6056233274298 667.5 L 506.6248612138966 682.5 L 480.64409910036346 667.5 L 480.64409910036346 637.5 Z" fill="#26d935" stroke="#000" stroke-width="0.5" opacity="0.9"/>
  <path d="M 545.5960043841964 600 L 571.5767664977295 615 L 571.5767664977295 645 L 545.5960043841964 660 L 519.6152422706632 645 L 519.6152422706632 615 Z" fill="#26d98e" stroke="#000" stroke-width="0.5" opacity="0.9"/>
  <path d="M 584.5671475544962 622.5 L 610.5479096680293 637.5 L 610.5479096680293 667.5 L 584.5671475544962 682.5 L 558.586385440963 667.5 L 558.586385440963 637.5 Z" fill="#cad926" stroke="#000" stroke-width="0.5" opacity="0.9"/>
  <path d="M 623.5382907247958 600 L 649.519052838329 615 L 649.519052838329 645 L 623.5382907247958 660 L 597.5575286112627 645 L 597.5575286112627 615 Z" fill="#71d926" stroke="#000" stroke-width="0.5" opacity="0.9"/>
  <path d="M 662.5094338950955 622.5 L 688.4901960086287 637.5 L 688.4901960086287 667.5 L 662.5094338950955 682.5 L 636.5286717815624 667.5 L 636.5286717815624 637.5 Z" fill="#26d935" stroke="#000" stroke-width="0.5" opacity="0.9"/>
  <path d="M 701.4805770653953 600 L 727.4613391789285 615 L 727.4613391789285 645 L 701.4805770653953 660 L 675.4998149518622 645 L 675.4998149518622 615 Z" fill="#26d98e" stroke="#000" stroke-width="0.5" opacity="0.9"/>
  <path d="M 740.4517202356951 622.5 L 766.4324823492283 637.5 L 766.4324823492283 667.5 L 740.4517202356951 682.5 L 714.470958122162 667.5 L 714.470958122162 637.5 Z" fill="#cad926" stroke="#000" stroke-width="0.5" opacity="0.9"/>
  <path d="M 779.4228634059948 600 L 805.403625519528 615 L 805.403625519528 645 L 779.4228634059948 660 L 753.4421012924616 645 L 753.4421012924616 615 Z" fill="#71d926" stroke="#000" stroke-width="0.5" opacity="0.9"/>
  <path d="M 818.3940065762945 622.5 L 844.3747686898276 637.5 L 844.3747686898276 667.5 L 818.3940065762945 682.5 L 792.4132444627613 667.5 L 792.4132444627613 637.5 Z" fill="#26d935" stroke="#000" stroke-width="0.5" opacity="0.9"/>
  <path d="M 857.3651497465943 600 L 883.3459118601274 615 L 883.3459118601274 645 L 857.3651497465943 660 L 831.3843876330611 645 L 831.3843876330611 615 Z" fill="#26d98e" stroke="#000" stroke-width="0.5" opacity="0.9"/>
  <path d="M -38.97114317029974 622.5 L -12.990381056766584 637.5 L -12.99038105676658 667.5 L -38.97114317029974 682.5 L -64.9519052838329 667.5 L -64.9519052838329 637.5 Z" fill="#cad926" stroke="#000" stroke-width="0.5" opacity="0.9"/>
  <path d="M 1.83697019872103e-15 645 L 25.980762113533157 660 L 25.98076211353316 690 L 1.83697019872103e-15 705 L -25.980762113533153 690 L -25.980762113533157 660 Z" fill="#71d926" stroke="#000" stroke-width="0.5" opacity="0.9"/>
  <path d="M 38.97114317029974 667.5 L 64.9519052838329 682.5 L 64.9519052838329 712.5 L 38.97114317029974 727.5 L 12.990381056766587 712.5 L 12.990381056766584 682.5 Z" fill="#26d935" stroke="#000" stroke-width="0.5" opacity="0.9"/>
  <path d="M 77.94228634059948 645 L 103.92304845413264 660 L 103.92304845413264 690 L 77.94228634059948 705 L 51.96152422706633 690 L 51.96152422706632 660 Z" fill="#26d98e" stroke="#000" stroke-width="0.5" opacity="0.9"/>
  <path d="M 116.91342951089922 667.5 L 142.89419162443238 682.5 L 142.89419162443238 712.5 L 116.91342951089922 727.5 L 90.93266739736606 712.5 L 90.93266739736606 682.5 Z" fill="#cad926" stroke="#000" stroke-width="0.5" opacity="0.9"/>
  <path d="M 155.88457268119896 645 L 181.86533479473212 660 L 181.86533479473212 690 L 155.88457268119896 705 L 129.9038105676658 690 L 129.9038105676658 660 Z" fill="#71d926" stroke="#000" stroke-width="0.5" opacity="0.9"/>
  <path d="M 194.8557158514987 667.5 L 220.83647796503186 682.5 L 220.83647796503186 712.5 L 194.8557158514987 727.5 L 168.87495373796554 712.5 L 168.87495373796554 682.5 Z" fill="#26d935" stroke="#000" stroke-width="0.5" opacity="0.9"/>
  <path d="M 233.82685902179844 645 L 259.8076211353316 660 L 259.8076211353316 690 L 233.82685902179844 705 L 207.84609690826528 690 L 207.84609690826528 660 Z" fill="#26d98e" stroke="#000" stroke-width="0.5" opacity="0.9"/>
  <path d="M 272.7980021920982 667.5 L 298.77876430563134 682.5 L 298.77876430563134 712.5 L 272.7980021920982 727.5 L 246.81724007856502 712.5 L 246.81724007856502 682.5 Z" fill="#cad926" stroke="#000" stroke-width="0.5" opacity="0.9"/>
  <path d="M 311.7691453623979 645 L 337.7499074759311 660 L 337.7499074759311 690 L 311.7691453623979 705 L 285.78838324886476 690 L 285.78838324886476 660 Z" fill="#71d926" stroke="#000" stroke-width="0.5" opacity="0.9"/>
  <path d="M 350.74028853269766 667.5 L 376.7210506462308 682.5 L 376.7210506462308 712.5 L 350.74028853269766 727.5 L 324.7595264191645 712.5 L 324.7595264191645 682.5 Z" fill="#26d935" stroke="#000" stroke-width="0.5" opacity="0.9"/>
  <path d="M 389.7114317029974 645 L 415.69219381653056 660 L 415.69219381653056 690 L 389.7114317029974 705 L 363.73066958946424 690 L 363.73066958946424 660 Z" fill="#26d98e" stroke="#000" stroke-width="0.5" opacity="0.9"/>
  <path d="M 428.68257487329714 667.5 L 454.6633369868303 682.5 L 454.6633369868303 712.5 L 428.68257487329714 727.5 L 402.701812759764 712.5 L 402.701812759764 682.5 Z" fill="#cad926" stroke="#000" stroke-width="0.5" opacity="0.9"/>
  <path d="M 467.6537180435969 645 L 493.63448015713004 660 L 493.63448015713004 690 L 467.6537180435969 705 L 441.6729559300637 690 L 441.6729559300637 660 Z" fill="#71d926" stroke="#000" stroke-width="0.5" opacity="0.9"/>
  <path d="M 506.6248612138966 667.5 L 532.6056233274297 682.5 L 532.6056233274298 712.5 L 506.6248612138966 727.5 L 480.64409910036346 712.5 L 480.64409910036346 682.5 Z" fill="#26d935" stroke="#000" stroke-width="0.5" opacity="0.9"/>
  <path d="M 545.5960043841964 645 L 571.5767664977295 660 L 571.5767664977295 690 L 545.5960043841964 705 L 519.6152422706632 690 L 519.6152422706632 660 Z" fill="#26d98e" stroke="#000" stroke-width="0.5" opacity="0.9"/>
  <path d="M 584.5671475544962 667.5 L 610.5479096680293 682.5 L 610.5479096680293 712.5 L 584.5671475544962 727.5 L 558.586385440963 712.5 L 558.586385440963 682.5 Z" fill="#cad926" stroke="#000" stroke-width="0.5" opacity="0.9"/>
  <path d="M 623.5382907247958 645 L 649.519052838329 660 L 649.519052838329 690 L 623.5382907247958 705 L 597.5575286112627 690 L 597.5575286112627 660 Z" fill="#71d926" stroke="#000" stroke-width="0.5" opacity="0.9"/>
  <path d="M 662.5094338950955 667.5 L 688.4901960086287 682.5 L 688.4901960086287 712.5 L 662.5094338950955 727.5 L 636.5286717815624 712.5 L 636.5286717815624 682.5 Z" fill="#26d935" stroke="#000" stroke-width="0.5" opacity="0.9"/>
  <path d="M 701.4805770653953 645 L 727.4613391789285 660 L 727.4613391789285 690 L 701.4805770653953 705 L 675.4998149518622 690 L 675.4998149518622 660 Z" fill="#26d98e" stroke="#000" stroke-width="0.5" opacity="0.9"/>
  <path d="M 740.4517202356951 667.5 L 766.4324823492283 682.5 L 766.4324823492283 712.5 L 740.4517202356951 727.5 L 714.470958122162 712.5 L 714.470958122162 682.5 Z" fill="#cad926" stroke="#000" stroke-width="0.5" opacity="0.9"/>
  <path d="M 779.4228634059948 645 L 805.403625519528 660 L 805.403625519528 690 L 779.4228634059948 705 L 753.4421012924616 690 L 753.4421012924616 660 Z" fill="#71d926" stroke="#000" stroke-width="0.5" opacity="0.9"/>
  <path d="M 818.3940065762945 667.5 L 844.3747686898276 682.5 L 844.3747686898276 712.5 L 818.3940065762945 727.5 L 792.4132444627613 712.5 L 792.4132444627613 682.5 Z" fill="#26d935" stroke="#000" stroke-width="0.5" opacity="0.9"/>
  <path d="M 857.3651497465943 645 L 883.3459118601274 660 L 883.3459118601274 690 L 857.3651497465943 705 L 831.3843876330611 690 L 831.3843876330611 660 Z" fill="#26d98e" stroke="#000" stroke-width="0.5" opacity="0.9"/>
</svg>