<?xml version="1.0" encoding="UTF-8"?>
<svg width="800" height="600" viewBox="0 0 800 600" xmlns="http://www.w3.org/2000/svg">
  <path d="M -60 -51.96152422706631 L 0 -51.96152422706631 L -30 0 Z" fill="#50570f" stroke="#000" stroke-width="0.5" opacity="0.9"/>
  <path d="M 30 0 L -29.999999999999996 0 L -3.552713678800501e-15 -51.96152422706631 Z" fill="#98a329" stroke="#000" stroke-width="0.5" opacity="0.9"/>
  <path d="M 0 -51.96152422706631 L 60 -51.96152422706631 L 30 0 Z" fill="#c3cc66" stroke="#000" stroke-width="0.5" opacity="0.9"/>
  <path d="M 90 0 L 30.000000000000004 0 L 60 -51.96152422706631 Z" fill="#dde0b8" stroke="#000" stroke-width="0.5" opacity="0.9"/>
  <path d="M 60 -51.96152422706631 L 120 -51.96152422706631 L 90 0 Z" fill="#50570f" stroke="#000" stroke-width="0.5" opacity="0.9"/>
  <path d="M 150 0 L 90 0 L 120 -51.96152422706631 Z" fill="#98a329" stroke="#000" stroke-width="0.5" opacity="0.9"/>
  <path d="M 120 -51.96152422706631 L 180 -51.96152422706631 L 150 0 Z" fill="#c3cc66" stroke="#000" stroke-width="0.5" opacity="0.9"/>
  <path d="M 210 0 L 150 0 L 180 -51.96152422706631 Z" fill="#dde0b8" stroke="#000" stroke-width="0.5" opacity="0.9"/>
  <path d="M 180 -51.96152422706631 L 240 -51.96152422706631 L 210 0 Z" fill="#50570f" stroke="#000" stroke-width="0.5" opacity="0.9"/>
  <path d="M 270 0 L 210 0 L 240 -51.96152422706631 Z" fill="#98a329" stroke="#000" stroke-width="0.5" opacity="0.9"/>
  <path d="M 240 -51.96152422706631 L 300 -51.96152422706631 L 270 0 Z" fill="#c3cc66" stroke="#000" stroke-width="0.5" opacity="0.9"/>
  <path d="M 330 0 L 270 0 L 300 -51.96152422706631 Z" fill="#dde0b8" stroke="#000" stroke-width="0.5" opacity="0.9"/>
  <path d="M 300 -51.96152422706631 L 360 -51.96152422706631 L 330 0 Z" fill="#50570f" stroke="#000" stroke-width="0.5" opacity="0.9"/>
  <path d="M 390 0 L 330 0 L 360 -51.96152422706631 Z" fill="#98a329" stroke="#000" stroke-width="0.5" opacity="0.9"/>
  <path d="M 360 -51.96152422706631 L 420 -51.96152422706631 L 390 0 Z" fill="#c3cc66" stroke="#000" stroke-width="0.5" opacity="0.9"/>
  <path d="M 450 0 L 390 0 L 420 -51.96152422706631 Z" fill="#dde0b8" stroke="#000" stroke-width="0.5" opacity="0.9"/>
  <path d="M 420 -51.96152422706631 L 480 -51.96152422706631 L 450 0 Z" fill="#50570f" stroke="#000" stroke-width="0.5" opacity="0.9"/>
  <path d="M 510 0 L 450 0 L 480 -51.96152422706631 Z" fill="#98a329" stroke="#000" stroke-width="0.5" opacity="0.9"/>
  <path d="M 480 -51.96152422706631 L 540 -51.96152422706631 L 510 0 Z" fill="#c3cc66" stroke="#000" stroke-width="0.5" opacity="0.9"/>
  <path d="M 570 0 L 510 0 L 540 -51.96152422706631 Z" fill="#dde0b8" stroke="#000" stroke-width="0.5" opacity="0.9"/>
  <path d="M 540 -51.96152422706631 L 600 -51.96152422706631 L 570 0 Z" fill="#50570f" stroke="#000" stroke-width="0.5" opacity="0.9"/>
  <path d="M 630 0 L 570 0 L 600 -51.96152422706631 Z" fill="#98a329" stroke="#000" stroke-width="0.5" opacity="0.9"/>
  <path d="M 600 -51.96152422706631 L 660 -51.96152422706631 L 630 0 Z" fill="#c3cc66" stroke="#000" stroke-width="0.5" opacity="0.9"/>
  <path d="M 690 0 L 630 0 L 660 -51.96152422706631 Z" fill="#dde0b8" stroke="#000" stroke-width="0.5" opacity="0.9"/>
  <path d="M 660 -51.96152422706631 L 720 -51.96152422706631 L 690 0 Z" fill="#50570f" stroke="#000" stroke-width="0.5" opacity="0.9"/>
  <path d="M 750 0 L 690 0 L 720 -51.96152422706631 Z" fill="#98a329" stroke="#000" stroke-width="0.5" opacity="0.9"/>
  <path d="M 720 -51.96152422706631 L 780 -51.96152422706631 L 750 0 Z" fill="#c3cc66" stroke="#000" stroke-width="0.5" opacity="0.9"/>
  <path d="M 810 0 L 750 0 L 780 -51.96152422706631 Z" fill="#dde0b8" stroke="#000" stroke-width="0.5" opacity="0.9"/>
  <path d="M 780 -51.96152422706631 L 840 -51.96152422706631 L 810 0 Z" fill="#50570f" stroke="#000" stroke-width="0.5" opacity="0.9"/>
  <path d="M 870 0 L 810 0 L 840 -51.96152422706631 Z" fill="#98a329" stroke="#000" stroke-width="0.5" opacity="0.9"/>
  <path d="M 840 -51.96152422706631 L 900 -51.96152422706631 L 870 0 Z" fill="#c3cc66" stroke="#000" stroke-width="0.5" opacity="0.9"/>
  <path d="M 930 0 L 870 0 L 900 -51.96152422706631 Z" fill="#dde0b8" stroke="#000" stroke-width="0.5" opacity="0.9"/>
  <path d="M 900 -51.96152422706631 L 960 -51.96152422706631 L 930 0 Z" fill="#50570f" stroke="#000" stroke-width="0.5" opacity="0.9"/>
  <path d="M 990 0 L 930 0 L 960 -51.96152422706631 Z" fill="#98a329" stroke="#000" stroke-width="0.5" opacity="0.9"/>
  <path d="M -60 0 L 0 0 L -30 51.96152422706631 Z" fill="#c3cc66" stroke="#000" stroke-width="0.5" opacity="0.9"/>
  <path d="M 30 51.96152422706631 L -29.999999999999996 51.96152422706631 L -3.552713678800501e-15 0 Z" fill="#dde0b8" stroke="#000" stroke-width="0.5" opacity="0.9"/>
  <path d="M 0 0 L 60 0 L 30 51.96152422706631 Z" fill="#50570f" stroke="#000" stroke-width="0.5" opacity="0.9"/>
  <path d="M 90 51.96152422706631 L 30.000000000000004 51.96152422706631 L 60 0 Z" fill="#98a329" stroke="#000" stroke-width="0.5" opacity="0.9"/>
  <path d="M 60 0 L 120 0 L 90 51.96152422706631 Z" fill="#c3cc66" stroke="#000" stroke-width="0.5" opacity="0.9"/>
  <path d="M 150 51.96152422706631 L 90 51.96152422706631 L 120 0 Z" fill="#dde0b8" stroke="#000" stroke-width="0.5" opacity="0.9"/>
  <path d="M 120 0 L 180 0 L 150 51.96152422706631 Z" fill="#50570f" stroke="#000" stroke-width="0.5" opacity="0.9"/>
  <path d="M 210 51.96152422706631 L 150 51.96152422706631 L 180 0 Z" fill="#98a329" stroke="#000" stroke-width="0.5" opacity="0.9"/>
  <path d="M 180 0 L 240 0 L 210 51.96152422706631 Z" fill="#c3cc66" stroke="#000" stroke-width="0.5" opacity="0.9"/>
  <path d="M 270 51.96152422706631 L 210 51.96152422706631 L 240 0 Z" fill="#dde0b8" stroke="#000" stroke-width="0.5" opacity="0.9"/>
  <path d="M 240 0 L 300 0 L 270 51.96152422706631 Z" fill="#50570f" stroke="#000" stroke-width="0.5" opacity="0.9"/>
  <path d="M 330 51.96152422706631 L 270 51.96152422706631 L 300 0 Z" fill="#98a329" stroke="#000" stroke-width="0.5" opacity="0.9"/>
  <path d="M 300 0 L 360 0 L 330 51.96152422706631 Z" fill="#c3cc66" stroke="#000" stroke-width="0.5" opacity="0.9"/>
  <path d="M 390 51.96152422706631 L 330 51.96152422706631 L 360 0 Z" fill="#dde0b8" stroke="#000" stroke-width="0.5" opacity="0.9"/>
  <path d="M 360 0 L 420 0 L 390 51.96152422706631 Z" fill="#50570f" stroke="#000" stroke-width="0.5" opacity="0.9"/>
  <path d="M 450 51.96152422706631 L 390 51.96152422706631 L 420 0 Z" fill="#98a329" stroke="#000" stroke-width="0.5" opacity="0.9"/>
  <path d="M 420 0 L 480 0 L 450 51.96152422706631 Z" fill="#c3cc66" stroke="#000" stroke-width="0.5" opacity="0.9"/>
  <path d="M 510 51.96152422706631 L 450 51.96152422706631 L 480 0 Z" fill="#dde0b8" stroke="#000" stroke-width="0.5" opacity="0.9"/>
  <path d="M 480 0 L 540 0 L 510 51.96152422706631 Z" fill="#50570f" stroke="#000" stroke-width="0.5" opacity="0.9"/>
  <path d="M 570 51.96152422706631 L 510 51.96152422706631 L 540 0 Z" fill="#98a329" stroke="#000" stroke-width="0.5" opacity="0.9"/>
  <path d="M 540 0 L 600 0 L 570 51.96152422706631 Z" fill="#c3cc66" stroke="#000" stroke-width="0.5" opacity="0.9"/>
  <path d="M 630 51.96152422706631 L 570 51.96152422706631 L 600 0 Z" fill="#dde0b8" stroke="#000" stroke-width="0.5" opacity="0.9"/>
  <path d="M 600 0 L 660 0 L 630 51.96152422706631 Z" fill="#50570f" stroke="#000" stroke-width="0.5" opacity="0.9"/>
  <path d="M 690 51.96152422706631 L 630 51.96152422706631 L 660 0 Z" fill="#98a329" stroke="#000" stroke-width="0.5" opacity="0.9"/>
  <path d="M 660 0 L 720 0 L 690 51.96152422706631 Z" fill="#c3cc66" stroke="#000" stroke-width="0.5" opacity="0.9"/>
  <path d="M 750 51.96152422706631 L 690 51.96152422706631 L 720 0 Z" fill="#dde0b8" stroke="#000" stroke-width="0.5" opacity="0.9"/>
  <path d="M 720 0 L 780 0 L 750 51.96152422706631 Z" fill="#50570f" stroke="#000" stroke-width="0.5" opacity="0.9"/>
  <path d="M 810 51.96152422706631 L 750 51.96152422706631 L 780 0 Z" fill="#98a329" stroke="#000" stroke-width="0.5" opacity="0.9"/>
  <path d="M 780 0 L 840 0 L 810 51.96152422706631 Z" fill="#c3cc66" stroke="#000" stroke-width="0.5" opacity="0.9"/>
  <path d="M 870 51.96152422706631 L 810 51.96152422706631 L 840 0 Z" fill="#dde0b8" stroke="#000" stroke-width="0.5" opacity="0.9"/>
  <path d="M 840 0 L 900 0 L 870 51.96152422706631 Z" fill="#50570f" stroke="#000" stroke-width="0.5" opacity="0.9"/>
  <path d="M 930 51.96152422706631 L 870 51.96152422706631 L 900 0 Z" fill="#98a329" stroke="#000" stroke-width="0.5" opacity="0.9"/>
  <path d="M 900 0 L 960 0 L 930 51.96152422706631 Z" fill="#c3cc66" stroke="#000" stroke-width="0.5" opacity="0.9"/>
  <path d="M 990 51.96152422706631 L 930 51.96152422706631 L 960 0 Z" fill="#dde0b8" stroke="#000" stroke-width="0.5" opacity="0.9"/>
  <path d="M -60 51.96152422706631 L 0 51.96152422706631 L -30 103.92304845413263 Z" fill="#50570f" stroke="#000" stroke-width="0.5" opacity="0.9"/>
  <path d="M 30 103.92304845413263 L -29.999999999999996 103.92304845413263 L -3.552713678800501e-15 51.96152422706631 Z" fill="#98a329" stroke="#000" stroke-width="0.5" opacity="0.9"/>
  <path d="M 0 51.96152422706631 L 60 51.96152422706631 L 30 103.92304845413263 Z" fill="#c3cc66" stroke="#000" stroke-width="0.5" opacity="0.9"/>
  <path d="M 90 103.92304845413263 L 30.000000000000004 103.92304845413263 L 60 51.96152422706631 Z" fill="#dde0b8" stroke="#000" stroke-width="0.5" opacity="0.9"/>
  <path d="M 60 51.96152422706631 L 120 51.96152422706631 L 90 103.92304845413263 Z" fill="#50570f" stroke="#000" stroke-width="0.5" opacity="0.9"/>
  <path d="M 150 103.92304845413263 L 90 103.92304845413263 L 120 51.96152422706631 Z" fill="#98a329" stroke="#000" stroke-width="0.5" opacity="0.9"/>
  <path d="M 120 51.96152422706631 L 180 51.96152422706631 L 150 103.92304845413263 Z" fill="#c3cc66" stroke="#000" stroke-width="0.5" opacity="0.9"/>
  <path d="M 210 103.92304845413263 L 150 103.92304845413263 L 180 51.96152422706631 Z" fill="#dde0b8" stroke="#000" stroke-width="0.5" opacity="0.9"/>
  <path d="M 180 51.96152422706631 L 240 51.96152422706631 L 210 103.92304845413263 Z" fill="#50570f" stroke="#000" stroke-width="0.5" opacity="0.9"/>
  <path d="M 270 103.92304845413263 L 210 103.92304845413263 L 240 51.96152422706631 Z" fill="#98a329" stroke="#000" stroke-width="0.5" opacity="0.9"/>
  <path d="M 240 51.96152422706631 L 300 51.96152422706631 L 270 103.92304845413263 Z" fill="#c3cc66" stroke="#000" stroke-width="0.5" opacity="0.9"/>
  <path d="M 330 103.92304845413263 L 270 103.92304845413263 L 300 51.96152422706631 Z" fill="#dde0b8" stroke="#000" stroke-width="0.5" opacity="0.9"/>
  <path d="M 300 51.96152422706631 L 360 51.96152422706631 L 330 103.92304845413263 Z" fill="#50570f" stroke="#000" stroke-width="0.5" opacity="0.9"/>
  <path d="M 390 103.92304845413263 L 330 103.92304845413263 L 360 51.96152422706631 Z" fill="#98a329" stroke="#000" stroke-width="0.5" opacity="0.9"/>
  <path d="M 360 51.96152422706631 L 420 51.96152422706631 L 390 103.92304845413263 Z" fill="#c3cc66" stroke="#000" stroke-width="0.5" opacity="0.9"/>
  <path d="M 450 103.92304845413263 L 390 103.92304845413263 L 420 51.96152422706631 Z" fill="#dde0b8" stroke="#000" stroke-width="0.5" opacity="0.9"/>
  <path d="M 420 51.96152422706631 L 480 51.96152422706631 L 450 103.92304845413263 Z" fill="#50570f" stroke="#000" stroke-width="0.5" opacity="0.9"/>
  <path d="M 510 103.92304845413263 L 450 103.92304845413263 L 480 51.96152422706631 Z" fill="#98a329" stroke="#000" stroke-width="0.5" opacity="0.9"/>
  <path d="M 480 51.96152422706631 L 540 51.96152422706631 L 510 103.92304845413263 Z" fill="#c3cc66" stroke="#000" stroke-width="0.5" opacity="0.9"/>
  <path d="M 570 103.92304845413263 L 510 103.92304845413263 L 540 51.96152422706631 Z" fill="#dde0b8" stroke="#000" stroke-width="0.5" opacity="0.9"/>
  <path d="M 540 51.96152422706631 L 600 51.96152422706631 L 570 103.92304845413263 Z" fill="#50570f" stroke="#000" stroke-width="0.5" opacity="0.9"/>
  <path d="M 630 103.92304845413263 L 570 103.92304845413263 L 600 51.96152422706631 Z" fill="#98a329" stroke="#000" stroke-width="0.5" opacity="0.9"/>
  <path d="M 600 51.96152422706631 L 660 51.96152422706631 L 630 103.92304845413263 Z" fill="#c3cc66" stroke="#000" stroke-width="0.5" opacity="0.9"/>
  <path d="M 690 103.92304845413263 L 630 103.92304845413263 L 660 51.96152422706631 Z" fill="#dde0b8" stroke="#000" stroke-width="0.5" opacity="0.9"/>
  <path d="M 660 51.96152422706631 L 720 51.96152422706631 L 690 103.92304845413263 Z" fill="#50570f" stroke="#000" stroke-width="0.5" opacity="0.9"/>
  <path d="M 750 103.92304845413263 L 690 103.92304845413263 L 720 51.96152422706631 Z" fill="#98a329" stroke="#000" stroke-width="0.5" opacity="0.9"/>
  <path d="M 720 51.96152422706631 L 780 51.96152422706631 L 750 103.92304845413263 Z" fill="#c3cc66" stroke="#000" stroke-width="0.5" opacity="0.9"/>
  <path d="M 810 103.92304845413263 L 750 103.92304845413263 L 780 51.96152422706631 Z" fill="#dde0b8" stroke="#000" stroke-width="0.5" opacity="0.9"/>
  <path d="M 780 51.96152422706631 L 840 51.96152422706631 L 810 103.92304845413263 Z" fill="#50570f" stroke="#000" stroke-width="0.5" opacity="0.9"/>
  <path d="M 870 103.92304845413263 L 810 103.92304845413263 L 840 51.96152422706631 Z" fill="#98a329" stroke="#000" stroke-width="0.5" opacity="0.9"/>
  <path d="M 840 51.96152422706631 L 900 51.96152422706631 L 870 103.92304845413263 Z" fill="#c3cc66" stroke="#000" stroke-width="0.5" opacity="0.9"/>
  <path d="M 930 103.92304845413263 L 870 103.92304845413263 L 900 51.96152422706631 Z" fill="#dde0b8" stroke="#000" stroke-width="0.5" opacity="0.9"/>
  <path d="M 900 51.96152422706631 L 960 51.96152422706631 L 930 103.92304845413263 Z" fill="#50570f" stroke="#000" stroke-width="0.5" opacity="0.9"/>
  <path d="M 990 103.92304845413263 L 930 103.92304845413263 L 960 51.96152422706631 Z" fill="#98a329" stroke="#000" stroke-width="0.5" opacity="0.9"/>
  <path d="M -60 103.92304845413263 L 0 103.92304845413263 L -30 155.88457268119893 Z" fill="#c3cc66" stroke="#000" stroke-width="0.5" opacity="0.9"/>
  <path d="M 30 155.88457268119896 L -29.999999999999996 155.88457268119896 L -3.552713678800501e-15 103.92304845413264 Z" fill="#dde0b8" stroke="#000" stroke-width="0.5" opacity="0.9"/>
  <path d="M 0 103.92304845413263 L 60 103.92304845413263 L 30 155.88457268119893 Z" fill="#50570f" stroke="#000" stroke-width="0.5" opacity="0.9"/>
  <path d="M 90 155.88457268119896 L 30.000000000000004 155.88457268119896 L 60 103.92304845413264 Z" fill="#98a329" stroke="#000" stroke-width="0.5" opacity="0.9"/>
  <path d="M 60 103.92304845413263 L 120 103.92304845413263 L 90 155.88457268119893 Z" fill="#c3cc66" stroke="#000" stroke-width="0.5" opacity="0.9"/>
  <path d="M 150 155.88457268119896 L 90 155.88457268119896 L 120 103.92304845413264 Z" fill="#dde0b8" stroke="#000" stroke-width="0.5" opacity="0.9"/>
  <path d="M 120 103.92304845413263 L 180 103.92304845413263 L 150 155.88457268119893 Z" fill="#50570f" stroke="#000" stroke-width="0.5" opacity="0.9"/>
  <path d="M 210 155.88457268119896 L 150 155.88457268119896 L 180 103.92304845413264 Z" fill="#98a329" stroke="#000" stroke-width="0.5" opacity="0.9"/>
  <path d="M 180 103.92304845413263 L 240 103.92304845413263 L 210 155.88457268119893 Z" fill="#c3cc66" stroke="#000" stroke-width="0.5" opacity="0.9"/>
  <path d="M 270 155.88457268119896 L 210 155.88457268119896 L 240 103.92304845413264 Z" fill="#dde0b8" stroke="#000" stroke-width="0.5" opacity="0.9"/>
  <path d="M 240 103.92304845413263 L 300 103.92304845413263 L 270 155.88457268119893 Z" fill="#50570f" stroke="#000" stroke-width="0.5" opacity="0.9"/>
  <path d="M 330 155.88457268119896 L 270 155.88457268119896 L 300 103.92304845413264 Z" fill="#98a329" stroke="#000" stroke-width="0.5" opacity="0.9"/>
  <path d="M 300 103.92304845413263 L 360 103.92304845413263 L 330 155.88457268119893 Z" fill="#c3cc66" stroke="#000" stroke-width="0.5" opacity="0.9"/>
  <path d="M 390 155.88457268119896 L 330 155.88457268119896 L 360 103.92304845413264 Z" fill="#dde0b8" stroke="#000" stroke-width="0.5" opacity="0.9"/>
  <path d="M 360 103.92304845413263 L 420 103.92304845413263 L 390 155.88457268119893 Z" fill="#50570f" stroke="#000" stroke-width="0.5" opacity="0.9"/>
  <path d="M 450 155.88457268119896 L 390 155.88457268119896 L 420 103.92304845413264 Z" fill="#98a329" stroke="#000" stroke-width="0.5" opacity="0.9"/>
  <path d="M 420 103.92304845413263 L 480 103.92304845413263 L 450 155.88457268119893 Z" fill="#c3cc66" stroke="#000" stroke-width="0.5" opacity="0.9"/>
  <path d="M 510 155.88457268119896 L 450 155.88457268119896 L 480 103.92304845413264 Z" fill="#dde0b8" stroke="#000" stroke-width="0.5" opacity="0.9"/>
  <path d="M 480 103.92304845413263 L 540 103.92304845413263 L 510 155.88457268119893 Z" fill="#50570f" stroke="#000" stroke-width="0.5" opacity="0.9"/>
  <path d="M 570 155.88457268119896 L 510 155.88457268119896 L 540 103.92304845413264 Z" fill="#98a329" stroke="#000" stroke-width="0.5" opacity="0.9"/>
  <path d="M 540 103.92304845413263 L 600 103.92304845413263 L 570 155.88457268119893 Z" fill="#c3cc66" stroke="#000" stroke-width="0.5" opacity="0.9"/>
  <path d="M 630 155.88457268119896 L 570 155.88457268119896 L 600 103.92304845413264 Z" fill="#dde0b8" stroke="#000" stroke-width="0.5" opacity="0.9"/>
  <path d="M 600 103.92304845413263 L 660 103.92304845413263 L 630 155.88457268119893 Z" fill="#50570f" stroke="#000" stroke-width="0.5" opacity="0.9"/>
  <path d="M 690 155.88457268119896 L 630 155.88457268119896 L 660 103.92304845413264 Z" fill="#98a329" stroke="#000" stroke-width="0.5" opacity="0.9"/>
  <path d="M 660 103.92304845413263 L 720 103.92304845413263 L 690 155.88457268119893 Z" fill="#c3cc66" stroke="#000" stroke-width="0.5" opacity="0.9"/>
  <path d="M 750 155.88457268119896 L 690 155.88457268119896 L 720 103.92304845413264 Z" fill="#dde0b8" stroke="#000" stroke-width="0.5" opacity="0.9"/>
  <path d="M 720 103.92304845413263 L 780 103.92304845413263 L 750 155.88457268119893 Z" fill="#50570f" stroke="#000" stroke-width="0.5" opacity="0.9"/>
  <path d="M 810 155.88457268119896 L 750 155.88457268119896 L 780 103.92304845413264 Z" fill="#98a329" stroke="#000" stroke-width="0.5" opacity="0.9"/>
  <path d="M 780 103.92304845413263 L 840 103.92304845413263 L 810 155.88457268119893 Z" fill="#c3cc66" stroke="#000" stroke-width="0.5" opacity="0.9"/>
  <path d="M 870 155.88457268119896 L 810 155.88457268119896 L 840 103.92304845413264 Z" fill="#dde0b8" stroke="#000" stroke-width="0.5" opacity="0.9"/>
  <path d="M 840 103.92304845413263 L 900 103.92304845413263 L 870 155.88457268119893 Z" fill="#50570f" stroke="#000" stroke-width="0.5" opacity="0.9"/>
  <path d="M 930 155.88457268119896 L 870 155.88457268119896 L 900 103.92304845413264 Z" fill="#98a329" stroke="#000" stroke-width="0.5" opacity="0.9"/>
  <path d="M 900 103.92304845413263 L 960 103.92304845413263 L 930 155.88457268119893 Z" fill="#c3cc66" stroke="#000" stroke-width="0.5" opacity="0.9"/>
  <path d="M 990 155.88457268119896 L 930 155.88457268119896 L 960 103.92304845413264 Z" fill="#dde0b8" stroke="#000" stroke-width="0.5" opacity="0.9"/>
  <path d="M -60 155.88457268119893 L 0 155.88457268119893 L -30 207.84609690826525 Z" fill="#50570f" stroke="#000" stroke-width="0.5" opacity="0.9"/>
  <path d="M 30 207.84609690826522 L -29.999999999999996 207.84609690826522 L -3.552713678800501e-15 155.88457268119893 Z" fill="#98a329" stroke="#000" stroke-width="0.5" opacity="0.9"/>
  <path d="M 0 155.88457268119893 L 60 155.88457268119893 L 30 207.84609690826525 Z" fill="#c3cc66" stroke="#000" stroke-width="0.5" opacity="0.9"/>
  <path d="M 90 207.84609690826522 L 30.000000000000004 207.84609690826522 L 60 155.88457268119893 Z" fill="#dde0b8" stroke="#000" stroke-width="0.5" opacity="0.9"/>
  <path d="M 60 155.88457268119893 L 120 155.88457268119893 L 90 207.84609690826525 Z" fill="#50570f" stroke="#000" stroke-width="0.5" opacity="0.9"/>
  <path d="M 150 207.84609690826522 L 90 207.84609690826522 L 120 155.88457268119893 Z" fill="#98a329" stroke="#000" stroke-width="0.5" opacity="0.9"/>
  <path d="M 120 155.88457268119893 L 180 155.88457268119893 L 150 207.84609690826525 Z" fill="#c3cc66" stroke="#000" stroke-width="0.5" opacity="0.9"/>
  <path d="M 210 207.84609690826522 L 150 207.84609690826522 L 180 155.88457268119893 Z" fill="#dde0b8" stroke="#000" stroke-width="0.5" opacity="0.9"/>
  <path d="M 180 155.88457268119893 L 240 155.88457268119893 L 210 207.84609690826525 Z" fill="#50570f" stroke="#000" stroke-width="0.5" opacity="0.9"/>
  <path d="M 270 207.84609690826522 L 210 207.84609690826522 L 240 155.88457268119893 Z" fill="#98a329" stroke="#000" stroke-width="0.5" opacity="0.9"/>
  <path d="M 240 155.88457268119893 L 300 155.88457268119893 L 270 207.84609690826525 Z" fill="#c3cc66" stroke="#000" stroke-width="0.5" opacity="0.9"/>
  <path d="M 330 207.84609690826522 L 270 207.84609690826522 L 300 155.88457268119893 Z" fill="#dde0b8" stroke="#000" stroke-width="0.5" opacity="0.9"/>
  <path d="M 300 155.88457268119893 L 360 155.88457268119893 L 330 207.84609690826525 Z" fill="#50570f" stroke="#000" stroke-width="0.5" opacity="0.9"/>
  <path d="M 390 207.84609690826522 L 330 207.84609690826522 L 360 155.88457268119893 Z" fill="#98a329" stroke="#000" stroke-width="0.5" opacity="0.9"/>
  <path d="M 360 155.88457268119893 L 420 155.88457268119893 L 390 207.84609690826525 Z" fill="#c3cc66" stroke="#000" stroke-width="0.5" opacity="0.9"/>
  <path d="M 450 207.84609690826522 L 390 207.84609690826522 L 420 155.88457268119893 Z" fill="#dde0b8" stroke="#000" stroke-width="0.5" opacity="0.9"/>
  <path d="M 420 155.88457268119893 L 480 155.88457268119893 L 450 207.84609690826525 Z" fill="#50570f" stroke="#000" stroke-width="0.5" opacity="0.9"/>
  <path d="M 510 207.84609690826522 L 450 207.84609690826522 L 480 155.88457268119893 Z" fill="#98a329" stroke="#000" stroke-width="0.5" opacity="0.9"/>
  <path d="M 480 155.88457268119893 L 540 155.88457268119893 L 510 207.84609690826525 Z" fill="#c3cc66" stroke="#000" stroke-width="0.5" opacity="0.9"/>
  <path d="M 570 207.84609690826522 L 510 207.84609690826522 L 540 155.88457268119893 Z" fill="#dde0b8" stroke="#000" stroke-width="0.5" opacity="0.9"/>
  <path d="M 540 155.88457268119893 L 600 155.88457268119893 L 570 207.84609690826525 Z" fill="#50570f" stroke="#000" stroke-width="0.5" opacity="0.9"/>
  <path d="M 630 207.84609690826522 L 570 207.84609690826522 L 600 155.88457268119893 Z" fill="#98a329" stroke="#000" stroke-width="0.5" opacity="0.9"/>
  <path d="M 600 155.88457268119893 L 660 155.88457268119893 L 630 207.84609690826525 Z" fill="#c3cc66" stroke="#000" stroke-width="0.5" opacity="0.9"/>
  <path d="M 690 207.84609690826522 L 630 207.84609690826522 L 660 155.88457268119893 Z" fill="#dde0b8" stroke="#000" stroke-width="0.5" opacity="0.9"/>
  <path d="M 660 155.88457268119893 L 720 155.88457268119893 L 690 207.84609690826525 Z" fill="#50570f" stroke="#000" stroke-width="0.5" opacity="0.9"/>
  <path d="M 750 207.84609690826522 L 690 207.84609690826522 L 720 155.88457268119893 Z" fill="#98a329" stroke="#000" stroke-width="0.5" opacity="0.9"/>
  <path d="M 720 155.88457268119893 L 780 155.88457268119893 L 750 207.84609690826525 Z" fill="#c3cc66" stroke="#000" stroke-width="0.5" opacity="0.9"/>
  <path d="M 810 207.84609690826522 L 750 207.84609690826522 L 780 155.88457268119893 Z" fill="#dde0b8" stroke="#000" stroke-width="0.5" opacity="0.9"/>
  <path d="M 780 155.88457268119893 L 840 155.88457268119893 L 810 207.84609690826525 Z" fill="#50570f" stroke="#000" stroke-width="0.5" opacity="0.9"/>
  <path d="M 870 207.84609690826522 L 810 207.84609690826522 L 840 155.88457268119893 Z" fill="#98a329" stroke="#000" stroke-width="0.5" opacity="0.9"/>
  <path d="M 840 155.88457268119893 L 900 155.88457268119893 L 870 207.84609690826525 Z" fill="#c3cc66" stroke="#000" stroke-width="0.5" opacity="0.9"/>
  <path d="M 930 207.84609690826522 L 870 207.84609690826522 L 900 155.88457268119893 Z" fill="#dde0b8" stroke="#000" stroke-width="0.5" opacity="0.9"/>
  <path d="M 900 155.88457268119893 L 960 155.88457268119893 L 930 207.84609690826525 Z" fill="#50570f" stroke="#000" stroke-width="0.5" opacity="0.9"/>
  <path d="M 990 207.84609690826522 L 930 207.84609690826522 L 960 155.88457268119893 Z" fill="#98a329" stroke="#000" stroke-width="0.5" opacity="0.9"/>
  <path d="M -60 207.84609690826525 L 0 207.84609690826525 L -30 259.80762113533154 Z" fill="#c3cc66" stroke="#000" stroke-width="0.5" opacity="0.9"/>
  <path d="M 30 259.80762113533154 L -29.999999999999996 259.80762113533154 L -3.552713678800501e-15 207.84609690826525 Z" fill="#dde0b8" stroke="#000" stroke-width="0.5" opacity="0.9"/>
  <path d="M 0 207.84609690826525 L 60 207.84609690826525 L 30 259.80762113533154 Z" fill="#50570f" stroke="#000" stroke-width="0.5" opacity="0.9"/>
  <path d="M 90 259.80762113533154 L 30.000000000000004 259.80762113533154 L 60 207.84609690826525 Z" fill="#98a329" stroke="#000" stroke-width="0.5" opacity="0.9"/>
  <path d="M 60 207.84609690826525 L 120 207.84609690826525 L 90 259.80762113533154 Z" fill="#c3cc66" stroke="#000" stroke-width="0.5" opacity="0.9"/>
  <path d="M 150 259.80762113533154 L 90 259.80762113533154 L 120 207.84609690826525 Z" fill="#dde0b8" stroke="#000" stroke-width="0.5" opacity="0.9"/>
  <path d="M 120 207.84609690826525 L 180 207.84609690826525 L 150 259.80762113533154 Z" fill="#50570f" stroke="#000" stroke-width="0.5" opacity="0.9"/>
  <path d="M 210 259.80762113533154 L 150 259.80762113533154 L 180 207.84609690826525 Z" fill="#98a329" stroke="#000" stroke-width="0.5" opacity="0.9"/>
  <path d="M 180 207.84609690826525 L 240 207.84609690826525 L 210 259.80762113533154 Z" fill="#c3cc66" stroke="#000" stroke-width="0.5" opacity="0.9"/>
  <path d="M 270 259.80762113533154 L 210 259.80762113533154 L 240 207.84609690826525 Z" fill="#dde0b8" stroke="#000" stroke-width="0.5" opacity="0.9"/>
  <path d="M 240 207.84609690826525 L 300 207.84609690826525 L 270 259.80762113533154 Z" fill="#50570f" stroke="#000" stroke-width="0.5" opacity="0.9"/>
  <path d="M 330 259.80762113533154 L 270 259.80762113533154 L 300 207.84609690826525 Z" fill="#98a329" stroke="#000" stroke-width="0.5" opacity="0.9"/>
  <path d="M 300 207.84609690826525 L 360 207.84609690826525 L 330 259.80762113533154 Z" fill="#c3cc66" stroke="#000" stroke-width="0.5" opacity="0.9"/>
  <path d="M 390 259.80762113533154 L 330 259.80762113533154 L 360 207.84609690826525 Z" fill="#dde0b8" stroke="#000" stroke-width="0.5" opacity="0.9"/>
  <path d="M 360 207.84609690826525 L 420 207.84609690826525 L 390 259.80762113533154 Z" fill="#50570f" stroke="#000" stroke-width="0.5" opacity="0.9"/>
  <path d="M 450 259.80762113533154 L 390 259.80762113533154 L 420 207.84609690826525 Z" fill="#98a329" stroke="#000" stroke-width="0.5" opacity="0.9"/>
  <path d="M 420 207.84609690826525 L 480 207.84609690826525 L 450 259.80762113533154 Z" fill="#c3cc66" stroke="#000" stroke-width="0.5" opacity="0.9"/>
  <path d="M 510 259.80762113533154 L 450 259.80762113533154 L 480 207.84609690826525 Z" fill="#dde0b8" stroke="#000" stroke-width="0.5" opacity="0.9"/>
  <path d="M 480 207.84609690826525 L 540 207.84609690826525 L 510 259.80762113533154 Z" fill="#50570f" stroke="#000" stroke-width="0.5" opacity="0.9"/>
  <path d="M 570 259.80762113533154 L 510 259.80762113533154 L 540 207.84609690826525 Z" fill="#98a329" stroke="#000" stroke-width="0.5" opacity="0.9"/>
  <path d="M 540 207.84609690826525 L 600 207.84609690826525 L 570 259.80762113533154 Z" fill="#c3cc66" stroke="#000" stroke-width="0.5" opacity="0.9"/>
  <path d="M 630 259.80762113533154 L 570 259.80762113533154 L 600 207.84609690826525 Z" fill="#dde0b8" stroke="#000" stroke-width="0.5" opacity="0.9"/>
  <path d="M 600 207.84609690826525 L 660 207.84609690826525 L 630 259.80762113533154 Z" fill="#50570f" stroke="#000" stroke-width="0.5" opacity="0.9"/>
  <path d="M 690 259.80762113533154 L 630 259.80762113533154 L 660 207.84609690826525 Z" fill="#98a329" stroke="#000" stroke-width="0.5" opacity="0.9"/>
  <path d="M 660 207.84609690826525 L 720 207.84609690826525 L 690 259.80762113533154 Z" fill="#c3cc66" stroke="#000" stroke-width="0.5" opacity="0.9"/>
  <path d="M 750 259.80762113533154 L 690 259.80762113533154 L 720 207.84609690826525 Z" fill="#dde0b8" stroke="#000" stroke-width="0.5" opacity="0.9"/>
  <path d="M 720 207.84609690826525 L 780 207.84609690826525 L 750 259.80762113533154 Z" fill="#50570f" stroke="#000" stroke-width="0.5" opacity="0.9"/>
  <path d="M 810 259.80762113533154 L 750 259.80762113533154 L 780 207.84609690826525 Z" fill="#98a329" stroke="#000" stroke-width="0.5" opacity="0.9"/>
  <path d="M 780 207.84609690826525 L 840 207.84609690826525 L 810 259.80762113533154 Z" fill="#c3cc66" stroke="#000" stroke-width="0.5" opacity="0.9"/>
  <path d="M 870 259.80762113533154 L 810 259.80762113533154 L 840 207.84609690826525 Z" fill="#dde0b8" stroke="#000" stroke-width="0.5" opacity="0.9"/>
  <path d="M 840 207.84609690826525 L 900 207.84609690826525 L 870 259.80762113533154 Z" fill="#50570f" stroke="#000" stroke-width="0.5" opacity="0.9"/>
  <path d="M 930 259.80762113533154 L 870 259.80762113533154 L 900 207.84609690826525 Z" fill="#98a329" stroke="#000" stroke-width="0.5" opacity="0.9"/>
  <path d="M 900 207.84609690826525 L 960 207.84609690826525 L 930 259.80762113533154 Z" fill="#c3cc66" stroke="#000" stroke-width="0.5" opacity="0.9"/>
  <path d="M 990 259.80762113533154 L 930 259.80762113533154 L 960 207.84609690826525 Z" fill="#dde0b8" stroke="#000" stroke-width="0.5" opacity="0.9"/>
  <path d="M -60 259.80762113533154 L 0 259.80762113533154 L -30 311.76914536239786 Z" fill="#50570f" stroke="#000" stroke-width="0.5" opacity="0.9"/>
  <path d="M 30 311.76914536239786 L -29.999999999999996 311.76914536239786 L -3.552713678800501e-15 259.80762113533154 Z" fill="#98a329" stroke="#000" stroke-width="0.5" opacity="0.9"/>
  <path d="M 0 259.80762113533154 L 60 259.80762113533154 L 30 311.76914536239786 Z" fill="#c3cc66" stroke="#000" stroke-width="0.5" opacity="0.9"/>
  <path d="M 90 311.76914536239786 L 30.000000000000004 311.76914536239786 L 60 259.80762113533154 Z" fill="#dde0b8" stroke="#000" stroke-width="0.5" opacity="0.9"/>
  <path d="M 60 259.80762113533154 L 120 259.80762113533154 L 90 311.76914536239786 Z" fill="#50570f" stroke="#000" stroke-width="0.5" opacity="0.9"/>
  <path d="M 150 311.76914536239786 L 90 311.76914536239786 L 120 259.80762113533154 Z" fill="#98a329" stroke="#000" stroke-width="0.5" opacity="0.9"/>
  <path d="M 120 259.80762113533154 L 180 259.80762113533154 L 150 311.76914536239786 Z" fill="#c3cc66" stroke="#000" stroke-width="0.5" opacity="0.9"/>
  <path d="M 210 311.76914536239786 L 150 311.76914536239786 L 180 259.80762113533154 Z" fill="#dde0b8" stroke="#000" stroke-width="0.5" opacity="0.9"/>
  <path d="M 180 259.80762113533154 L 240 259.80762113533154 L 210 311.76914536239786 Z" fill="#50570f" stroke="#000" stroke-width="0.5" opacity="0.9"/>
  <path d="M 270 311.76914536239786 L 210 311.76914536239786 L 240 259.80762113533154 Z" fill="#98a329" stroke="#000" stroke-width="0.5" opacity="0.9"/>
  <path d="M 240 259.80762113533154 L 300 259.80762113533154 L 270 311.76914536239786 Z" fill="#c3cc66" stroke="#000" stroke-width="0.5" opacity="0.9"/>
  <path d="M 330 311.76914536239786 L 270 311.76914536239786 L 300 259.80762113533154 Z" fill="#dde0b8" stroke="#000" stroke-width="0.5" opacity="0.9"/>
  <path d="M 300 259.80762113533154 L 360 259.80762113533154 L 330 311.76914536239786 Z" fill="#50570f" stroke="#000" stroke-width="0.5" opacity="0.9"/>
  <path d="M 390 311.76914536239786 L 330 311.76914536239786 L 360 259.80762113533154 Z" fill="#98a329" stroke="#000" stroke-width="0.5" opacity="0.9"/>
  <path d="M 360 259.80762113533154 L 420 259.80762113533154 L 390 311.76914536239786 Z" fill="#c3cc66" stroke="#000" stroke-width="0.5" opacity="0.9"/>
  <path d="M 450 311.76914536239786 L 390 311.76914536239786 L 420 259.80762113533154 Z" fill="#dde0b8" stroke="#000" stroke-width="0.5" opacity="0.9"/>
  <path d="M 420 259.80762113533154 L 480 259.80762113533154 L 450 311.76914536239786 Z" fill="#50570f" stroke="#000" stroke-width="0.5" opacity="0.9"/>
  <path d="M 510 311.76914536239786 L 450 311.76914536239786 L 480 259.80762113533154 Z" fill="#98a329" stroke="#000" stroke-width="0.5" opacity="0.9"/>
  <path d="M 480 259.80762113533154 L 540 259.80762113533154 L 510 311.76914536239786 Z" fill="#c3cc66" stroke="#000" stroke-width="0.5" opacity="0.9"/>
  <path d="M 570 311.76914536239786 L 510 311.76914536239786 L 540 259.80762113533154 Z" fill="#dde0b8" stroke="#000" stroke-width="0.5" opacity="0.9"/>
  <path d="M 540 259.80762113533154 L 600 259.80762113533154 L 570 311.76914536239786 Z" fill="#50570f" stroke="#000" stroke-width="0.5" opacity="0.9"/>
  <path d="M 630 311.76914536239786 L 570 311.76914536239786 L 600 259.80762113533154 Z" fill="#98a329" stroke="#000" stroke-width="0.5" opacity="0.9"/>
  <path d="M 600 259.80762113533154 L 660 259.80762113533154 L 630 311.76914536239786 Z" fill="#c3cc66" stroke="#000" stroke-width="0.5" opacity="0.9"/>
  <path d="M 690 311.76914536239786 L 630 311.76914536239786 L 660 259.80762113533154 Z" fill="#dde0b8" stroke="#000" stroke-width="0.5" opacity="0.9"/>
  <path d="M 660 259.80762113533154 L 720 259.80762113533154 L 690 311.76914536239786 Z" fill="#50570f" stroke="#000" stroke-width="0.5" opacity="0.9"/>
  <path d="M 750 311.76914536239786 L 690 311.76914536239786 L 720 259.80762113533154 Z" fill="#98a329" stroke="#000" stroke-width="0.5" opacity="0.9"/>
  <path d="M 720 259.80762113533154 L 780 259.80762113533154 L 750 311.76914536239786 Z" fill="#c3cc66" stroke="#000" stroke-width="0.5" opacity="0.9"/>
  <path d="M 810 311.76914536239786 L 750 311.76914536239786 L 780 259.80762113533154 Z" fill="#dde0b8" stroke="#000" stroke-width="0.5" opacity="0.9"/>
  <path d="M 780 259.80762113533154 L 840 259.80762113533154 L 810 311.76914536239786 Z" fill="#50570f" stroke="#000" stroke-width="0.5" opacity="0.9"/>
  <path d="M 870 311.76914536239786 L 810 311.76914536239786 L 840 259.80762113533154 Z" fill="#98a329" stroke="#000" stroke-width="0.5" opacity="0.9"/>
  <path d="M 840 259.80762113533154 L 900 259.80762113533154 L 870 311.76914536239786 Z" fill="#c3cc66" stroke="#000" stroke-width="0.5" opacity="0.9"/>
  <path d="M 930 311.76914536239786 L 870 311.76914536239786 L 900 259.80762113533154 Z" fill="#dde0b8" stroke="#000" stroke-width="0.5" opacity="0.9"/>
  <path d="M 900 259.80762113533154 L 960 259.80762113533154 L 930 311.76914536239786 Z" fill="#50570f" stroke="#000" stroke-width="0.5" opacity="0.9"/>
  <path d="M 990 311.76914536239786 L 930 311.76914536239786 L 960 259.80762113533154 Z" fill="#98a329" stroke="#000" stroke-width="0.5" opacity="0.9"/>
  <path d="M -60 311.76914536239786 L 0 311.76914536239786 L -30 363.7306695894642 Z" fill="#c3cc66" stroke="#000" stroke-width="0.5" opacity="0.9"/>
  <path d="M 30 363.7306695894642 L -29.999999999999996 363.7306695894642 L -3.552713678800501e-15 311.76914536239786 Z" fill="#dde0b8" stroke="#000" stroke-width="0.5" opacity="0.9"/>
  <path d="M 0 311.76914536239786 L 60 311.76914536239786 L 30 363.7306695894642 Z" fill="#50570f" stroke="#000" stroke-width="0.5" opacity="0.9"/>
  <path d="M 90 363.7306695894642 L 30.000000000000004 363.7306695894642 L 60 311.76914536239786 Z" fill="#98a329" stroke="#000" stroke-width="0.5" opacity="0.9"/>
  <path d="M 60 311.76914536239786 L 120 311.76914536239786 L 90 363.7306695894642 Z" fill="#c3cc66" stroke="#000" stroke-width="0.5" opacity="0.9"/>
  <path d="M 150 363.7306695894642 L 90 363.7306695894642 L 120 311.76914536239786 Z" fill="#dde0b8" stroke="#000" stroke-width="0.5" opacity="0.9"/>
  <path d="M 120 311.76914536239786 L 180 311.76914536239786 L 150 363.7306695894642 Z" fill="#50570f" stroke="#000" stroke-width="0.5" opacity="0.9"/>
  <path d="M 210 363.7306695894642 L 150 363.7306695894642 L 180 311.76914536239786 Z" fill="#98a329" stroke="#000" stroke-width="0.5" opacity="0.9"/>
  <path d="M 180 311.76914536239786 L 240 311.76914536239786 L 210 363.7306695894642 Z" fill="#c3cc66" stroke="#000" stroke-width="0.5" opacity="0.9"/>
  <path d="M 270 363.7306695894642 L 210 363.7306695894642 L 240 311.76914536239786 Z" fill="#dde0b8" stroke="#000" stroke-width="0.5" opacity="0.9"/>
  <path d="M 240 311.76914536239786 L 300 311.76914536239786 L 270 363.7306695894642 Z" fill="#50570f" stroke="#000" stroke-width="0.5" opacity="0.9"/>
  <path d="M 330 363.7306695894642 L 270 363.7306695894642 L 300 311.76914536239786 Z" fill="#98a329" stroke="#000" stroke-width="0.5" opacity="0.9"/>
  <path d="M 300 311.76914536239786 L 360 311.76914536239786 L 330 363.7306695894642 Z" fill="#c3cc66" stroke="#000" stroke-width="0.5" opacity="0.9"/>
  <path d="M 390 363.7306695894642 L 330 363.7306695894642 L 360 311.76914536239786 Z" fill="#dde0b8" stroke="#000" stroke-width="0.5" opacity="0.9"/>
  <path d="M 360 311.76914536239786 L 420 311.76914536239786 L 390 363.7306695894642 Z" fill="#50570f" stroke="#000" stroke-width="0.5" opacity="0.9"/>
  <path d="M 450 363.7306695894642 L 390 363.7306695894642 L 420 311.76914536239786 Z" fill="#98a329" stroke="#000" stroke-width="0.5" opacity="0.9"/>
  <path d="M 420 311.76914536239786 L 480 311.76914536239786 L 450 363.7306695894642 Z" fill="#c3cc66" stroke="#000" stroke-width="0.5" opacity="0.9"/>
  <path d="M 510 363.7306695894642 L 450 363.7306695894642 L 480 311.76914536239786 Z" fill="#dde0b8" stroke="#000" stroke-width="0.5" opacity="0.9"/>
  <path d="M 480 311.76914536239786 L 540 311.76914536239786 L 510 363.7306695894642 Z" fill="#50570f" stroke="#000" stroke-width="0.5" opacity="0.9"/>
  <path d="M 570 363.7306695894642 L 510 363.7306695894642 L 540 311.76914536239786 Z" fill="#98a329" stroke="#000" stroke-width="0.5" opacity="0.9"/>
  <path d="M 540 311.76914536239786 L 600 311.76914536239786 L 570 363.7306695894642 Z" fill="#c3cc66" stroke="#000" stroke-width="0.5" opacity="0.9"/>
  <path d="M 630 363.7306695894642 L 570 363.7306695894642 L 600 311.76914536239786 Z" fill="#dde0b8" stroke="#000" stroke-width="0.5" opacity="0.9"/>
  <path d="M 600 311.76914536239786 L 660 311.76914536239786 L 630 363.7306695894642 Z" fill="#50570f" stroke="#000" stroke-width="0.5" opacity="0.9"/>
  <path d="M 690 363.7306695894642 L 630 363.7306695894642 L 660 311.76914536239786 Z" fill="#98a329" stroke="#000" stroke-width="0.5" opacity="0.9"/>
  <path d="M 660 311.76914536239786 L 720 311.76914536239786 L 690 363.7306695894642 Z" fill="#c3cc66" stroke="#000" stroke-width="0.5" opacity="0.9"/>
  <path d="M 750 363.7306695894642 L 690 363.7306695894642 L 720 311.76914536239786 Z" fill="#dde0b8" stroke="#000" stroke-width="0.5" opacity="0.9"/>
  <path d="M 720 311.76914536239786 L 780 311.76914536239786 L 750 363.7306695894642 Z" fill="#50570f" stroke="#000" stroke-width="0.5" opacity="0.9"/>
  <path d="M 810 363.7306695894642 L 750 363.7306695894642 L 780 311.76914536239786 Z" fill="#98a329" stroke="#000" stroke-width="0.5" opacity="0.9"/>
  <path d="M 780 311.76914536239786 L 840 311.76914536239786 L 810 363.7306695894642 Z" fill="#c3cc66" stroke="#000" stroke-width="0.5" opacity="0.9"/>
  <path d="M 870 363.7306695894642 L 810 363.7306695894642 L 840 311.76914536239786 Z" fill="#dde0b8" stroke="#000" stroke-width="0.5" opacity="0.9"/>
  <path d="M 840 311.76914536239786 L 900 311.76914536239786 L 870 363.7306695894642 Z" fill="#50570f" stroke="#000" stroke-width="0.5" opacity="0.9"/>
  <path d="M 930 363.7306695894642 L 870 363.7306695894642 L 900 311.76914536239786 Z" fill="#98a329" stroke="#000" stroke-width="0.5" opacity="0.9"/>
  <path d="M 900 311.76914536239786 L 960 311.76914536239786 L 930 363.7306695894642 Z" fill="#c3cc66" stroke="#000" stroke-width="0.5" opacity="0.9"/>
  <path d="M 990 363.7306695894642 L 930 363.7306695894642 L 960 311.76914536239786 Z" fill="#dde0b8" stroke="#000" stroke-width="0.5" opacity="0.9"/>
  <path d="M -60 363.7306695894642 L 0 363.7306695894642 L -30 415.6921938165305 Z" fill="#50570f" stroke="#000" stroke-width="0.5" opacity="0.9"/>
  <path d="M 30 415.6921938165305 L -29.999999999999996 415.6921938165305 L -3.552713678800501e-15 363.7306695894642 Z" fill="#98a329" stroke="#000" stroke-width="0.5" opacity="0.9"/>
  <path d="M 0 363.7306695894642 L 60 363.7306695894642 L 30 415.6921938165305 Z" fill="#c3cc66" stroke="#000" stroke-width="0.5" opacity="0.9"/>
  <path d="M 90 415.6921938165305 L 30.000000000000004 415.6921938165305 L 60 363.7306695894642 Z" fill="#dde0b8" stroke="#000" stroke-width="0.5" opacity="0.9"/>
  <path d="M 60 363.7306695894642 L 120 363.7306695894642 L 90 415.6921938165305 Z" fill="#50570f" stroke="#000" stroke-width="0.5" opacity="0.9"/>
  <path d="M 150 415.6921938165305 L 90 415.6921938165305 L 120 363.7306695894642 Z" fill="#98a329" stroke="#000" stroke-width="0.5" opacity="0.9"/>
  <path d="M 120 363.7306695894642 L 180 363.7306695894642 L 150 415.6921938165305 Z" fill="#c3cc66" stroke="#000" stroke-width="0.5" opacity="0.9"/>
  <path d="M 210 415.6921938165305 L 150 415.6921938165305 L 180 363.7306695894642 Z" fill="#dde0b8" stroke="#000" stroke-width="0.5" opacity="0.9"/>
  <path d="M 180 363.7306695894642 L 240 363.7306695894642 L 210 415.6921938165305 Z" fill="#50570f" stroke="#000" stroke-width="0.5" opacity="0.9"/>
  <path d="M 270 415.6921938165305 L 210 415.6921938165305 L 240 363.7306695894642 Z" fill="#98a329" stroke="#000" stroke-width="0.5" opacity="0.9"/>
  <path d="M 240 363.7306695894642 L 300 363.7306695894642 L 270 415.6921938165305 Z" fill="#c3cc66" stroke="#000" stroke-width="0.5" opacity="0.9"/>
  <path d="M 330 415.6921938165305 L 270 415.6921938165305 L 300 363.7306695894642 Z" fill="#dde0b8" stroke="#000" stroke-width="0.5" opacity="0.9"/>
  <path d="M 300 363.7306695894642 L 360 363.7306695894642 L 330 415.6921938165305 Z" fill="#50570f" stroke="#000" stroke-width="0.5" opacity="0.9"/>
  <path d="M 390 415.6921938165305 L 330 415.6921938165305 L 360 363.7306695894642 Z" fill="#98a329" stroke="#000" stroke-width="0.5" opacity="0.9"/>
  <path d="M 360 363.7306695894642 L 420 363.7306695894642 L 390 415.6921938165305 Z" fill="#c3cc66" stroke="#000" stroke-width="0.5" opacity="0.9"/>
  <path d="M 450 415.6921938165305 L 390 415.6921938165305 L 420 363.7306695894642 Z" fill="#dde0b8" stroke="#000" stroke-width="0.5" opacity="0.9"/>
  <path d="M 420 363.7306695894642 L 480 363.7306695894642 L 450 415.6921938165305 Z" fill="#50570f" stroke="#000" stroke-width="0.5" opacity="0.9"/>
  <path d="M 510 415.6921938165305 L 450 415.6921938165305 L 480 363.7306695894642 Z" fill="#98a329" stroke="#000" stroke-width="0.5" opacity="0.9"/>
  <path d="M 480 363.7306695894642 L 540 363.7306695894642 L 510 415.6921938165305 Z" fill="#c3cc66" stroke="#000" stroke-width="0.5" opacity="0.9"/>
  <path d="M 570 415.6921938165305 L 510 415.6921938165305 L 540 363.7306695894642 Z" fill="#dde0b8" stroke="#000" stroke-width="0.5" opacity="0.9"/>
  <path d="M 540 363.7306695894642 L 600 363.7306695894642 L 570 415.6921938165305 Z" fill="#50570f" stroke="#000" stroke-width="0.5" opacity="0.9"/>
  <path d="M 630 415.6921938165305 L 570 415.6921938165305 L 600 363.7306695894642 Z" fill="#98a329" stroke="#000" stroke-width="0.5" opacity="0.9"/>
  <path d="M 600 363.7306695894642 L 660 363.7306695894642 L 630 415.6921938165305 Z" fill="#c3cc66" stroke="#000" stroke-width="0.5" opacity="0.9"/>
  <path d="M 690 415.6921938165305 L 630 415.6921938165305 L 660 363.7306695894642 Z" fill="#dde0b8" stroke="#000" stroke-width="0.5" opacity="0.9"/>
  <path d="M 660 363.7306695894642 L 720 363.7306695894642 L 690 415.6921938165305 Z" fill="#50570f" stroke="#000" stroke-width="0.5" opacity="0.9"/>
  <path d="M 750 415.6921938165305 L 690 415.6921938165305 L 720 363.7306695894642 Z" fill="#98a329" stroke="#000" stroke-width="0.5" opacity="0.9"/>
  <path d="M 720 363.7306695894642 L 780 363.7306695894642 L 750 415.6921938165305 Z" fill="#c3cc66" stroke="#000" stroke-width="0.5" opacity="0.9"/>
  <path d="M 810 415.6921938165305 L 750 415.6921938165305 L 780 363.7306695894642 Z" fill="#dde0b8" stroke="#000" stroke-width="0.5" opacity="0.9"/>
  <path d="M 780 363.7306695894642 L 840 363.7306695894642 L 810 415.6921938165305 Z" fill="#50570f" stroke="#000" stroke-width="0.5" opacity="0.9"/>
  <path d="M 870 415.6921938165305 L 810 415.6921938165305 L 840 363.7306695894642 Z" fill="#98a329" stroke="#000" stroke-width="0.5" opacity="0.9"/>
  <path d="M 840 363.7306695894642 L 900 363.7306695894642 L 870 415.6921938165305 Z" fill="#c3cc66" stroke="#000" stroke-width="0.5" opacity="0.9"/>
  <path d="M 930 415.6921938165305 L 870 415.6921938165305 L 900 363.7306695894642 Z" fill="#dde0b8" stroke="#000" stroke-width="0.5" opacity="0.9"/>
  <path d="M 900 363.7306695894642 L 960 363.7306695894642 L 930 415.6921938165305 Z" fill="#50570f" stroke="#000" stroke-width="0.5" opacity="0.9"/>
  <path d="M 990 415.6921938165305 L 930 415.6921938165305 L 960 363.7306695894642 Z" fill="#98a329" stroke="#000" stroke-width="0.5" opacity="0.9"/>
  <path d="M -60 415.6921938165305 L 0 415.6921938165305 L -30 467.6537180435968 Z" fill="#c3cc66" stroke="#000" stroke-width="0.5" opacity="0.9"/>
  <path d="M 30 467.6537180435968 L -29.999999999999996 467.6537180435968 L -3.552713678800501e-15 415.6921938165305 Z" fill="#dde0b8" stroke="#000" stroke-width="0.5" opacity="0.9"/>
  <path d="M 0 415.6921938165305 L 60 415.6921938165305 L 30 467.6537180435968 Z" fill="#50570f" stroke="#000" stroke-width="0.5" opacity="0.9"/>
  <path d="M 90 467.6537180435968 L 30.000000000000004 467.6537180435968 L 60 415.6921938165305 Z" fill="#98a329" stroke="#000" stroke-width="0.5" opacity="0.9"/>
  <path d="M 60 415.6921938165305 L 120 415.6921938165305 L 90 467.6537180435968 Z" fill="#c3cc66" stroke="#000" stroke-width="0.5" opacity="0.9"/>
  <path d="M 150 467.6537180435968 L 90 467.6537180435968 L 120 415.6921938165305 Z" fill="#dde0b8" stroke="#000" stroke-width="0.5" opacity="0.9"/>
  <path d="M 120 415.6921938165305 L 180 415.6921938165305 L 150 467.6537180435968 Z" fill="#50570f" stroke="#000" stroke-width="0.5" opacity="0.9"/>
  <path d="M 210 467.6537180435968 L 150 467.6537180435968 L 180 415.6921938165305 Z" fill="#98a329" stroke="#000" stroke-width="0.5" opacity="0.9"/>
  <path d="M 180 415.6921938165305 L 240 415.6921938165305 L 210 467.6537180435968 Z" fill="#c3cc66" stroke="#000" stroke-width="0.5" opacity="0.9"/>
  <path d="M 270 467.6537180435968 L 210 467.6537180435968 L 240 415.6921938165305 Z" fill="#dde0b8" stroke="#000" stroke-width="0.5" opacity="0.9"/>
  <path d="M 240 415.6921938165305 L 300 415.6921938165305 L 270 467.6537180435968 Z" fill="#50570f" stroke="#000" stroke-width="0.5" opacity="0.9"/>
  <path d="M 330 467.6537180435968 L 270 467.6537180435968 L 300 415.6921938165305 Z" fill="#98a329" stroke="#000" stroke-width="0.5" opacity="0.9"/>
  <path d="M 300 415.6921938165305 L 360 415.6921938165305 L 330 467.6537180435968 Z" fill="#c3cc66" stroke="#000" stroke-width="0.5" opacity="0.9"/>
  <path d="M 390 467.6537180435968 L 330 467.6537180435968 L 360 415.6921938165305 Z" fill="#dde0b8" stroke="#000" stroke-width="0.5" opacity="0.9"/>
  <path d="M 360 415.6921938165305 L 420 415.6921938165305 L 390 467.6537180435968 Z" fill="#50570f" stroke="#000" stroke-width="0.5" opacity="0.9"/>
  <path d="M 450 467.6537180435968 L 390 467.6537180435968 L 420 415.6921938165305 Z" fill="#98a329" stroke="#000" stroke-width="0.5" opacity="0.9"/>
  <path d="M 420 415.6921938165305 L 480 415.6921938165305 L 450 467.6537180435968 Z" fill="#c3cc66" stroke="#000" stroke-width="0.5" opacity="0.9"/>
  <path d="M 510 467.6537180435968 L 450 467.6537180435968 L 480 415.6921938165305 Z" fill="#dde0b8" stroke="#000" stroke-width="0.5" opacity="0.9"/>
  <path d="M 480 415.6921938165305 L 540 415.6921938165305 L 510 467.6537180435968 Z" fill="#50570f" stroke="#000" stroke-width="0.5" opacity="0.9"/>
  <path d="M 570 467.6537180435968 L 510 467.6537180435968 L 540 415.6921938165305 Z" fill="#98a329" stroke="#000" stroke-width="0.5" opacity="0.9"/>
  <path d="M 540 415.6921938165305 L 600 415.6921938165305 L 570 467.6537180435968 Z" fill="#c3cc66" stroke="#000" stroke-width="0.5" opacity="0.9"/>
  <path d="M 630 467.6537180435968 L 570 467.6537180435968 L 600 415.6921938165305 Z" fill="#dde0b8" stroke="#000" stroke-width="0.5" opacity="0.9"/>
  <path d="M 600 415.6921938165305 L 660 415.6921938165305 L 630 467.6537180435968 Z" fill="#50570f" stroke="#000" stroke-width="0.5" opacity="0.9"/>
  <path d="M 690 467.6537180435968 L 630 467.6537180435968 L 660 415.6921938165305 Z" fill="#98a329" stroke="#000" stroke-width="0.5" opacity="0.9"/>
  <path d="M 660 415.6921938165305 L 720 415.6921938165305 L 690 467.6537180435968 Z" fill="#c3cc66" stroke="#000" stroke-width="0.5" opacity="0.9"/>
  <path d="M 750 467.6537180435968 L 690 467.6537180435968 L 720 415.6921938165305 Z" fill="#dde0b8" stroke="#000" stroke-width="0.5" opacity="0.9"/>
  <path d="M 720 415.6921938165305 L 780 415.6921938165305 L 750 467.6537180435968 Z" fill="#50570f" stroke="#000" stroke-width="0.5" opacity="0.9"/>
  <path d="M 810 467.6537180435968 L 750 467.6537180435968 L 780 415.6921938165305 Z" fill="#98a329" stroke="#000" stroke-width="0.5" opacity="0.9"/>
  <path d="M 780 415.6921938165305 L 840 415.6921938165305 L 810 467.6537180435968 Z" fill="#c3cc66" stroke="#000" stroke-width="0.5" opacity="0.9"/>
  <path d="M 870 467.6537180435968 L 810 467.6537180435968 L 840 415.6921938165305 Z" fill="#dde0b8" stroke="#000" stroke-width="0.5" opacity="0.9"/>
  <path d="M 840 415.6921938165305 L 900 415.6921938165305 L 870 467.6537180435968 Z" fill="#50570f" stroke="#000" stroke-width="0.5" opacity="0.9"/>
  <path d="M 930 467.6537180435968 L 870 467.6537180435968 L 900 415.6921938165305 Z" fill="#98a329" stroke="#000" stroke-width="0.5" opacity="0.9"/>
  <path d="M 900 415.6921938165305 L 960 415.6921938165305 L 930 467.6537180435968 Z" fill="#c3cc66" stroke="#000" stroke-width="0.5" opacity="0.9"/>
  <path d="M 990 467.6537180435968 L 930 467.6537180435968 L 960 415.6921938165305 Z" fill="#dde0b8" stroke="#000" stroke-width="0.5" opacity="0.9"/>
  <path d="M -60 467.6537180435968 L 0 467.6537180435968 L -30 519.6152422706631 Z" fill="#50570f" stroke="#000" stroke-width="0.5" opacity="0.9"/>
  <path d="M 30 519.6152422706632 L -29.999999999999996 519.6152422706632 L -3.552713678800501e-15 467.6537180435968 Z" fill="#98a329" stroke="#000" stroke-width="0.5" opacity="0.9"/>
  <path d="M 0 467.6537180435968 L 60 467.6537180435968 L 30 519.6152422706631 Z" fill="#c3cc66" stroke="#000" stroke-width="0.5" opacity="0.9"/>
  <path d="M 90 519.6152422706632 L 30.000000000000004 519.6152422706632 L 60 467.6537180435968 Z" fill="#dde0b8" stroke="#000" stroke-width="0.5" opacity="0.9"/>
  <path d="M 60 467.6537180435968 L 120 467.6537180435968 L 90 519.6152422706631 Z" fill="#50570f" stroke="#000" stroke-width="0.5" opacity="0.9"/>
  <path d="M 150 519.6152422706632 L 90 519.6152422706632 L 120 467.6537180435968 Z" fill="#98a329" stroke="#000" stroke-width="0.5" opacity="0.9"/>
  <path d="M 120 467.6537180435968 L 180 467.6537180435968 L 150 519.6152422706631 Z" fill="#c3cc66" stroke="#000" stroke-width="0.5" opacity="0.9"/>
  <path d="M 210 519.6152422706632 L 150 519.6152422706632 L 180 467.6537180435968 Z" fill="#dde0b8" stroke="#000" stroke-width="0.5" opacity="0.9"/>
  <path d="M 180 467.6537180435968 L 240 467.6537180435968 L 210 519.6152422706631 Z" fill="#50570f" stroke="#000" stroke-width="0.5" opacity="0.9"/>
  <path d="M 270 519.6152422706632 L 210 519.6152422706632 L 240 467.6537180435968 Z" fill="#98a329" stroke="#000" stroke-width="0.5" opacity="0.9"/>
  <path d="M 240 467.6537180435968 L 300 467.6537180435968 L 270 519.6152422706631 Z" fill="#c3cc66" stroke="#000" stroke-width="0.5" opacity="0.9"/>
  <path d="M 330 519.6152422706632 L 270 519.6152422706632 L 300 467.6537180435968 Z" fill="#dde0b8" stroke="#000" stroke-width="0.5" opacity="0.9"/>
  <path d="M 300 467.6537180435968 L 360 467.6537180435968 L 330 519.6152422706631 Z" fill="#50570f" stroke="#000" stroke-width="0.5" opacity="0.9"/>
  <path d="M 390 519.6152422706632 L 330 519.6152422706632 L 360 467.6537180435968 Z" fill="#98a329" stroke="#000" stroke-width="0.5" opacity="0.9"/>
  <path d="M 360 467.6537180435968 L 420 467.6537180435968 L 390 519.6152422706631 Z" fill="#c3cc66" stroke="#000" stroke-width="0.5" opacity="0.9"/>
  <path d="M 450 519.6152422706632 L 390 519.6152422706632 L 420 467.6537180435968 Z" fill="#dde0b8" stroke="#000" stroke-width="0.5" opacity="0.9"/>
  <path d="M 420 467.6537180435968 L 480 467.6537180435968 L 450 519.6152422706631 Z" fill="#50570f" stroke="#000" stroke-width="0.5" opacity="0.9"/>
  <path d="M 510 519.6152422706632 L 450 519.6152422706632 L 480 467.6537180435968 Z" fill="#98a329" stroke="#000" stroke-width="0.5" opacity="0.9"/>
  <path d="M 480 467.6537180435968 L 540 467.6537180435968 L 510 519.6152422706631 Z" fill="#c3cc66" stroke="#000" stroke-width="0.5" opacity="0.9"/>
  <path d="M 570 519.6152422706632 L 510 519.6152422706632 L 540 467.6537180435968 Z" fill="#dde0b8" stroke="#000" stroke-width="0.5" opacity="0.9"/>
  <path d="M 540 467.6537180435968 L 600 467.6537180435968 L 570 519.6152422706631 Z" fill="#50570f" stroke="#000" stroke-width="0.5" opacity="0.9"/>
  <path d="M 630 519.6152422706632 L 570 519.6152422706632 L 600 467.6537180435968 Z" fill="#98a329" stroke="#000" stroke-width="0.5" opacity="0.9"/>
  <path d="M 600 467.6537180435968 L 660 467.6537180435968 L 630 519.6152422706631 Z" fill="#c3cc66" stroke="#000" stroke-width="0.5" opacity="0.9"/>
  <path d="M 690 519.6152422706632 L 630 519.6152422706632 L 660 467.6537180435968 Z" fill="#dde0b8" stroke="#000" stroke-width="0.5" opacity="0.9"/>
  <path d="M 660 467.6537180435968 L 720 467.6537180435968 L 690 519.6152422706631 Z" fill="#50570f" stroke="#000" stroke-width="0.5" opacity="0.9"/>
  <path d="M 750 519.6152422706632 L 690 519.6152422706632 L 720 467.6537180435968 Z" fill="#98a329" stroke="#000" stroke-width="0.5" opacity="0.9"/>
  <path d="M 720 467.6537180435968 L 780 467.6537180435968 L 750 519.6152422706631 Z" fill="#c3cc66" stroke="#000" stroke-width="0.5" opacity="0.9"/>
  <path d="M 810 519.6152422706632 L 750 519.6152422706632 L 780 467.6537180435968 Z" fill="#dde0b8" stroke="#000" stroke-width="0.5" opacity="0.9"/>
  <path d="M 780 467.6537180435968 L 840 467.6537180435968 L 810 519.6152422706631 Z" fill="#50570f" stroke="#000" stroke-width="0.5" opacity="0.9"/>
  <path d="M 870 519.6152422706632 L 810 519.6152422706632 L 840 467.6537180435968 Z" fill="#98a329" stroke="#000" stroke-width="0.5" opacity="0.9"/>
  <path d="M 840 467.6537180435968 L 900 467.6537180435968 L 870 519.6152422706631 Z" fill="#c3cc66" stroke="#000" stroke-width="0.5" opacity="0.9"/>
  <path d="M 930 519.6152422706632 L 870 519.6152422706632 L 900 467.6537180435968 Z" fill="#dde0b8" stroke="#000" stroke-width="0.5" opacity="0.9"/>
  <path d="M 900 467.6537180435968 L 960 467.6537180435968 L 930 519.6152422706631 Z" fill="#50570f" stroke="#000" stroke-width="0.5" opacity="0.9"/>
  <path d="M 990 519.6152422706632 L 930 519.6152422706632 L 960 467.6537180435968 Z" fill="#98a329" stroke="#000" stroke-width="0.5" opacity="0.9"/>
  <path d="M -60 519.6152422706631 L 0 519.6152422706631 L -30 571.5767664977294 Z" fill="#c3cc66" stroke="#000" stroke-width="0.5" opacity="0.9"/>
  <path d="M 30 571.5767664977294 L -29.999999999999996 571.5767664977294 L -3.552713678800501e-15 519.6152422706631 Z" fill="#dde0b8" stroke="#000" stroke-width="0.5" opacity="0.9"/>
  <path d="M 0 519.6152422706631 L 60 519.6152422706631 L 30 571.5767664977294 Z" fill="#50570f" stroke="#000" stroke-width="0.5" opacity="0.9"/>
  <path d="M 90 571.5767664977294 L 30.000000000000004 571.5767664977294 L 60 519.6152422706631 Z" fill="#98a329" stroke="#000" stroke-width="0.5" opacity="0.9"/>
  <path d="M 60 519.6152422706631 L 120 519.6152422706631 L 90 571.5767664977294 Z" fill="#c3cc66" stroke="#000" stroke-width="0.5" opacity="0.9"/>
  <path d="M 150 571.5767664977294 L 90 571.5767664977294 L 120 519.6152422706631 Z" fill="#dde0b8" stroke="#000" stroke-width="0.5" opacity="0.9"/>
  <path d="M 120 519.6152422706631 L 180 519.6152422706631 L 150 571.5767664977294 Z" fill="#50570f" stroke="#000" stroke-width="0.5" opacity="0.9"/>
  <path d="M 210 571.5767664977294 L 150 571.5767664977294 L 180 519.6152422706631 Z" fill="#98a329" stroke="#000" stroke-width="0.5" opacity="0.9"/>
  <path d="M 180 519.6152422706631 L 240 519.6152422706631 L 210 571.5767664977294 Z" fill="#c3cc66" stroke="#000" stroke-width="0.5" opacity="0.9"/>
  <path d="M 270 571.5767664977294 L 210 571.5767664977294 L 240 519.6152422706631 Z" fill="#dde0b8" stroke="#000" stroke-width="0.5" opacity="0.9"/>
  <path d="M 240 519.6152422706631 L 300 519.6152422706631 L 270 571.5767664977294 Z" fill="#50570f" stroke="#000" stroke-width="0.5" opacity="0.9"/>
  <path d="M 330 571.5767664977294 L 270 571.5767664977294 L 300 519.6152422706631 Z" fill="#98a329" stroke="#000" stroke-width="0.5" opacity="0.9"/>
  <path d="M 300 519.6152422706631 L 360 519.6152422706631 L 330 571.5767664977294 Z" fill="#c3cc66" stroke="#000" stroke-width="0.5" opacity="0.9"/>
  <path d="M 390 571.5767664977294 L 330 571.5767664977294 L 360 519.6152422706631 Z" fill="#dde0b8" stroke="#000" stroke-width="0.5" opacity="0.9"/>
  <path d="M 360 519.6152422706631 L 420 519.6152422706631 L 390 571.5767664977294 Z" fill="#50570f" stroke="#000" stroke-width="0.5" opacity="0.9"/>
  <path d="M 450 571.5767664977294 L 390 571.5767664977294 L 420 519.6152422706631 Z" fill="#98a329" stroke="#000" stroke-width="0.5" opacity="0.9"/>
  <path d="M 420 519.6152422706631 L 480 519.6152422706631 L 450 571.5767664977294 Z" fill="#c3cc66" stroke="#000" stroke-width="0.5" opacity="0.9"/>
  <path d="M 510 571.5767664977294 L 450 571.5767664977294 L 480 519.6152422706631 Z" fill="#dde0b8" stroke="#000" stroke-width="0.5" opacity="0.9"/>
  <path d="M 480 519.6152422706631 L 540 519.6152422706631 L 510 571.5767664977294 Z" fill="#50570f" stroke="#000" stroke-width="0.5" opacity="0.9"/>
  <path d="M 570 571.5767664977294 L 510 571.5767664977294 L 540 519.6152422706631 Z" fill="#98a329" stroke="#000" stroke-width="0.5" opacity="0.9"/>
  <path d="M 540 519.6152422706631 L 600 519.6152422706631 L 570 571.5767664977294 Z" fill="#c3cc66" stroke="#000" stroke-width="0.5" opacity="0.9"/>
  <path d="M 630 571.5767664977294 L 570 571.5767664977294 L 600 519.6152422706631 Z" fill="#dde0b8" stroke="#000" stroke-width="0.5" opacity="0.9"/>
  <path d="M 600 519.6152422706631 L 660 519.6152422706631 L 630 571.5767664977294 Z" fill="#50570f" stroke="#000" stroke-width="0.5" opacity="0.9"/>
  <path d="M 690 571.5767664977294 L 630 571.5767664977294 L 660 519.6152422706631 Z" fill="#98a329" stroke="#000" stroke-width="0.5" opacity="0.9"/>
  <path d="M 660 519.6152422706631 L 720 519.6152422706631 L 690 571.5767664977294 Z" fill="#c3cc66" stroke="#000" stroke-width="0.5" opacity="0.9"/>
  <path d="M 750 571.5767664977294 L 690 571.5767664977294 L 720 519.6152422706631 Z" fill="#dde0b8" stroke="#000" stroke-width="0.5" opacity="0.9"/>
  <path d="M 720 519.6152422706631 L 780 519.6152422706631 L 750 571.5767664977294 Z" fill="#50570f" stroke="#000" stroke-width="0.5" opacity="0.9"/>
  <path d="M 810 571.5767664977294 L 750 571.5767664977294 L 780 519.6152422706631 Z" fill="#98a329" stroke="#000" stroke-width="0.5" opacity="0.9"/>
  <path d="M 780 519.6152422706631 L 840 519.6152422706631 L 810 571.5767664977294 Z" fill="#c3cc66" stroke="#000" stroke-width="0.5" opacity="0.9"/>
  <path d="M 870 571.5767664977294 L 810 571.5767664977294 L 840 519.6152422706631 Z" fill="#dde0b8" stroke="#000" stroke-width="0.5" opacity="0.9"/>
  <path d="M 840 519.6152422706631 L 900 519.6152422706631 L 870 571.5767664977294 Z" fill="#50570f" stroke="#000" stroke-width="0.5" opacity="0.9"/>
  <path d="M 930 571.5767664977294 L 870 571.5767664977294 L 900 519.6152422706631 Z" fill="#98a329" stroke="#000" stroke-width="0.5" opacity="0.9"/>
  <path d="M 900 519.6152422706631 L 960 519.6152422706631 L 930 571.5767664977294 Z" fill="#c3cc66" stroke="#000" stroke-width="0.5" opacity="0.9"/>
  <path d="M 990 571.5767664977294 L 930 571.5767664977294 L 960 519.6152422706631 Z" fill="#dde0b8" stroke="#000" stroke-width="0.5" opacity="0.9"/>
  <path d="M -60 571.5767664977294 L 0 571.5767664977294 L -30 623.5382907247957 Z" fill="#50570f" stroke="#000" stroke-width="0.5" opacity="0.9"/>
  <path d="M 30 623.5382907247957 L -29.999999999999996 623.5382907247957 L -3.552713678800501e-15 571.5767664977294 Z" fill="#98a329" stroke="#000" stroke-width="0.5" opacity="0.9"/>
  <path d="M 0 571.5767664977294 L 60 571.5767664977294 L 30 623.5382907247957 Z" fill="#c3cc66" stroke="#000" stroke-width="0.5" opacity="0.9"/>
  <path d="M 90 623.5382907247957 L 30.000000000000004 623.5382907247957 L 60 571.5767664977294 Z" fill="#dde0b8" stroke="#000" stroke-width="0.5" opacity="0.9"/>
  <path d="M 60 571.5767664977294 L 120 571.5767664977294 L 90 623.5382907247957 Z" fill="#50570f" stroke="#000" stroke-width="0.5" opacity="0.9"/>
  <path d="M 150 623.5382907247957 L 90 623.5382907247957 L 120 571.5767664977294 Z" fill="#98a329" stroke="#000" stroke-width="0.5" opacity="0.9"/>
  <path d="M 120 571.5767664977294 L 180 571.5767664977294 L 150 623.5382907247957 Z" fill="#c3cc66" stroke="#000" stroke-width="0.5" opacity="0.9"/>
  <path d="M 210 623.5382907247957 L 150 623.5382907247957 L 180 571.5767664977294 Z" fill="#dde0b8" stroke="#000" stroke-width="0.5" opacity="0.9"/>
  <path d="M 180 571.5767664977294 L 240 571.5767664977294 L 210 623.5382907247957 Z" fill="#50570f" stroke="#000" stroke-width="0.5" opacity="0.9"/>
  <path d="M 270 623.5382907247957 L 210 623.5382907247957 L 240 571.5767664977294 Z" fill="#98a329" stroke="#000" stroke-width="0.5" opacity="0.9"/>
  <path d="M 240 571.5767664977294 L 300 571.5767664977294 L 270 623.5382907247957 Z" fill="#c3cc66" stroke="#000" stroke-width="0.5" opacity="0.9"/>
  <path d="M 330 623.5382907247957 L 270 623.5382907247957 L 300 571.5767664977294 Z" fill="#dde0b8" stroke="#000" stroke-width="0.5" opacity="0.9"/>
  <path d="M 300 571.5767664977294 L 360 571.5767664977294 L 330 623.5382907247957 Z" fill="#50570f" stroke="#000" stroke-width="0.5" opacity="0.9"/>
  <path d="M 390 623.5382907247957 L 330 623.5382907247957 L 360 571.5767664977294 Z" fill="#98a329" stroke="#000" stroke-width="0.5" opacity="0.9"/>
  <path d="M 360 571.5767664977294 L 420 571.5767664977294 L 390 623.5382907247957 Z" fill="#c3cc66" stroke="#000" stroke-width="0.5" opacity="0.9"/>
  <path d="M 450 623.5382907247957 L 390 623.5382907247957 L 420 571.5767664977294 Z" fill="#dde0b8" stroke="#000" stroke-width="0.5" opacity="0.9"/>
  <path d="M 420 571.5767664977294 L 480 571.5767664977294 L 450 623.5382907247957 Z" fill="#50570f" stroke="#000" stroke-width="0.5" opacity="0.9"/>
  <path d="M 510 623.5382907247957 L 450 623.5382907247957 L 480 571.5767664977294 Z" fill="#98a329" stroke="#000" stroke-width="0.5" opacity="0.9"/>
  <path d="M 480 571.5767664977294 L 540 571.5767664977294 L 510 623.5382907247957 Z" fill="#c3cc66" stroke="#000" stroke-width="0.5" opacity="0.9"/>
  <path d="M 570 623.5382907247957 L 510 623.5382907247957 L 540 571.5767664977294 Z" fill="#dde0b8" stroke="#000" stroke-width="0.5" opacity="0.9"/>
  <path d="M 540 571.5767664977294 L 600 571.5767664977294 L 570 623.5382907247957 Z" fill="#50570f" stroke="#000" stroke-width="0.5" opacity="0.9"/>
  <path d="M 630 623.5382907247957 L 570 623.5382907247957 L 600 571.5767664977294 Z" fill="#98a329" stroke="#000" stroke-width="0.5" opacity="0.9"/>
  <path d="M 600 571.5767664977294 L 660 571.5767664977294 L 630 623.5382907247957 Z" fill="#c3cc66" stroke="#000" stroke-width="0.5" opacity="0.9"/>
  <path d="M 690 623.5382907247957 L 630 623.5382907247957 L 660 571.5767664977294 Z" fill="#dde0b8" stroke="#000" stroke-width="0.5" opacity="0.9"/>
  <path d="M 660 571.5767664977294 L 720 571.5767664977294 L 690 623.5382907247957 Z" fill="#50570f" stroke="#000" stroke-width="0.5" opacity="0.9"/>
  <path d="M 750 623.5382907247957 L 690 623.5382907247957 L 720 571.5767664977294 Z" fill="#98a329" stroke="#000" stroke-width="0.5" opacity="0.9"/>
  <path d="M 720 571.5767664977294 L 780 571.5767664977294 L 750 623.5382907247957 Z" fill="#c3cc66" stroke="#000" stroke-width="0.5" opacity="0.9"/>
  <path d="M 810 623.5382907247957 L 750 623.5382907247957 L 780 571.5767664977294 Z" fill="#dde0b8" stroke="#000" stroke-width="0.5" opacity="0.9"/>
  <path d="M 780 571.5767664977294 L 840 571.5767664977294 L 810 623.5382907247957 Z" fill="#50570f" stroke="#000" stroke-width="0.5" opacity="0.9"/>
  <path d="M 870 623.5382907247957 L 810 623.5382907247957 L 840 571.5767664977294 Z" fill="#98a329" stroke="#000" stroke-width="0.5" opacity="0.9"/>
  <path d="M 840 571.5767664977294 L 900 571.5767664977294 L 870 623.5382907247957 Z" fill="#c3cc66" stroke="#000" stroke-width="0.5" opacity="0.9"/>
  <path d="M 930 623.5382907247957 L 870 623.5382907247957 L 900 571.5767664977294 Z" fill="#dde0b8" stroke="#000" stroke-width="0.5" opacity="0.9"/>
  <path d="M 900 571.5767664977294 L 960 571.5767664977294 L 930 623.5382907247957 Z" fill="#50570f" stroke="#000" stroke-width="0.5" opacity="0.9"/>
  <path d="M 990 623.5382907247957 L 930 623.5382907247957 L 960 571.5767664977294 Z" fill="#98a329" stroke="#000" stroke-width="0.5" opacity="0.9"/>
  <path d="M -60 623.5382907247957 L 0 623.5382907247957 L -30 675.499814951862 Z" fill="#c3cc66" stroke="#000" stroke-width="0.5" opacity="0.9"/>
  <path d="M 30 675.499814951862 L -29.999999999999996 675.499814951862 L -3.552713678800501e-15 623.5382907247957 Z" fill="#dde0b8" stroke="#000" stroke-width="0.5" opacity="0.9"/>
  <path d="M 0 623.5382907247957 L 60 623.5382907247957 L 30 675.499814951862 Z" fill="#50570f" stroke="#000" stroke-width="0.5" opacity="0.9"/>
  <path d="M 90 675.499814951862 L 30.000000000000004 675.499814951862 L 60 623.5382907247957 Z" fill="#98a329" stroke="#000" stroke-width="0.5" opacity="0.9"/>
  <path d="M 60 623.5382907247957 L 120 623.5382907247957 L 90 675.499814951862 Z" fill="#c3cc66" stroke="#000" stroke-width="0.5" opacity="0.9"/>
  <path d="M 150 675.499814951862 L 90 675.499814951862 L 120 623.5382907247957 Z" fill="#dde0b8" stroke="#000" stroke-width="0.5" opacity="0.9"/>
  <path d="M 120 623.5382907247957 L 180 623.5382907247957 L 150 675.499814951862 Z" fill="#50570f" stroke="#000" stroke-width="0.5" opacity="0.9"/>
  <path d="M 210 675.499814951862 L 150 675.499814951862 L 180 623.5382907247957 Z" fill="#98a329" stroke="#000" stroke-width="0.5" opacity="0.9"/>
  <path d="M 180 623.5382907247957 L 240 623.5382907247957 L 210 675.499814951862 Z" fill="#c3cc66" stroke="#000" stroke-width="0.5" opacity="0.9"/>
  <path d="M 270 675.499814951862 L 210 675.499814951862 L 240 623.5382907247957 Z" fill="#dde0b8" stroke="#000" stroke-width="0.5" opacity="0.9"/>
  <path d="M 240 623.5382907247957 L 300 623.5382907247957 L 270 675.499814951862 Z" fill="#50570f" stroke="#000" stroke-width="0.5" opacity="0.9"/>
  <path d="M 330 675.499814951862 L 270 675.499814951862 L 300 623.5382907247957 Z" fill="#98a329" stroke="#000" stroke-width="0.5" opacity="0.9"/>
  <path d="M 300 623.5382907247957 L 360 623.5382907247957 L 330 675.499814951862 Z" fill="#c3cc66" stroke="#000" stroke-width="0.5" opacity="0.9"/>
  <path d="M 390 675.499814951862 L 330 675.499814951862 L 360 623.5382907247957 Z" fill="#dde0b8" stroke="#000" stroke-width="0.5" opacity="0.9"/>
  <path d="M 360 623.5382907247957 L 420 623.5382907247957 L 390 675.499814951862 Z" fill="#50570f" stroke="#000" stroke-width="0.5" opacity="0.9"/>
  <path d="M 450 675.499814951862 L 390 675.499814951862 L 420 623.5382907247957 Z" fill="#98a329" stroke="#000" stroke-width="0.5" opacity="0.9"/>
  <path d="M 420 623.5382907247957 L 480 623.5382907247957 L 450 675.499814951862 Z" fill="#c3cc66" stroke="#000" stroke-width="0.5" opacity="0.9"/>
  <path d="M 510 675.499814951862 L 450 675.499814951862 L 480 623.5382907247957 Z" fill="#dde0b8" stroke="#000" stroke-width="0.5" opacity="0.9"/>
  <path d="M 480 623.5382907247957 L 540 623.5382907247957 L 510 675.499814951862 Z" fill="#50570f" stroke="#000" stroke-width="0.5" opacity="0.9"/>
  <path d="M 570 675.499814951862 L 510 675.499814951862 L 540 623.5382907247957 Z" fill="#98a329" stroke="#000" stroke-width="0.5" opacity="0.9"/>
  <path d="M 540 623.5382907247957 L 600 623.5382907247957 L 570 675.499814951862 Z" fill="#c3cc66" stroke="#000" stroke-width="0.5" opacity="0.9"/>
  <path d="M 630 675.499814951862 L 570 675.499814951862 L 600 623.5382907247957 Z" fill="#dde0b8" stroke="#000" stroke-width="0.5" opacity="0.9"/>
  <path d="M 600 623.5382907247957 L 660 623.5382907247957 L 630 675.499814951862 Z" fill="#50570f" stroke="#000" stroke-width="0.5" opacity="0.9"/>
  <path d="M 690 675.499814951862 L 630 675.499814951862 L 660 623.5382907247957 Z" fill="#98a329" stroke="#000" stroke-width="0.5" opacity="0.9"/>
  <path d="M 660 623.5382907247957 L 720 623.5382907247957 L 690 675.499814951862 Z" fill="#c3cc66" stroke="#000" stroke-width="0.5" opacity="0.9"/>
  <path d="M 750 675.499814951862 L 690 675.499814951862 L 720 623.5382907247957 Z" fill="#dde0b8" stroke="#000" stroke-width="0.5" opacity="0.9"/>
  <path d="M 720 623.5382907247957 L 780 623.5382907247957 L 750 675.499814951862 Z" fill="#50570f" stroke="#000" stroke-width="0.5" opacity="0.9"/>
  <path d="M 810 675.499814951862 L 750 675.499814951862 L 780 623.5382907247957 Z" fill="#98a329" stroke="#000" stroke-width="0.5" opacity="0.9"/>
  <path d="M 780 623.5382907247957 L 840 623.5382907247957 L 810 675.499814951862 Z" fill="#c3cc66" stroke="#000" stroke-width="0.5" opacity="0.9"/>
  <path d="M 870 675.499814951862 L 810 675.499814951862 L 840 623.5382907247957 Z" fill="#dde0b8" stroke="#000" stroke-width="0.5" opacity="0.9"/>
  <path d="M 840 623.5382907247957 L 900 623.5382907247957 L 870 675.499814951862 Z" fill="#50570f" stroke="#000" stroke-width="0.5" opacity="0.9"/>
  <path d="M 930 675.499814951862 L 870 675.499814951862 L 900 623.5382907247957 Z" fill="#98a329" stroke="#000" stroke-width="0.5" opacity="0.9"/>
  <path d="M 900 623.5382907247957 L 960 623.5382907247957 L 930 675.499814951862 Z" fill="#c3cc66" stroke="#000" stroke-width="0.5" opacity="0.9"/>
  <path d="M 990 675.499814951862 L 930 675.499814951862 L 960 623.5382907247957 Z" fill="#dde0b8" stroke="#000" stroke-width="0.5" opacity="0.9"/>
  <path d="M -60 675.499814951862 L 0 675.499814951862 L -30 727.4613391789284 Z" fill="#50570f" stroke="#000" stroke-width="0.5" opacity="0.9"/>
  <path d="M 30 727.4613391789284 L -29.999999999999996 727.4613391789284 L -3.552713678800501e-15 675.499814951862 Z" fill="#98a329" stroke="#000" stroke-width="0.5" opacity="0.9"/>
  <path d="M 0 675.499814951862 L 60 675.499814951862 L 30 727.4613391789284 Z" fill="#c3cc66" stroke="#000" stroke-width="0.5" opacity="0.9"/>
  <path d="M 90 727.4613391789284 L 30.000000000000004 727.4613391789284 L 60 675.499814951862 Z" fill="#dde0b8" stroke="#000" stroke-width="0.5" opacity="0.9"/>
  <path d="M 60 675.499814951862 L 120 675.499814951862 L 90 727.4613391789284 Z" fill="#50570f" stroke="#000" stroke-width="0.5" opacity="0.9"/>
  <path d="M 150 727.4613391789284 L 90 727.4613391789284 L 120 675.499814951862 Z" fill="#98a329" stroke="#000" stroke-width="0.5" opacity="0.9"/>
  <path d="M 120 675.499814951862 L 180 675.499814951862 L 150 727.4613391789284 Z" fill="#c3cc66" stroke="#000" stroke-width="0.5" opacity="0.9"/>
  <path d="M 210 727.4613391789284 L 150 727.4613391789284 L 180 675.499814951862 Z" fill="#dde0b8" stroke="#000" stroke-width="0.5" opacity="0.9"/>
  <path d="M 180 675.499814951862 L 240 675.499814951862 L 210 727.4613391789284 Z" fill="#50570f" stroke="#000" stroke-width="0.5" opacity="0.9"/>
  <path d="M 270 727.4613391789284 L 210 727.4613391789284 L 240 675.499814951862 Z" fill="#98a329" stroke="#000" stroke-width="0.5" opacity="0.9"/>
  <path d="M 240 675.499814951862 L 300 675.499814951862 L 270 727.4613391789284 Z" fill="#c3cc66" stroke="#000" stroke-width="0.5" opacity="0.9"/>
  <path d="M 330 727.4613391789284 L 270 727.4613391789284 L 300 675.499814951862 Z" fill="#dde0b8" stroke="#000" stroke-width="0.5" opacity="0.9"/>
  <path d="M 300 675.499814951862 L 360 675.499814951862 L 330 727.4613391789284 Z" fill="#50570f" stroke="#000" stroke-width="0.5" opacity="0.9"/>
  <path d="M 390 727.4613391789284 L 330 727.4613391789284 L 360 675.499814951862 Z" fill="#98a329" stroke="#000" stroke-width="0.5" opacity="0.9"/>
  <path d="M 360 675.499814951862 L 420 675.499814951862 L 390 727.4613391789284 Z" fill="#c3cc66" stroke="#000" stroke-width="0.5" opacity="0.9"/>
  <path d="M 450 727.4613391789284 L 390 727.4613391789284 L 420 675.499814951862 Z" fill="#dde0b8" stroke="#000" stroke-width="0.5" opacity="0.9"/>
  <path d="M 420 675.499814951862 L 480 675.499814951862 L 450 727.4613391789284 Z" fill="#50570f" stroke="#000" stroke-width="0.5" opacity="0.9"/>
  <path d="M 510 727.4613391789284 L 450 727.4613391789284 L 480 675.499814951862 Z" fill="#98a329" stroke="#000" stroke-width="0.5" opacity="0.9"/>
  <path d="M 480 675.499814951862 L 540 675.499814951862 L 510 727.4613391789284 Z" fill="#c3cc66" stroke="#000" stroke-width="0.5" opacity="0.9"/>
  <path d="M 570 727.4613391789284 L 510 727.4613391789284 L 540 675.499814951862 Z" fill="#dde0b8" stroke="#000" stroke-width="0.5" opacity="0.9"/>
  <path d="M 540 675.499814951862 L 600 675.499814951862 L 570 727.4613391789284 Z" fill="#50570f" stroke="#000" stroke-width="0.5" opacity="0.9"/>
  <path d="M 630 727.4613391789284 L 570 727.4613391789284 L 600 675.499814951862 Z" fill="#98a329" stroke="#000" stroke-width="0.5" opacity="0.9"/>
  <path d="M 600 675.499814951862 L 660 675.499814951862 L 630 727.4613391789284 Z" fill="#c3cc66" stroke="#000" stroke-width="0.5" opacity="0.9"/>
  <path d="M 690 727.4613391789284 L 630 727.4613391789284 L 660 675.499814951862 Z" fill="#dde0b8" stroke="#000" stroke-width="0.5" opacity="0.9"/>
  <path d="M 660 675.499814951862 L 720 675.499814951862 L 690 727.4613391789284 Z" fill="#50570f" stroke="#000" stroke-width="0.5" opacity="0.9"/>
  <path d="M 750 727.4613391789284 L 690 727.4613391789284 L 720 675.499814951862 Z" fill="#98a329" stroke="#000" stroke-width="0.5" opacity="0.9"/>
  <path d="M 720 675.499814951862 L 780 675.499814951862 L 750 727.4613391789284 Z" fill="#c3cc66" stroke="#000" stroke-width="0.5" opacity="0.9"/>
  <path d="M 810 727.4613391789284 L 750 727.4613391789284 L 780 675.499814951862 Z" fill="#dde0b8" stroke="#000" stroke-width="0.5" opacity="0.9"/>
  <path d="M 780 675.499814951862 L 840 675.499814951862 L 810 727.4613391789284 Z" fill="#50570f" stroke="#000" stroke-width="0.5" opacity="0.9"/>
  <path d="M 870 727.4613391789284 L 810 727.4613391789284 L 840 675.499814951862 Z" fill="#98a329" stroke="#000" stroke-width="0.5" opacity="0.9"/>
  <path d="M 840 675.499814951862 L 900 675.499814951862 L 870 727.4613391789284 Z" fill="#c3cc66" stroke="#000" stroke-width="0.5" opacity="0.9"/>
  <path d="M 930 727.4613391789284 L 870 727.4613391789284 L 900 675.499814951862 Z" fill="#dde0b8" stroke="#000" stroke-width="0.5" opacity="0.9"/>
  <path d="M 900 675.499814951862 L 960 675.499814951862 L 930 727.4613391789284 Z" fill="#50570f" stroke="#000" stroke-width="0.5" opacity="0.9"/>
  <path d="M 990 727.4613391789284 L 930 727.4613391789284 L 960 675.499814951862 Z" fill="#98a329" stroke="#000" stroke-width="0.5" opacity="0.9"/>
</svg>